{
.appVersion = "1352";
DisplayStrings = (
"À",
"/sinNVa.reph",
"/sinVa/sinCandrabindu",
"/sinCandrabindu",
"/sinThreelith/sinFourlith/sinFivelith/sinEightlith",
"/sinFivelith",
"/sinRa/sinOnelith/sinTwolith/sinThreelith/sinFourlith/sinFivelith/sinSixlith/sinSevenlith/sinEightlith/sinNinelith/oneArchaic-sinhala/twoArchaic-sinhala/threeArchaic-sinhala/fourArchaic-sinhala/fiveArchaic-sinhala/sixArchaic-sinhala/sevenArchaic-sinhala/eightArchaic-sinhala/nineArchaic-sinhala/tenArchaic-sinhala/twentyArchaic-sinhala/thirtyArchaic-sinhala/fortyArchaic-sinhala/fiftyArchaic-sinhala/sixtyArchaic-sinhala/seventyArchaic-sinhala/eightyArchaic-sinhala/ninetyArchaic-sinhala/onehundredArchaic-sinhala/onethousandArchaic-sinhala",
"/sinOnelith/sinTwolith/sinThreelith/sinFourlith/sinFivelith/sinSixlith/sinSevenlith/sinEightlith/sinTwolith/sinNinelith/oneArchaic-sinhala/twoArchaic-sinhala/threeArchaic-sinhala/fourArchaic-sinhala/fiveArchaic-sinhala/sixArchaic-sinhala/sevenArchaic-sinhala/eightArchaic-sinhala/nineArchaic-sinhala/tenArchaic-sinhala/twentyArchaic-sinhala/thirtyArchaic-sinhala/fortyArchaic-sinhala/fiftyArchaic-sinhala/sixtyArchaic-sinhala/seventyArchaic-sinhala/eightyArchaic-sinhala/ninetyArchaic-sinhala/onehundredArchaic-sinhala/onethousandArchaic-sinhala",
"/sinZerolith",
"/sinZerolith/sinOnelith/sinTwolith/sinThreelith/sinFourlith/sinFivelith/sinSixlith/sinSevenlith/sinEightlith/sinNinelith/oneArchaic-sinhala/twoArchaic-sinhala/threeArchaic-sinhala/fourArchaic-sinhala/fiveArchaic-sinhala/sixArchaic-sinhala/sevenArchaic-sinhala/eightArchaic-sinhala/nineArchaic-sinhala/tenArchaic-sinhala/twentyArchaic-sinhala/thirtyArchaic-sinhala/fortyArchaic-sinhala/fiftyArchaic-sinhala/sixtyArchaic-sinhala/seventyArchaic-sinhala/eightyArchaic-sinhala/ninetyArchaic-sinhala/onehundredArchaic-sinhala/onethousandArchaic-sinhala",
"/sinMatraAu/sinMatraEe/sinMatraO/sinMatraOo"
);
copyright = "Copyright 2021 The Gemunu Libre Project Authors (https://github.com/mooniak/gemunu-libre-font/)";

glyphs = (
{
glyphname = sinA;
lastChange = "2021-06-12 12:56:09 +0000";
layers = (
{
layerId = "522BF62C-3FFD-47FE-9DEE-94F66EB24849";
paths = (
{
closed = 1;
nodes = (
"270.001 472.316 OFFCURVE",
"299.807 497.001 OFFCURVE",
"332.001 497.001 CURVE SMOOTH",
"516 497.001 LINE",
"516 419.001 LINE",
"480 419.001 LINE SMOOTH",
"468.647 418.773 OFFCURVE",
"467 412.334 OFFCURVE",
"467 409.001 CURVE SMOOTH",
"467 394.737 OFFCURVE",
"513 375.79 OFFCURVE",
"513 322 CURVE SMOOTH",
"513 224 LINE SMOOTH",
"513 190.38 OFFCURVE",
"496.152 171.001 OFFCURVE",
"463 171.001 CURVE SMOOTH",
"394 171.001 LINE",
"394 107 LINE",
"511 107 LINE",
"511 0 LINE",
"394 0 LINE",
"394 -139.999 LINE",
"270 -139.999 LINE",
"270 0 LINE",
"70 0 LINE SMOOTH",
"33 0 OFFCURVE",
"22 14.052 OFFCURVE",
"22 51 CURVE SMOOTH",
"22 299 LINE SMOOTH",
"22 336.333 OFFCURVE",
"40.332 355 OFFCURVE",
"77 355 CURVE SMOOTH",
"150 355 LINE",
"150 377 LINE SMOOTH",
"150 392.226 OFFCURVE",
"144.532 394 OFFCURVE",
"129 394 CURVE SMOOTH",
"22 394 LINE",
"22 497 LINE",
"169 497 LINE SMOOTH",
"212.332 497 OFFCURVE",
"241.001 474.112 OFFCURVE",
"241.001 431 CURVE SMOOTH",
"241 253 LINE",
"168.999 253 LINE SMOOTH",
"148.816 253 OFFCURVE",
"145.999 248.131 OFFCURVE",
"145.999 228 CURVE SMOOTH",
"145.999 128 LINE SMOOTH",
"145.999 114 OFFCURVE",
"152 107 OFFCURVE",
"162.999 107 CURVE SMOOTH",
"270 107 LINE",
"270.001 429 LINE SMOOTH"
);
},
{
closed = 1;
nodes = (
"410 265.001 LINE SMOOTH",
"425.645 265.001 OFFCURVE",
"428 269.544 OFFCURVE",
"428 286.001 CURVE SMOOTH",
"428 329 LINE SMOOTH",
"428 358.309 OFFCURVE",
"407.004 375.504 OFFCURVE",
"407.004 392.007 CURVE SMOOTH",
"407.004 394.673 OFFCURVE",
"407.455 397.952 OFFCURVE",
"409.004 400.007 CURVE",
"400.236 398.332 OFFCURVE",
"393 392.917 OFFCURVE",
"393 376.204 CURVE SMOOTH",
"393 265.001 LINE"
);
}
);
width = 542;
},
{
layerId = "DC4431BF-9234-4C16-9154-22D387E42D10";
paths = (
{
closed = 1;
nodes = (
"317 472 OFFCURVE",
"341 497 OFFCURVE",
"379 497 CURVE SMOOTH",
"495 497 LINE",
"495 461 LINE",
"459 461 LINE SMOOTH",
"448 461 OFFCURVE",
"446 455 OFFCURVE",
"446 451 CURVE SMOOTH",
"446 437 OFFCURVE",
"492 401 OFFCURVE",
"492 347 CURVE SMOOTH",
"492 249 LINE SMOOTH",
"492 216 OFFCURVE",
"475 196 OFFCURVE",
"442 196 CURVE SMOOTH",
"363 196 LINE",
"363 40 LINE",
"490 40 LINE",
"490 0 LINE",
"363 0 LINE",
"363 -140 LINE",
"317 -140 LINE",
"317 0 LINE",
"70 0 LINE SMOOTH",
"33 0 OFFCURVE",
"22 14 OFFCURVE",
"22 51 CURVE SMOOTH",
"22 297 LINE SMOOTH",
"22 335 OFFCURVE",
"41 353 OFFCURVE",
"77 353 CURVE SMOOTH",
"219 353 LINE",
"219 418 LINE SMOOTH",
"219 454 OFFCURVE",
"201 459 OFFCURVE",
"177 459 CURVE SMOOTH",
"22 459 LINE",
"22 497 LINE",
"190 497 LINE SMOOTH",
"236 497 OFFCURVE",
"262 474 OFFCURVE",
"262 431 CURVE SMOOTH",
"262 314 LINE",
"96 314 LINE SMOOTH",
"74 314 OFFCURVE",
"68 305 OFFCURVE",
"68 281 CURVE SMOOTH",
"68 66 LINE SMOOTH",
"68 45 OFFCURVE",
"72 40 OFFCURVE",
"89 40 CURVE SMOOTH",
"317 40 LINE",
"317 429 LINE SMOOTH"
);
},
{
closed = 1;
nodes = (
"426 235 LINE SMOOTH",
"445 235 OFFCURVE",
"451 240 OFFCURVE",
"451 262 CURVE SMOOTH",
"451 348 LINE SMOOTH",
"451 390 OFFCURVE",
"406 422 OFFCURVE",
"406 451 CURVE SMOOTH",
"406 454 OFFCURVE",
"406 457 OFFCURVE",
"408 459 CURVE",
"382 459 OFFCURVE",
"363 456 OFFCURVE",
"363 422 CURVE SMOOTH",
"363 235 LINE"
);
}
);
width = 542;
}
);
unicode = 0D85;
},
{
glyphname = sinI;
lastChange = "2021-06-12 12:56:09 +0000";
layers = (
{
layerId = "522BF62C-3FFD-47FE-9DEE-94F66EB24849";
paths = (
{
closed = 1;
nodes = (
"311.197 206 LINE SMOOTH",
"311.197 172.077 OFFCURVE",
"291.191 156 OFFCURVE",
"258 156 CURVE SMOOTH",
"78 156 LINE SMOOTH",
"41.234 156 OFFCURVE",
"22 172.981 OFFCURVE",
"22 210 CURVE SMOOTH",
"22 442 LINE SMOOTH",
"22 476.486 OFFCURVE",
"43.977 497 OFFCURVE",
"83 497 CURVE SMOOTH",
"428 497 LINE SMOOTH",
"471.529 497 OFFCURVE",
"489.001 474.966 OFFCURVE",
"489.001 442 CURVE SMOOTH",
"489.001 122.996 LINE SMOOTH",
"489.001 83.154 OFFCURVE",
"466.443 66.229 OFFCURVE",
"444 59.996 CURVE",
"460 48.663 OFFCURVE",
"472.001 33.996 OFFCURVE",
"472.001 9.996 CURVE SMOOTH",
"472.001 -99.005 LINE SMOOTH",
"472.001 -141.628 OFFCURVE",
"454.968 -159.005 OFFCURVE",
"416 -159.005 CURVE SMOOTH",
"46.203 -159.005 LINE",
"46.203 -50.005 LINE",
"324 -50.005 LINE SMOOTH",
"343.751 -50.005 OFFCURVE",
"348.001 -49.662 OFFCURVE",
"348.001 -37.005 CURVE SMOOTH",
"348.001 -12.999 LINE SMOOTH",
"348.001 -4.332 OFFCURVE",
"344.189 0 OFFCURVE",
"324 0 CURVE SMOOTH",
"47 0 LINE",
"47 107 LINE",
"332.001 107 LINE SMOOTH",
"354.001 107 OFFCURVE",
"365.001 117.334 OFFCURVE",
"365.001 138.001 CURVE SMOOTH",
"365.001 374 LINE SMOOTH",
"365.001 387.333 OFFCURVE",
"359.001 394 OFFCURVE",
"347.001 394 CURVE SMOOTH",
"168.002 394 LINE SMOOTH",
"153.335 394 OFFCURVE",
"146.002 388 OFFCURVE",
"146.002 376 CURVE SMOOTH",
"146.002 276.994 LINE SMOOTH",
"146.002 261.564 OFFCURVE",
"148.775 256.994 OFFCURVE",
"162 256.994 CURVE SMOOTH",
"182.196 256.994 LINE SMOOTH",
"196.521 256.994 OFFCURVE",
"199.197 260.994 OFFCURVE",
"199.197 276.994 CURVE SMOOTH",
"199.197 346 LINE",
"311.197 346 LINE"
);
}
);
width = 519;
},
{
layerId = "DC4431BF-9234-4C16-9154-22D387E42D10";
paths = (
{
closed = 1;
nodes = (
"262 206 LINE SMOOTH",
"262 172 OFFCURVE",
"242 156 OFFCURVE",
"208 156 CURVE SMOOTH",
"78 156 LINE SMOOTH",
"41 156 OFFCURVE",
"22 173 OFFCURVE",
"22 210 CURVE SMOOTH",
"22 442 LINE SMOOTH",
"22 476 OFFCURVE",
"44 497 OFFCURVE",
"83 497 CURVE SMOOTH",
"405 497 LINE SMOOTH",
"449 497 OFFCURVE",
"467 475 OFFCURVE",
"467 442 CURVE SMOOTH",
"467 79 LINE SMOOTH",
"467 46 OFFCURVE",
"458 27 OFFCURVE",
"433 19 CURVE",
"447 10 OFFCURVE",
"450 -4 OFFCURVE",
"450 -28 CURVE SMOOTH",
"450 -99 LINE SMOOTH",
"450 -142 OFFCURVE",
"432 -159 OFFCURVE",
"393 -159 CURVE SMOOTH",
"46 -159 LINE",
"46 -119 LINE",
"375 -119 LINE SMOOTH",
"395 -119 OFFCURVE",
"404 -116 OFFCURVE",
"404 -96 CURVE SMOOTH",
"404 -28 LINE SMOOTH",
"404 -14 OFFCURVE",
"397 0 OFFCURVE",
"372 0 CURVE SMOOTH",
"47 0 LINE",
"47 40 LINE",
"362 40 LINE SMOOTH",
"404 40 OFFCURVE",
"421 47 OFFCURVE",
"421 81 CURVE SMOOTH",
"421 431 LINE SMOOTH",
"421 452 OFFCURVE",
"410 458 OFFCURVE",
"390 458 CURVE SMOOTH",
"101 458 LINE SMOOTH",
"78 458 OFFCURVE",
"68 450 OFFCURVE",
"68 431 CURVE SMOOTH",
"68 224 LINE SMOOTH",
"68 204 OFFCURVE",
"70 195 OFFCURVE",
"98 195 CURVE SMOOTH",
"196 195 LINE SMOOTH",
"214 195 OFFCURVE",
"217 206 OFFCURVE",
"217 223 CURVE SMOOTH",
"217 346 LINE",
"262 346 LINE"
);
}
);
width = 519;
}
);
unicode = 0D89;
},
{
glyphname = sinIi;
lastChange = "2021-06-12 12:56:09 +0000";
layers = (
{
layerId = "522BF62C-3FFD-47FE-9DEE-94F66EB24849";
paths = (
{
closed = 1;
nodes = (
"22 11.86 OFFCURVE",
"38.225 0 OFFCURVE",
"67.602 0 CURVE SMOOTH",
"365.8 0 LINE SMOOTH",
"416.645 0 OFFCURVE",
"421.001 32.095 OFFCURVE",
"421.001 61 CURVE SMOOTH",
"421.001 438 LINE SMOOTH",
"421.001 473.887 OFFCURVE",
"402.535 497 OFFCURVE",
"360 497 CURVE SMOOTH",
"212.001 497.001 LINE",
"365.001 663 LINE",
"222.001 663 LINE",
"63 498.001 LINE SMOOTH",
"39 474 OFFCURVE",
"22 453.477 OFFCURVE",
"22 430 CURVE SMOOTH",
"22 48.2 LINE SMOOTH"
);
},
{
closed = 1;
nodes = (
"146.006 388.975 OFFCURVE",
"148.754 394.001 OFFCURVE",
"171.206 394.001 CURVE SMOOTH",
"272 394 LINE SMOOTH",
"292.793 394 OFFCURVE",
"296.801 391.192 OFFCURVE",
"296.801 372.001 CURVE SMOOTH",
"296.801 133.194 LINE SMOOTH",
"296.801 110.47 OFFCURVE",
"295.242 107 OFFCURVE",
"272 107 CURVE SMOOTH",
"169.601 107 LINE SMOOTH",
"146.288 107 OFFCURVE",
"146 113 OFFCURVE",
"146 130 CURVE",
"146.006 367.001 LINE"
);
},
{
closed = 1;
nodes = (
"123.996 663 LINE",
"123.996 569 LINE",
"21.996 569 LINE",
"21.996 663 LINE"
);
},
{
closed = 1;
nodes = (
"435.001 612 LINE",
"435.001 518 LINE",
"333.001 518 LINE",
"333.001 612 LINE"
);
}
);
width = 451;
},
{
layerId = "DC4431BF-9234-4C16-9154-22D387E42D10";
paths = (
{
closed = 1;
nodes = (
"22 12 OFFCURVE",
"38 0 OFFCURVE",
"68 0 CURVE SMOOTH",
"341 0 LINE SMOOTH",
"392 0 OFFCURVE",
"397 32 OFFCURVE",
"397 61 CURVE SMOOTH",
"397 438 LINE SMOOTH",
"397 474 OFFCURVE",
"378 497 OFFCURVE",
"336 497 CURVE SMOOTH",
"126 497 LINE",
"321 663 LINE",
"260 663 LINE",
"63 498.001 LINE SMOOTH",
"37 476 OFFCURVE",
"22 459 OFFCURVE",
"22 430 CURVE SMOOTH",
"22 48 LINE SMOOTH"
);
},
{
closed = 1;
nodes = (
"68 444 OFFCURVE",
"82 458 OFFCURVE",
"106 458 CURVE SMOOTH",
"316 458 LINE SMOOTH",
"341 458 OFFCURVE",
"353 450 OFFCURVE",
"353 419 CURVE SMOOTH",
"353 71 LINE SMOOTH",
"353 42 OFFCURVE",
"345 40 OFFCURVE",
"326 40 CURVE SMOOTH",
"103 40 LINE SMOOTH",
"70 40 OFFCURVE",
"68 44 OFFCURVE",
"68 77 CURVE",
"68 412 LINE"
);
},
{
closed = 1;
nodes = (
"123.996 663 LINE",
"123.996 605 LINE",
"66.996 605 LINE",
"66.996 663 LINE"
);
},
{
closed = 1;
nodes = (
"372 595 LINE",
"372 537 LINE",
"315 537 LINE",
"315 595 LINE"
);
}
);
width = 451;
}
);
unicode = 0D8A;
},
{
glyphname = sinU;
lastChange = "2021-06-12 12:56:09 +0000";
layers = (
{
layerId = "522BF62C-3FFD-47FE-9DEE-94F66EB24849";
paths = (
{
closed = 1;
nodes = (
"426 497 LINE SMOOTH",
"466.666 497 OFFCURVE",
"491.001 478.366 OFFCURVE",
"491.001 438 CURVE SMOOTH",
"491.001 253 LINE",
"176.995 253 LINE SMOOTH",
"149.411 253 OFFCURVE",
"146 249.809 OFFCURVE",
"146 222 CURVE SMOOTH",
"146 -20 LINE SMOOTH",
"146 -38.667 OFFCURVE",
"149.333 -43 OFFCURVE",
"168 -43 CURVE SMOOTH",
"351 -43 LINE SMOOTH",
"367.666 -43 OFFCURVE",
"369.995 -36.333 OFFCURVE",
"369.995 -23 CURVE SMOOTH",
"369.995 97.986 LINE",
"494.001 97.986 LINE",
"494.001 -92 LINE SMOOTH",
"494.001 -138.04 OFFCURVE",
"474.334 -153 OFFCURVE",
"435.001 -153 CURVE SMOOTH",
"76 -153 LINE SMOOTH",
"34.089 -153 OFFCURVE",
"22 -122.863 OFFCURVE",
"22 -86 CURVE SMOOTH",
"22 282.995 LINE SMOOTH",
"22 330.995 OFFCURVE",
"46.668 354.994 OFFCURVE",
"96 354.995 CURVE SMOOTH",
"367 355 LINE",
"367.001 378.599 LINE SMOOTH",
"367 387.599 OFFCURVE",
"364.472 393.999 OFFCURVE",
"351.805 393.999 CURVE SMOOTH",
"93 393.999 LINE",
"93 497 LINE"
);
}
);
width = 521;
},
{
layerId = "DC4431BF-9234-4C16-9154-22D387E42D10";
paths = (
{
closed = 1;
nodes = (
"410 497 LINE SMOOTH",
"450 497 OFFCURVE",
"475 478 OFFCURVE",
"475 438 CURVE SMOOTH",
"475 314 LINE",
"114 314 LINE SMOOTH",
"80 314 OFFCURVE",
"68 307 OFFCURVE",
"68 273 CURVE SMOOTH",
"68 -68 LINE SMOOTH",
"68 -104 OFFCURVE",
"73 -113 OFFCURVE",
"101 -113 CURVE SMOOTH",
"405 -113 LINE SMOOTH",
"428 -113 OFFCURVE",
"432 -98 OFFCURVE",
"432 -85 CURVE SMOOTH",
"432 98 LINE",
"478 98 LINE",
"478 -92 LINE SMOOTH",
"478 -138 OFFCURVE",
"458 -153 OFFCURVE",
"419 -153 CURVE SMOOTH",
"76 -153 LINE SMOOTH",
"34 -153 OFFCURVE",
"22 -123 OFFCURVE",
"22 -86 CURVE SMOOTH",
"22 281 LINE SMOOTH",
"22 329 OFFCURVE",
"47 353 OFFCURVE",
"96 353 CURVE SMOOTH",
"429 353 LINE",
"429 428 LINE SMOOTH",
"429 443 OFFCURVE",
"425 458 OFFCURVE",
"398 458 CURVE SMOOTH",
"93 458 LINE",
"93 497 LINE"
);
}
);
width = 521;
}
);
unicode = 0D8B;
},
{
glyphname = sinRVocalic;
lastChange = "2021-06-12 12:56:09 +0000";
layers = (
{
components = (
{
name = sinMatraR;
transform = "{1, 0, 0, 1, 563, 0}";
}
);
layerId = "522BF62C-3FFD-47FE-9DEE-94F66EB24849";
paths = (
{
closed = 1;
nodes = (
"278 19.881 OFFCURVE",
"251.568 0 OFFCURVE",
"225 0 CURVE SMOOTH",
"72 0 LINE SMOOTH",
"34.925 0 OFFCURVE",
"22 16.271 OFFCURVE",
"22 54 CURVE SMOOTH",
"22 296 LINE SMOOTH",
"22 339.261 OFFCURVE",
"42.472 356 OFFCURVE",
"86 356 CURVE SMOOTH",
"168 356 LINE",
"168 379 LINE SMOOTH",
"168 389 OFFCURVE",
"161 394 OFFCURVE",
"147 394 CURVE SMOOTH",
"23 394 LINE",
"23 497 LINE",
"192 497 LINE SMOOTH",
"230.704 497 OFFCURVE",
"264.001 480.775 OFFCURVE",
"264.001 443 CURVE SMOOTH",
"264 253 LINE",
"169 253 LINE SMOOTH",
"153.667 253 OFFCURVE",
"146 247.333 OFFCURVE",
"146 236 CURVE SMOOTH",
"146 130 LINE SMOOTH",
"146 114.667 OFFCURVE",
"152 107 OFFCURVE",
"164 107 CURVE SMOOTH",
"195 107 LINE SMOOTH",
"213 107 OFFCURVE",
"222 115.667 OFFCURVE",
"222 133 CURVE SMOOTH",
"222 190 LINE",
"334 190 LINE",
"334 133 LINE SMOOTH",
"334 115.667 OFFCURVE",
"343 107 OFFCURVE",
"361 107 CURVE SMOOTH",
"392 107 LINE SMOOTH",
"404 107 OFFCURVE",
"410 114.667 OFFCURVE",
"410 130 CURVE SMOOTH",
"410 236 LINE SMOOTH",
"410 247.333 OFFCURVE",
"402.333 253 OFFCURVE",
"387 253 CURVE SMOOTH",
"292 253 LINE",
"291.999 443 LINE SMOOTH",
"291.999 480.775 OFFCURVE",
"325.296 497 OFFCURVE",
"364 497 CURVE SMOOTH",
"533 497 LINE",
"533 394 LINE",
"409 394 LINE SMOOTH",
"395 394 OFFCURVE",
"388 389 OFFCURVE",
"388 379 CURVE SMOOTH",
"388 356 LINE",
"470 356 LINE SMOOTH",
"513.529 356 OFFCURVE",
"534 339.26 OFFCURVE",
"534 296 CURVE SMOOTH",
"534 54 LINE SMOOTH",
"534 16.27 OFFCURVE",
"521.075 0 OFFCURVE",
"484 0 CURVE SMOOTH",
"331 0 LINE SMOOTH",
"304.431 0 OFFCURVE",
"278 19.881 OFFCURVE",
"278 46 CURVE"
);
}
);
width = 909;
},
{
components = (
{
alignment = -1;
name = sinMatraR;
transform = "{1, 0, 0, 1, 565, 0}";
}
);
layerId = "DC4431BF-9234-4C16-9154-22D387E42D10";
paths = (
{
closed = 1;
nodes = (
"259 12 OFFCURVE",
"234 0 OFFCURVE",
"215 0 CURVE SMOOTH",
"72 0 LINE SMOOTH",
"35 0 OFFCURVE",
"22 16 OFFCURVE",
"22 54 CURVE SMOOTH",
"22 298 LINE SMOOTH",
"22 335 OFFCURVE",
"41 353 OFFCURVE",
"79 353 CURVE SMOOTH",
"202 353 LINE",
"202 429 LINE SMOOTH",
"202 451 OFFCURVE",
"190 458 OFFCURVE",
"168 458 CURVE SMOOTH",
"23 458 LINE",
"23 497 LINE",
"181 497 LINE SMOOTH",
"222 497 OFFCURVE",
"244 478 OFFCURVE",
"244 440 CURVE SMOOTH",
"244 314 LINE",
"91 314 LINE SMOOTH",
"77 314 OFFCURVE",
"68 307 OFFCURVE",
"68 294 CURVE SMOOTH",
"68 63 LINE SMOOTH",
"68 47 OFFCURVE",
"74 40 OFFCURVE",
"87 40 CURVE SMOOTH",
"200 40 LINE SMOOTH",
"233 40 OFFCURVE",
"245 68 OFFCURVE",
"245 97 CURVE SMOOTH",
"245 168 LINE",
"290 168 LINE",
"290 97 LINE SMOOTH",
"290 68 OFFCURVE",
"302 40 OFFCURVE",
"336 40 CURVE SMOOTH",
"447 40 LINE SMOOTH",
"460 40 OFFCURVE",
"467 47 OFFCURVE",
"467 63 CURVE SMOOTH",
"467 294 LINE SMOOTH",
"467 307 OFFCURVE",
"457 314 OFFCURVE",
"444 314 CURVE SMOOTH",
"290 314 LINE",
"290 440 LINE SMOOTH",
"290 478 OFFCURVE",
"312 497 OFFCURVE",
"353 497 CURVE SMOOTH",
"511 497 LINE",
"511 458 LINE",
"367 458 LINE SMOOTH",
"345 458 OFFCURVE",
"332 451 OFFCURVE",
"332 429 CURVE SMOOTH",
"332 353 LINE",
"456 353 LINE SMOOTH",
"494 353 OFFCURVE",
"512 335 OFFCURVE",
"512 298 CURVE SMOOTH",
"512 54 LINE SMOOTH",
"512 16 OFFCURVE",
"499 0 OFFCURVE",
"462 0 CURVE SMOOTH",
"320 0 LINE SMOOTH",
"301 0 OFFCURVE",
"274 12 OFFCURVE",
"267 36 CURVE"
);
}
);
width = 908;
}
);
unicode = 0D8D;
},
{
glyphname = sinRrVocalic;
lastChange = "2021-06-12 12:56:09 +0000";
layers = (
{
components = (
{
name = sinMatraRr;
transform = "{1, 0, 0, 1, 557.6, 0}";
}
);
layerId = "522BF62C-3FFD-47FE-9DEE-94F66EB24849";
paths = (
{
closed = 1;
nodes = (
"278 19.881 OFFCURVE",
"251.568 0 OFFCURVE",
"225 0 CURVE SMOOTH",
"72 0 LINE SMOOTH",
"34.925 0 OFFCURVE",
"22 16.271 OFFCURVE",
"22 54 CURVE SMOOTH",
"22 296 LINE SMOOTH",
"22 339.261 OFFCURVE",
"42.472 356 OFFCURVE",
"86 356 CURVE SMOOTH",
"168 356 LINE",
"168 379 LINE SMOOTH",
"168 389 OFFCURVE",
"161 394 OFFCURVE",
"147 394 CURVE SMOOTH",
"23 394 LINE",
"23 497 LINE",
"192 497 LINE SMOOTH",
"230.704 497 OFFCURVE",
"264.001 480.775 OFFCURVE",
"264.001 443 CURVE SMOOTH",
"264 253 LINE",
"169 253 LINE SMOOTH",
"153.667 253 OFFCURVE",
"146 247.333 OFFCURVE",
"146 236 CURVE SMOOTH",
"146 130 LINE SMOOTH",
"146 114.667 OFFCURVE",
"152 107 OFFCURVE",
"164 107 CURVE SMOOTH",
"195 107 LINE SMOOTH",
"213 107 OFFCURVE",
"222 115.667 OFFCURVE",
"222 133 CURVE SMOOTH",
"222 190 LINE",
"334 190 LINE",
"334 133 LINE SMOOTH",
"334 115.667 OFFCURVE",
"343 107 OFFCURVE",
"361 107 CURVE SMOOTH",
"392 107 LINE SMOOTH",
"404 107 OFFCURVE",
"410 114.667 OFFCURVE",
"410 130 CURVE SMOOTH",
"410 236 LINE SMOOTH",
"410 247.333 OFFCURVE",
"402.333 253 OFFCURVE",
"387 253 CURVE SMOOTH",
"292 253 LINE",
"291.999 443 LINE SMOOTH",
"291.999 480.775 OFFCURVE",
"325.296 497 OFFCURVE",
"364 497 CURVE SMOOTH",
"533 497 LINE",
"533 394 LINE",
"409 394 LINE SMOOTH",
"395 394 OFFCURVE",
"388 389 OFFCURVE",
"388 379 CURVE SMOOTH",
"388 356 LINE",
"470 356 LINE SMOOTH",
"513.529 356 OFFCURVE",
"534 339.26 OFFCURVE",
"534 296 CURVE SMOOTH",
"534 54 LINE SMOOTH",
"534 16.27 OFFCURVE",
"521.075 0 OFFCURVE",
"484 0 CURVE SMOOTH",
"331 0 LINE SMOOTH",
"304.431 0 OFFCURVE",
"278 19.881 OFFCURVE",
"278 46 CURVE"
);
}
);
userData = {
com.fontlab.hintData = {
hhints = (
{
position = -1;
width = 72;
},
{
position = -1;
width = 29;
},
{
position = 17;
width = 26;
},
{
position = 195;
width = 27;
},
{
position = 291;
width = 25;
},
{
position = 358;
width = 35;
},
{
position = 395;
width = 36;
}
);
vhints = (
{
position = 31;
width = 38;
},
{
position = 62;
width = 74;
},
{
position = 263;
width = 30;
},
{
position = 301;
width = 27;
},
{
position = 520;
width = 39;
},
{
position = 571;
width = 37;
},
{
position = 617;
width = 30;
},
{
position = 786;
width = 45;
},
{
position = 787;
width = 61;
},
{
position = 863;
width = 30;
},
{
position = 1032;
width = 45;
},
{
position = 1033;
width = 61;
}
);
};
};
width = 1243;
},
{
components = (
{
alignment = -1;
name = sinMatraRr;
transform = "{1, 0, 0, 1, 561, -1}";
}
);
layerId = "DC4431BF-9234-4C16-9154-22D387E42D10";
paths = (
{
closed = 1;
nodes = (
"259 12 OFFCURVE",
"234 0 OFFCURVE",
"215 0 CURVE SMOOTH",
"72 0 LINE SMOOTH",
"35 0 OFFCURVE",
"22 16 OFFCURVE",
"22 54 CURVE SMOOTH",
"22 298 LINE SMOOTH",
"22 335 OFFCURVE",
"41 353 OFFCURVE",
"79 353 CURVE SMOOTH",
"202 353 LINE",
"202 429 LINE SMOOTH",
"202 451 OFFCURVE",
"190 458 OFFCURVE",
"168 458 CURVE SMOOTH",
"23 458 LINE",
"23 497 LINE",
"181 497 LINE SMOOTH",
"222 497 OFFCURVE",
"244 478 OFFCURVE",
"244 440 CURVE SMOOTH",
"244 314 LINE",
"91 314 LINE SMOOTH",
"77 314 OFFCURVE",
"68 307 OFFCURVE",
"68 294 CURVE SMOOTH",
"68 63 LINE SMOOTH",
"68 47 OFFCURVE",
"74 40 OFFCURVE",
"87 40 CURVE SMOOTH",
"200 40 LINE SMOOTH",
"233 40 OFFCURVE",
"245 68 OFFCURVE",
"245 97 CURVE SMOOTH",
"245 168 LINE",
"290 168 LINE",
"290 97 LINE SMOOTH",
"290 68 OFFCURVE",
"302 40 OFFCURVE",
"336 40 CURVE SMOOTH",
"447 40 LINE SMOOTH",
"460 40 OFFCURVE",
"467 47 OFFCURVE",
"467 63 CURVE SMOOTH",
"467 294 LINE SMOOTH",
"467 307 OFFCURVE",
"457 314 OFFCURVE",
"444 314 CURVE SMOOTH",
"290 314 LINE",
"290 440 LINE SMOOTH",
"290 478 OFFCURVE",
"312 497 OFFCURVE",
"353 497 CURVE SMOOTH",
"511 497 LINE",
"511 458 LINE",
"367 458 LINE SMOOTH",
"345 458 OFFCURVE",
"332 451 OFFCURVE",
"332 429 CURVE SMOOTH",
"332 353 LINE",
"456 353 LINE SMOOTH",
"494 353 OFFCURVE",
"512 335 OFFCURVE",
"512 298 CURVE SMOOTH",
"512 54 LINE SMOOTH",
"512 16 OFFCURVE",
"499 0 OFFCURVE",
"462 0 CURVE SMOOTH",
"320 0 LINE SMOOTH",
"301 0 OFFCURVE",
"274 12 OFFCURVE",
"267 36 CURVE"
);
}
);
width = 1243;
}
);
unicode = 0D8E;
},
{
glyphname = sinLVocalic;
lastChange = "2021-06-12 12:56:09 +0000";
layers = (
{
components = (
{
name = sinPa;
transform = "{1, 0, 0, 1, 177, 0}";
}
);
layerId = "522BF62C-3FFD-47FE-9DEE-94F66EB24849";
paths = (
{
closed = 1;
nodes = (
"744 132.667 OFFCURVE",
"741 135 OFFCURVE",
"735 135 CURVE SMOOTH",
"694 135 LINE SMOOTH",
"688 135 OFFCURVE",
"685 132.667 OFFCURVE",
"685 128 CURVE SMOOTH",
"685 103 LINE SMOOTH",
"685 98.333 OFFCURVE",
"688 96 OFFCURVE",
"694 96 CURVE SMOOTH",
"734 96 LINE SMOOTH",
"740.667 96 OFFCURVE",
"744 98 OFFCURVE",
"744 102 CURVE SMOOTH",
"744 128 LINE SMOOTH"
);
},
{
closed = 1;
nodes = (
"536 538 LINE SMOOTH",
"536 578.801 OFFCURVE",
"548.26 601 OFFCURVE",
"603 601 CURVE SMOOTH",
"760 601 LINE SMOOTH",
"816.445 601 OFFCURVE",
"839 563.775 OFFCURVE",
"839 527 CURVE SMOOTH",
"839 78 LINE SMOOTH",
"839 36.645 OFFCURVE",
"820.19 14 OFFCURVE",
"785 14 CURVE SMOOTH",
"687 14 LINE SMOOTH",
"664.715 14 OFFCURVE",
"633 26 OFFCURVE",
"633 53 CURVE SMOOTH",
"633 166 LINE SMOOTH",
"633 201.223 OFFCURVE",
"653 211 OFFCURVE",
"680 211 CURVE SMOOTH",
"735 211 LINE SMOOTH",
"737.79 211 OFFCURVE",
"740.014 210.445 OFFCURVE",
"742 207.801 CURVE",
"742 496 LINE SMOOTH",
"742 512 OFFCURVE",
"733.333 520 OFFCURVE",
"716 520 CURVE SMOOTH",
"647 520 LINE SMOOTH",
"634.333 520 OFFCURVE",
"628 516.333 OFFCURVE",
"628 509 CURVE SMOOTH",
"628 495 LINE",
"536 495 LINE"
);
},
{
closed = 1;
nodes = (
"117 102 LINE SMOOTH",
"117 98 OFFCURVE",
"120.333 96 OFFCURVE",
"127 96 CURVE SMOOTH",
"167 96 LINE SMOOTH",
"173 96 OFFCURVE",
"176 98.333 OFFCURVE",
"176 103 CURVE SMOOTH",
"176 128 LINE SMOOTH",
"176 132.667 OFFCURVE",
"173 135 OFFCURVE",
"167 135 CURVE SMOOTH",
"126 135 LINE SMOOTH",
"120 135 OFFCURVE",
"117 132.667 OFFCURVE",
"117 128 CURVE SMOOTH"
);
},
{
closed = 1;
nodes = (
"233 495 LINE",
"233 509 LINE SMOOTH",
"233 516.333 OFFCURVE",
"226.667 520 OFFCURVE",
"214 520 CURVE SMOOTH",
"145 520 LINE SMOOTH",
"127.667 520 OFFCURVE",
"119 512 OFFCURVE",
"119 496 CURVE SMOOTH",
"119 209 LINE",
"120.254 210.012 OFFCURVE",
"121.262 211 OFFCURVE",
"125 211 CURVE SMOOTH",
"181 211 LINE SMOOTH",
"208 211 OFFCURVE",
"228 201.223 OFFCURVE",
"228 166 CURVE SMOOTH",
"227.999 53 LINE SMOOTH",
"227.999 26 OFFCURVE",
"196.285 14 OFFCURVE",
"174 14 CURVE SMOOTH",
"76 14 LINE SMOOTH",
"40.81 14 OFFCURVE",
"22 36.644 OFFCURVE",
"22 78 CURVE SMOOTH",
"22 527 LINE SMOOTH",
"22 563.775 OFFCURVE",
"44.555 601 OFFCURVE",
"101 601 CURVE SMOOTH",
"258 601 LINE SMOOTH",
"312.741 601 OFFCURVE",
"325 578.801 OFFCURVE",
"325 538 CURVE SMOOTH",
"325 495 LINE"
);
}
);
width = 861;
},
{
components = (
{
alignment = -1;
name = sinPa;
transform = "{1, 0, 0, 1, 177, 0}";
}
);
layerId = "DC4431BF-9234-4C16-9154-22D387E42D10";
paths = (
{
closed = 1;
nodes = (
"776 158 OFFCURVE",
"764 175 OFFCURVE",
"738 175 CURVE SMOOTH",
"713 175 LINE SMOOTH",
"698 175 OFFCURVE",
"693 165 OFFCURVE",
"693 154 CURVE SMOOTH",
"693 66 LINE SMOOTH",
"693 58 OFFCURVE",
"695 51 OFFCURVE",
"710 51 CURVE SMOOTH",
"752 51 LINE SMOOTH",
"769 51 OFFCURVE",
"776 59 OFFCURVE",
"776 86 CURVE SMOOTH",
"776 138 LINE SMOOTH"
);
},
{
closed = 1;
nodes = (
"566 538 LINE SMOOTH",
"566 579 OFFCURVE",
"578 601 OFFCURVE",
"633 601 CURVE SMOOTH",
"740.001 601 LINE SMOOTH",
"796 601 OFFCURVE",
"819 564 OFFCURVE",
"819.001 527 CURVE SMOOTH",
"819.001 78 LINE SMOOTH",
"819 37 OFFCURVE",
"800 14 OFFCURVE",
"765.001 14 CURVE SMOOTH",
"702 14 LINE SMOOTH",
"675 14 OFFCURVE",
"655 27 OFFCURVE",
"655 57 CURVE SMOOTH",
"655 161 LINE SMOOTH",
"655 197 OFFCURVE",
"677 211 OFFCURVE",
"704 211 CURVE SMOOTH",
"746 211 LINE SMOOTH",
"766 211 OFFCURVE",
"773 203 OFFCURVE",
"776 199 CURVE",
"776 519 LINE SMOOTH",
"776.001 552.99 OFFCURVE",
"751 564 OFFCURVE",
"730 564 CURVE SMOOTH",
"641 564 LINE SMOOTH",
"616 564 OFFCURVE",
"608 559 OFFCURVE",
"608 532 CURVE SMOOTH",
"608.001 495 LINE",
"566 495 LINE"
);
},
{
closed = 1;
nodes = (
"65 86 LINE SMOOTH",
"65 59 OFFCURVE",
"72 51 OFFCURVE",
"89 51 CURVE SMOOTH",
"131 51 LINE SMOOTH",
"146 51 OFFCURVE",
"148 58 OFFCURVE",
"148 66 CURVE SMOOTH",
"148 154 LINE SMOOTH",
"148 165 OFFCURVE",
"143 175 OFFCURVE",
"128 175 CURVE SMOOTH",
"103 175 LINE SMOOTH",
"77 175 OFFCURVE",
"65 158 OFFCURVE",
"65 138 CURVE SMOOTH"
);
},
{
closed = 1;
nodes = (
"233 495 LINE",
"233 532 LINE SMOOTH",
"233 559 OFFCURVE",
"225 564 OFFCURVE",
"201 564 CURVE SMOOTH",
"111 564 LINE SMOOTH",
"90 564 OFFCURVE",
"65 552.99 OFFCURVE",
"65 519 CURVE SMOOTH",
"65 199 LINE",
"68 203 OFFCURVE",
"75 211 OFFCURVE",
"95 211 CURVE SMOOTH",
"137 211 LINE SMOOTH",
"164 211 OFFCURVE",
"186 197 OFFCURVE",
"186 161 CURVE SMOOTH",
"186 57 LINE SMOOTH",
"186 27 OFFCURVE",
"166 14 OFFCURVE",
"139 14 CURVE SMOOTH",
"76 14 LINE SMOOTH",
"41 14 OFFCURVE",
"22 37 OFFCURVE",
"22 78 CURVE SMOOTH",
"22 527 LINE SMOOTH",
"22 564 OFFCURVE",
"45 601 OFFCURVE",
"101 601 CURVE SMOOTH",
"208 601 LINE SMOOTH",
"263 601 OFFCURVE",
"275 579 OFFCURVE",
"275 538 CURVE SMOOTH",
"275 495 LINE"
);
}
);
width = 868;
}
);
},
{
glyphname = sinE;
lastChange = "2021-06-12 12:56:09 +0000";
layers = (
{
layerId = "522BF62C-3FFD-47FE-9DEE-94F66EB24849";
paths = (
{
closed = 1;
nodes = (
"241.217 527.199 LINE SMOOTH",
"241.217 508.791 OFFCURVE",
"248.619 508.614 OFFCURVE",
"263 508.614 CURVE SMOOTH",
"377.198 508.614 LINE",
"377.198 511.211 LINE SMOOTH",
"377.198 519.211 OFFCURVE",
"367.985 522.988 OFFCURVE",
"361 526 CURVE",
"252 573 LINE",
"249.296 574.166 OFFCURVE",
"245.026 576 OFFCURVE",
"243.198 576 CURVE SMOOTH",
"241.217 576 LINE"
);
},
{
closed = 1;
nodes = (
"504 51 LINE SMOOTH",
"504 19.95 OFFCURVE",
"486.854 0 OFFCURVE",
"458 0 CURVE SMOOTH",
"86 0 LINE SMOOTH",
"56.432 0 OFFCURVE",
"38 13.238 OFFCURVE",
"38 44 CURVE SMOOTH",
"38 145 LINE SMOOTH",
"38 175.599 OFFCURVE",
"51.535 188.864 OFFCURVE",
"64.202 196.197 CURVE",
"4 196.197 LINE",
"4 286.795 LINE",
"184.998 286.795 LINE",
"184.998 308 LINE SMOOTH",
"184.998 314.656 OFFCURVE",
"179.64 319 OFFCURVE",
"170.998 319 CURVE SMOOTH",
"41 319 LINE",
"41 407 LINE",
"249 407 LINE SMOOTH",
"289.939 407 OFFCURVE",
"309 384.43 OFFCURVE",
"309 346 CURVE SMOOTH",
"309 189.799 LINE",
"201 189.799 LINE SMOOTH",
"174.971 189.799 OFFCURVE",
"162.002 177.919 OFFCURVE",
"162.002 159 CURVE SMOOTH",
"162.002 130 LINE SMOOTH",
"162.002 113.813 OFFCURVE",
"165.731 107 OFFCURVE",
"186.398 107 CURVE SMOOTH",
"360.198 107 LINE SMOOTH",
"372.865 107 OFFCURVE",
"379.198 113.667 OFFCURVE",
"379.198 127 CURVE SMOOTH",
"379.198 439.614 LINE",
"177 439.614 LINE SMOOTH",
"143.708 439.614 OFFCURVE",
"131.217 450.586 OFFCURVE",
"131.217 487 CURVE SMOOTH",
"131.217 577 LINE",
"80.217 577 LINE",
"80.217 664 LINE",
"203 664 LINE SMOOTH",
"234.19 664 OFFCURVE",
"245.697 663.544 OFFCURVE",
"288 645 CURVE SMOOTH",
"288.476 644.894 OFFCURVE",
"434 581 OFFCURVE",
"434 581 CURVE SMOOTH",
"470.407 565.041 OFFCURVE",
"504 545.567 OFFCURVE",
"504 494 CURVE SMOOTH"
);
}
);
width = 534;
},
{
layerId = "DC4431BF-9234-4C16-9154-22D387E42D10";
paths = (
{
closed = 1;
nodes = (
"193 512 LINE SMOOTH",
"193 492 OFFCURVE",
"199 490 OFFCURVE",
"218 490 CURVE SMOOTH",
"438 490 LINE",
"438 496 LINE SMOOTH",
"438 527 OFFCURVE",
"417 537 OFFCURVE",
"395 548 CURVE",
"261 617 LINE",
"244 625 OFFCURVE",
"224 626 OFFCURVE",
"205 626 CURVE SMOOTH",
"193 626 LINE"
);
},
{
closed = 1;
nodes = (
"484 51 LINE SMOOTH",
"484 20 OFFCURVE",
"467 0 OFFCURVE",
"438 0 CURVE SMOOTH",
"86 0 LINE SMOOTH",
"56 0 OFFCURVE",
"38 13 OFFCURVE",
"38 44 CURVE SMOOTH",
"38 176 LINE SMOOTH",
"38 214 OFFCURVE",
"55 227 OFFCURVE",
"68 235 CURVE",
"4 235 LINE",
"4 273 LINE",
"239 273 LINE",
"239 339 LINE SMOOTH",
"239 362 OFFCURVE",
"228 369 OFFCURVE",
"209 369 CURVE SMOOTH",
"41 369 LINE",
"41 407 LINE",
"225 407 LINE SMOOTH",
"266 407 OFFCURVE",
"285 384 OFFCURVE",
"285 346 CURVE SMOOTH",
"285 234 LINE",
"165 234 LINE SMOOTH",
"105 234 OFFCURVE",
"84 212 OFFCURVE",
"84 172 CURVE SMOOTH",
"84 64 LINE SMOOTH",
"84 47 OFFCURVE",
"88 40 OFFCURVE",
"109 40 CURVE SMOOTH",
"417 40 LINE SMOOTH",
"432 40 OFFCURVE",
"438 48 OFFCURVE",
"438 67 CURVE SMOOTH",
"438 455 LINE",
"194 455 LINE SMOOTH",
"161 455 OFFCURVE",
"148 466 OFFCURVE",
"148 502 CURVE SMOOTH",
"148 626 LINE",
"80 626 LINE",
"80 664 LINE",
"203 664 LINE SMOOTH",
"234 664 OFFCURVE",
"252 663 OFFCURVE",
"288 645 CURVE SMOOTH",
"288 645 OFFCURVE",
"414 581 OFFCURVE",
"414 581 CURVE SMOOTH",
"451 565 OFFCURVE",
"484 546 OFFCURVE",
"484 494 CURVE SMOOTH"
);
}
);
width = 534;
}
);
unicode = 0D91;
},
{
glyphname = sinEe;
lastChange = "2021-06-12 12:56:09 +0000";
layers = (
{
components = (
{
name = sinE;
}
);
layerId = "522BF62C-3FFD-47FE-9DEE-94F66EB24849";
paths = (
{
closed = 1;
nodes = (
"504 708 LINE",
"504 480 LINE",
"388.001 480 LINE",
"388 708 LINE"
);
}
);
width = 534;
},
{
components = (
{
alignment = -1;
name = sinE;
}
);
layerId = "DC4431BF-9234-4C16-9154-22D387E42D10";
paths = (
{
closed = 1;
nodes = (
"484 708 LINE",
"484 480 LINE",
"439 480 LINE",
"439 708 LINE"
);
}
);
width = 534;
}
);
unicode = 0D92;
},
{
glyphname = sinO;
lastChange = "2021-06-12 12:56:09 +0000";
layers = (
{
layerId = "522BF62C-3FFD-47FE-9DEE-94F66EB24849";
paths = (
{
closed = 1;
nodes = (
"209.404 247 LINE SMOOTH",
"187.843 247 OFFCURVE",
"174.405 255.307 OFFCURVE",
"174.405 277 CURVE SMOOTH",
"174.405 347 LINE SMOOTH",
"174.405 352.033 OFFCURVE",
"171.706 356.001 OFFCURVE",
"165.404 356.001 CURVE SMOOTH",
"156 356.001 LINE SMOOTH",
"149.043 356.001 OFFCURVE",
"146.004 352.293 OFFCURVE",
"146.004 346.2 CURVE SMOOTH",
"146.004 126 LINE SMOOTH",
"146.004 113.333 OFFCURVE",
"152.337 107 OFFCURVE",
"165.004 107 CURVE SMOOTH",
"181.803 107 LINE SMOOTH",
"196.469 107 OFFCURVE",
"203.803 115.333 OFFCURVE",
"203.803 132 CURVE SMOOTH",
"203.803 197.795 LINE",
"303.398 197.795 LINE",
"303.398 134 LINE SMOOTH",
"303.398 116 OFFCURVE",
"311.064 107 OFFCURVE",
"326.398 107 CURVE SMOOTH",
"343.997 107 LINE SMOOTH",
"355.33 107 OFFCURVE",
"360.997 114 OFFCURVE",
"360.997 128 CURVE SMOOTH",
"360.997 479 LINE SMOOTH",
"360.997 503.852 OFFCURVE",
"353.884 510 OFFCURVE",
"330 510 CURVE SMOOTH",
"22 510 LINE",
"22 626 LINE",
"412 626 LINE SMOOTH",
"454.309 626 OFFCURVE",
"484.998 609.264 OFFCURVE",
"484.998 560 CURVE SMOOTH",
"484.998 50 LINE SMOOTH",
"484.998 19.638 OFFCURVE",
"471.396 0 OFFCURVE",
"438 0 CURVE SMOOTH",
"301.803 0 LINE SMOOTH",
"275.803 0 OFFCURVE",
"259.469 12.333 OFFCURVE",
"252.803 37 CURVE",
"249.629 16.378 OFFCURVE",
"229.072 0 OFFCURVE",
"205.803 0 CURVE SMOOTH",
"69 0 LINE SMOOTH",
"37.61 0 OFFCURVE",
"22 15.018 OFFCURVE",
"22 48 CURVE SMOOTH",
"22 394 LINE SMOOTH",
"22 432.555 OFFCURVE",
"40.02 459 OFFCURVE",
"81 459 CURVE SMOOTH",
"195 459 LINE SMOOTH",
"220.992 459 OFFCURVE",
"236.001 449.978 OFFCURVE",
"236.001 424 CURVE SMOOTH",
"236.001 359 LINE SMOOTH",
"236.001 351 OFFCURVE",
"237.224 347 OFFCURVE",
"245.202 347 CURVE SMOOTH",
"253.8 347 LINE SMOOTH",
"260.984 347 OFFCURVE",
"263.001 350.667 OFFCURVE",
"263.001 358 CURVE SMOOTH",
"263.001 459 LINE",
"331.997 459 LINE",
"331.997 282 LINE SMOOTH",
"331.997 258.667 OFFCURVE",
"318.997 247 OFFCURVE",
"292.997 247 CURVE SMOOTH"
);
}
);
width = 515;
},
{
layerId = "DC4431BF-9234-4C16-9154-22D387E42D10";
paths = (
{
closed = 1;
nodes = (
"195 251 LINE SMOOTH",
"174 251 OFFCURVE",
"160 259 OFFCURVE",
"160 281 CURVE SMOOTH",
"160 406 LINE SMOOTH",
"160 415 OFFCURVE",
"157 420 OFFCURVE",
"148 420 CURVE SMOOTH",
"95 420 LINE SMOOTH",
"77 420 OFFCURVE",
"68 409 OFFCURVE",
"68 386 CURVE SMOOTH",
"68 69 LINE SMOOTH",
"68 46 OFFCURVE",
"72 40 OFFCURVE",
"94 40 CURVE SMOOTH",
"182 40 LINE SMOOTH",
"205 40 OFFCURVE",
"221 47 OFFCURVE",
"221 83 CURVE SMOOTH",
"221 178 LINE",
"264 178 LINE",
"264 84 LINE SMOOTH",
"264 47 OFFCURVE",
"280 40 OFFCURVE",
"304 40 CURVE SMOOTH",
"390 40 LINE SMOOTH",
"411 40 OFFCURVE",
"417 49 OFFCURVE",
"417 69 CURVE SMOOTH",
"417 545 LINE SMOOTH",
"417 575 OFFCURVE",
"404 586 OFFCURVE",
"374 586 CURVE SMOOTH",
"22 586 LINE",
"22 626 LINE",
"389 626 LINE SMOOTH",
"432 626 OFFCURVE",
"462 609 OFFCURVE",
"462 560 CURVE SMOOTH",
"462 50 LINE SMOOTH",
"462 20 OFFCURVE",
"449 0 OFFCURVE",
"415 0 CURVE SMOOTH",
"291 0 LINE SMOOTH",
"265 0 OFFCURVE",
"247 9 OFFCURVE",
"242 29 CURVE",
"238 10 OFFCURVE",
"219 0 OFFCURVE",
"195 0 CURVE SMOOTH",
"69 0 LINE SMOOTH",
"38 0 OFFCURVE",
"22 15 OFFCURVE",
"22 48 CURVE SMOOTH",
"22 394 LINE SMOOTH",
"22 433 OFFCURVE",
"40 459 OFFCURVE",
"81 459 CURVE SMOOTH",
"159 459 LINE SMOOTH",
"185 459 OFFCURVE",
"200 450 OFFCURVE",
"200 424 CURVE SMOOTH",
"200 306 LINE SMOOTH",
"200 295 OFFCURVE",
"204 290 OFFCURVE",
"214 290 CURVE SMOOTH",
"268 290 LINE SMOOTH",
"278 290 OFFCURVE",
"282 295 OFFCURVE",
"282 306 CURVE SMOOTH",
"282 459 LINE",
"322 459 LINE",
"322 286 LINE SMOOTH",
"322 263 OFFCURVE",
"309 251 OFFCURVE",
"283 251 CURVE SMOOTH"
);
}
);
width = 515;
}
);
unicode = 0D94;
},
{
glyphname = sinOo;
lastChange = "2021-06-12 12:56:09 +0000";
layers = (
{
layerId = "522BF62C-3FFD-47FE-9DEE-94F66EB24849";
paths = (
{
closed = 1;
nodes = (
"361 400 LINE",
"361 441 LINE SMOOTH",
"361 459.349 OFFCURVE",
"354.061 464 OFFCURVE",
"335 464 CURVE SMOOTH",
"14 464 LINE",
"14 550 LINE",
"94 550 LINE",
"64.667 557.333 OFFCURVE",
"50 571.667 OFFCURVE",
"50 593 CURVE SMOOTH",
"50 632 LINE SMOOTH",
"50 659.333 OFFCURVE",
"66.333 673 OFFCURVE",
"99 673 CURVE SMOOTH",
"483 673 LINE",
"483 589 LINE",
"206 589 LINE SMOOTH",
"188 589 OFFCURVE",
"179 584.333 OFFCURVE",
"179 575 CURVE SMOOTH",
"179 565.226 OFFCURVE",
"186.926 558 OFFCURVE",
"197 558 CURVE SMOOTH",
"416 558 LINE SMOOTH",
"471.441 558 OFFCURVE",
"485 533.686 OFFCURVE",
"485 477 CURVE SMOOTH",
"485 400 LINE"
);
},
{
closed = 1;
nodes = (
"485.001 416 LINE",
"484.998 50.801 LINE SMOOTH",
"484.998 17.16 OFFCURVE",
"471.396 0 OFFCURVE",
"438 0 CURVE SMOOTH",
"301.803 0 LINE SMOOTH",
"275.803 0 OFFCURVE",
"259.469 12.333 OFFCURVE",
"252.803 37 CURVE",
"249.629 16.378 OFFCURVE",
"229.072 0 OFFCURVE",
"205.803 0 CURVE SMOOTH",
"69 0 LINE SMOOTH",
"37.61 0 OFFCURVE",
"22 15.018 OFFCURVE",
"22 48 CURVE SMOOTH",
"22 361 LINE SMOOTH",
"22 399.555 OFFCURVE",
"40.021 426 OFFCURVE",
"81 426 CURVE SMOOTH",
"195 426 LINE SMOOTH",
"220.992 426 OFFCURVE",
"236.001 416.979 OFFCURVE",
"236.001 391 CURVE SMOOTH",
"236.001 326 LINE SMOOTH",
"236.001 318 OFFCURVE",
"237.224 314 OFFCURVE",
"245.202 314 CURVE SMOOTH",
"253.8 314 LINE SMOOTH",
"260.984 314 OFFCURVE",
"263.001 317.667 OFFCURVE",
"263.001 325 CURVE SMOOTH",
"263.001 426 LINE",
"331.997 426 LINE",
"331.997 262 LINE SMOOTH",
"331.997 238.667 OFFCURVE",
"318.997 227 OFFCURVE",
"292.997 227 CURVE SMOOTH",
"209.404 227 LINE SMOOTH",
"187.843 227 OFFCURVE",
"174.405 235.307 OFFCURVE",
"174.405 257 CURVE SMOOTH",
"174.405 314 LINE SMOOTH",
"174.405 319.033 OFFCURVE",
"171.706 323.001 OFFCURVE",
"165.404 323.001 CURVE SMOOTH",
"156 323.001 LINE SMOOTH",
"149.043 323.001 OFFCURVE",
"146.004 319.293 OFFCURVE",
"146.004 313.2 CURVE SMOOTH",
"146.004 126 LINE SMOOTH",
"146.004 113.333 OFFCURVE",
"152.337 107 OFFCURVE",
"165.004 107 CURVE SMOOTH",
"181.803 107 LINE SMOOTH",
"196.469 107 OFFCURVE",
"203.803 115.333 OFFCURVE",
"203.803 132 CURVE SMOOTH",
"203.803 181.403 LINE",
"303.398 181.403 LINE",
"303.398 134 LINE SMOOTH",
"303.398 116 OFFCURVE",
"311.064 107 OFFCURVE",
"326.398 107 CURVE SMOOTH",
"343.997 107 LINE SMOOTH",
"355.33 107 OFFCURVE",
"360.997 114 OFFCURVE",
"360.997 128 CURVE SMOOTH",
"360.997 416 LINE"
);
}
);
width = 515;
},
{
layerId = "DC4431BF-9234-4C16-9154-22D387E42D10";
paths = (
{
closed = 1;
nodes = (
"417 400 LINE",
"417 480 LINE SMOOTH",
"417 508 OFFCURVE",
"401 513 OFFCURVE",
"382 513 CURVE SMOOTH",
"14 513 LINE",
"14 550 LINE",
"83 550 LINE",
"54 557 OFFCURVE",
"50 582 OFFCURVE",
"50 603 CURVE SMOOTH",
"50 632 LINE SMOOTH",
"50 659 OFFCURVE",
"66 673 OFFCURVE",
"99 673 CURVE SMOOTH",
"461 673 LINE",
"461 636 LINE",
"113 636 LINE SMOOTH",
"98 636 OFFCURVE",
"96 629 OFFCURVE",
"96 612 CURVE SMOOTH",
"96 573 OFFCURVE",
"106 551 OFFCURVE",
"171 551 CURVE SMOOTH",
"394 551 LINE SMOOTH",
"449 551 OFFCURVE",
"463 526 OFFCURVE",
"463 470 CURVE SMOOTH",
"463 400 LINE"
);
},
{
closed = 1;
nodes = (
"462 415 LINE",
"462 50 LINE SMOOTH",
"462 19 OFFCURVE",
"449 0 OFFCURVE",
"415 0 CURVE SMOOTH",
"291 0 LINE SMOOTH",
"265 0 OFFCURVE",
"247 9 OFFCURVE",
"242 29 CURVE",
"238 10 OFFCURVE",
"219 0 OFFCURVE",
"195 0 CURVE SMOOTH",
"69 0 LINE SMOOTH",
"38 0 OFFCURVE",
"22 15 OFFCURVE",
"22 48 CURVE SMOOTH",
"22 362 LINE SMOOTH",
"22 400 OFFCURVE",
"40 427 OFFCURVE",
"81 427 CURVE SMOOTH",
"159 427 LINE SMOOTH",
"185 427 OFFCURVE",
"200 418 OFFCURVE",
"200 392 CURVE SMOOTH",
"200 274 LINE SMOOTH",
"200 263 OFFCURVE",
"204 258 OFFCURVE",
"214 258 CURVE SMOOTH",
"268 258 LINE SMOOTH",
"278 258 OFFCURVE",
"282 263 OFFCURVE",
"282 274 CURVE SMOOTH",
"282 427 LINE",
"322 427 LINE",
"322 255 LINE SMOOTH",
"322 232 OFFCURVE",
"309 220 OFFCURVE",
"283 220 CURVE SMOOTH",
"195 220 LINE SMOOTH",
"174 220 OFFCURVE",
"160 229 OFFCURVE",
"160 250 CURVE SMOOTH",
"160 375 LINE SMOOTH",
"160 382 OFFCURVE",
"158 387 OFFCURVE",
"149 387 CURVE SMOOTH",
"93 387 LINE SMOOTH",
"75 387 OFFCURVE",
"68 376 OFFCURVE",
"68 356 CURVE SMOOTH",
"68 69 LINE SMOOTH",
"68 46 OFFCURVE",
"72 40 OFFCURVE",
"94 40 CURVE SMOOTH",
"182 40 LINE SMOOTH",
"205 40 OFFCURVE",
"221 47 OFFCURVE",
"221 83 CURVE SMOOTH",
"221 153 LINE",
"264 153 LINE",
"264 84 LINE SMOOTH",
"264 47 OFFCURVE",
"280 40 OFFCURVE",
"304 40 CURVE SMOOTH",
"390 40 LINE SMOOTH",
"411 40 OFFCURVE",
"417 50 OFFCURVE",
"417 69 CURVE SMOOTH",
"417 415 LINE"
);
}
);
width = 515;
}
);
unicode = 0D95;
},
{
glyphname = sinKa;
lastChange = "2021-06-12 12:56:09 +0000";
layers = (
{
layerId = "522BF62C-3FFD-47FE-9DEE-94F66EB24849";
paths = (
{
closed = 1;
nodes = (
"275.4 255.465 OFFCURVE",
"270.4 261.8 OFFCURVE",
"260.4 261.8 CURVE SMOOTH",
"145 261.8 LINE",
"115.399 235.8 LINE",
"143.793 235.8 LINE",
"143.996 221.8 LINE",
"138.511 218.023 OFFCURVE",
"131.996 204.754 OFFCURVE",
"131.996 180.603 CURVE SMOOTH",
"131.996 126.8 LINE SMOOTH",
"131.996 109.466 OFFCURVE",
"134.656 106.8 OFFCURVE",
"145.996 106.8 CURVE SMOOTH",
"154.397 106.8 LINE SMOOTH",
"167.482 106.8 OFFCURVE",
"169.397 112.467 OFFCURVE",
"169.397 123.801 CURVE SMOOTH",
"169.397 187.8 LINE",
"237.397 187.8 LINE",
"237.397 125.8 LINE SMOOTH",
"237.397 111.133 OFFCURVE",
"240.106 106.8 OFFCURVE",
"251.397 106.8 CURVE SMOOTH",
"262.4 106.8 LINE SMOOTH",
"272.605 106.8 OFFCURVE",
"275.4 111.603 OFFCURVE",
"275.4 129.602 CURVE SMOOTH",
"275.4 242.8 LINE SMOOTH"
);
},
{
closed = 1;
nodes = (
"240.008 475.8 LINE SMOOTH",
"262.183 494.689 OFFCURVE",
"279.213 496.8 OFFCURVE",
"303.408 496.8 CURVE SMOOTH",
"503 497 LINE SMOOTH",
"539.827 497 OFFCURVE",
"561.608 475.843 OFFCURVE",
"561.608 444 CURVE SMOOTH",
"561.608 49 LINE SMOOTH",
"561.608 13.204 OFFCURVE",
"537.075 0 OFFCURVE",
"507.6 0 CURVE SMOOTH",
"401.6 0 LINE",
"401.6 107 LINE",
"423 107 LINE SMOOTH",
"432.333 107 OFFCURVE",
"437 112.667 OFFCURVE",
"437 124 CURVE SMOOTH",
"437 376.001 LINE SMOOTH",
"437 388.001 OFFCURVE",
"429.933 394.001 OFFCURVE",
"416.6 394.001 CURVE SMOOTH",
"313.408 393.8 LINE SMOOTH",
"298.741 393.8 OFFCURVE",
"293.372 391.342 OFFCURVE",
"281.208 380.8 CURVE SMOOTH",
"251.407 354.8 LINE",
"331.4 354.8 LINE SMOOTH",
"363.213 354.8 OFFCURVE",
"384.4 337.495 OFFCURVE",
"384.4 297.8 CURVE SMOOTH",
"384.4 50.8 LINE SMOOTH",
"384.4 14.754 OFFCURVE",
"361.045 -0.2 OFFCURVE",
"331.4 -0.2 CURVE SMOOTH",
"241.397 -0.2 LINE SMOOTH",
"222.438 -0.2 OFFCURVE",
"209.064 9.467 OFFCURVE",
"204.397 28.801 CURVE",
"199.73 9.467 OFFCURVE",
"183.09 -0.2 OFFCURVE",
"165.397 -0.2 CURVE SMOOTH",
"65.996 -0.2 LINE SMOOTH",
"34.133 -0.2 OFFCURVE",
"22 19.616 OFFCURVE",
"22 49.801 CURVE SMOOTH",
"22 140 LINE SMOOTH",
"22 180.795 OFFCURVE",
"34.273 195.065 OFFCURVE",
"48 202.801 CURVE",
"11.997 202.801 LINE",
"11.997 276.196 LINE",
"130.608 380.2 LINE",
"130.608 381.798 LINE SMOOTH",
"130.608 391.027 OFFCURVE",
"119.919 393.771 OFFCURVE",
"107.012 393.801 CURVE SMOOTH",
"22 394 LINE",
"22 497 LINE",
"185.409 496.8 LINE SMOOTH",
"217.092 496.762 OFFCURVE",
"221.005 469.59 OFFCURVE",
"221.005 461.397 CURVE SMOOTH",
"221.005 459.197 LINE"
);
}
);
width = 592;
},
{
layerId = "DC4431BF-9234-4C16-9154-22D387E42D10";
paths = (
{
closed = 1;
nodes = (
"325 320 OFFCURVE",
"316 326 OFFCURVE",
"301 326 CURVE SMOOTH",
"161 326 LINE",
"76 254 LINE",
"103 254 LINE",
"103 228 LINE",
"71 210 OFFCURVE",
"66 194 OFFCURVE",
"66 149 CURVE SMOOTH",
"66 63 LINE SMOOTH",
"66 46 OFFCURVE",
"72 39 OFFCURVE",
"86 39 CURVE SMOOTH",
"136 39 LINE SMOOTH",
"173 39 OFFCURVE",
"176 67 OFFCURVE",
"176 97 CURVE SMOOTH",
"176 188 LINE",
"216 188 LINE",
"216 97 LINE SMOOTH",
"216 67 OFFCURVE",
"217 39 OFFCURVE",
"252 39 CURVE SMOOTH",
"301 39 LINE SMOOTH",
"321 39 OFFCURVE",
"325 53 OFFCURVE",
"325 71 CURVE SMOOTH",
"325 301 LINE SMOOTH"
);
},
{
closed = 1;
nodes = (
"271 472 LINE SMOOTH",
"294 492 OFFCURVE",
"317 497 OFFCURVE",
"336 497 CURVE SMOOTH",
"484 497 LINE SMOOTH",
"519 497 OFFCURVE",
"540 474 OFFCURVE",
"540 441 CURVE SMOOTH",
"540 54 LINE SMOOTH",
"540 19 OFFCURVE",
"517 0 OFFCURVE",
"488 0 CURVE SMOOTH",
"387 0 LINE",
"387 39 LINE",
"470 39 LINE SMOOTH",
"486 39 OFFCURVE",
"495 51 OFFCURVE",
"495 69 CURVE SMOOTH",
"495 426 LINE SMOOTH",
"495 446 OFFCURVE",
"485 458 OFFCURVE",
"463 458 CURVE SMOOTH",
"352 458 LINE SMOOTH",
"326 458 OFFCURVE",
"310 451 OFFCURVE",
"291 435 CURVE SMOOTH",
"206 364 LINE",
"322 364 LINE SMOOTH",
"348 364 OFFCURVE",
"370 349 OFFCURVE",
"370 314 CURVE SMOOTH",
"370 53 LINE SMOOTH",
"370 19 OFFCURVE",
"346 0 OFFCURVE",
"318 0 CURVE SMOOTH",
"232 0 LINE SMOOTH",
"213 0 OFFCURVE",
"200 10 OFFCURVE",
"195 29 CURVE",
"190 10 OFFCURVE",
"174 0 OFFCURVE",
"156 0 CURVE SMOOTH",
"67 0 LINE SMOOTH",
"38 0 OFFCURVE",
"22 20 OFFCURVE",
"22 46 CURVE SMOOTH",
"22 154 LINE SMOOTH",
"22 197 OFFCURVE",
"30 214 OFFCURVE",
"45 223 CURVE",
"12 223 LINE",
"12 255 LINE",
"154 375 LINE",
"154 425 LINE SMOOTH",
"154 448 OFFCURVE",
"148 458 OFFCURVE",
"126 458 CURVE SMOOTH",
"36 458 LINE",
"36 497 LINE",
"151 497 LINE SMOOTH",
"180 497 OFFCURVE",
"196 477 OFFCURVE",
"196 443 CURVE SMOOTH",
"196 410 LINE"
);
}
);
width = 592;
}
);
unicode = 0D9A;
},
{
glyphname = sinKha;
lastChange = "2021-06-12 12:56:09 +0000";
layers = (
{
layerId = "522BF62C-3FFD-47FE-9DEE-94F66EB24849";
paths = (
{
closed = 1;
nodes = (
"22 441.993 OFFCURVE",
"40.651 470.002 OFFCURVE",
"81 470.002 CURVE SMOOTH",
"256 470.002 LINE SMOOTH",
"288.526 470.002 OFFCURVE",
"312 452.695 OFFCURVE",
"312 415.027 CURVE SMOOTH",
"312 266 LINE",
"304.802 191 LINE",
"314 170 OFFCURVE",
"326 143 OFFCURVE",
"343 122 CURVE",
"353 122 LINE",
"361.328 122.203 OFFCURVE",
"362 128 OFFCURVE",
"362 132 CURVE",
"360.994 184 LINE",
"360.994 479.394 LINE SMOOTH",
"360.994 500.061 OFFCURVE",
"346.661 509.993 OFFCURVE",
"317.994 509.993 CURVE SMOOTH",
"21.998 509.993 LINE",
"21.998 626 LINE",
"414.995 626 LINE SMOOTH",
"454.281 626 OFFCURVE",
"484.995 606.242 OFFCURVE",
"484.995 566 CURVE SMOOTH",
"484.995 51 LINE SMOOTH",
"484.995 26.073 OFFCURVE",
"473.261 0 OFFCURVE",
"439 0 CURVE SMOOTH",
"369 0 LINE SMOOTH",
"341.643 0 OFFCURVE",
"319.213 17.024 OFFCURVE",
"306.188 41 CURVE SMOOTH",
"285 80 LINE",
"270 -5 LINE",
"178.4 -5 LINE",
"199 291 LINE",
"199.001 338.8 LINE SMOOTH",
"199.001 354.23 OFFCURVE",
"195 359.002 OFFCURVE",
"181 359.002 CURVE SMOOTH",
"166.01 359.002 LINE SMOOTH",
"148.01 359.002 OFFCURVE",
"146.01 351.669 OFFCURVE",
"146.01 337.002 CURVE SMOOTH",
"146 122.8 LINE SMOOTH",
"146 115 OFFCURVE",
"147.666 107 OFFCURVE",
"157 107 CURVE SMOOTH",
"164.804 107 LINE",
"157.997 0 LINE",
"65 0 LINE SMOOTH",
"38.305 0 OFFCURVE",
"22 16.765 OFFCURVE",
"22 48 CURVE SMOOTH",
"22 406.027 LINE SMOOTH"
);
}
);
width = 516;
},
{
layerId = "DC4431BF-9234-4C16-9154-22D387E42D10";
paths = (
{
closed = 1;
nodes = (
"40 466 OFFCURVE",
"59 494 OFFCURVE",
"99 494 CURVE SMOOTH",
"252 494 LINE SMOOTH",
"284 494 OFFCURVE",
"308 477 OFFCURVE",
"308 439 CURVE SMOOTH",
"308 217 LINE",
"273 120 LINE",
"281 104 OFFCURVE",
"313 43 OFFCURVE",
"352 41 CURVE",
"413 41 LINE",
"431 41 OFFCURVE",
"435 57 OFFCURVE",
"435 70 CURVE",
"435 107 LINE",
"435 549 LINE SMOOTH",
"435 576 OFFCURVE",
"421 586 OFFCURVE",
"390 586 CURVE SMOOTH",
"40 586 LINE",
"40 626 LINE",
"410 626 LINE SMOOTH",
"450 626 OFFCURVE",
"480 606 OFFCURVE",
"480 566 CURVE SMOOTH",
"480 51 LINE SMOOTH",
"480 26 OFFCURVE",
"469 0 OFFCURVE",
"435 0 CURVE SMOOTH",
"339 0 LINE SMOOTH",
"322 0 OFFCURVE",
"304 13 OFFCURVE",
"289 28 CURVE SMOOTH",
"258 69 LINE",
"232 -5 LINE",
"189 -5 LINE",
"263 224 LINE",
"263 424 LINE SMOOTH",
"263 440 OFFCURVE",
"256 454 OFFCURVE",
"237 454 CURVE SMOOTH",
"114 454 LINE SMOOTH",
"94 454 OFFCURVE",
"86 441 OFFCURVE",
"86 421 CURVE SMOOTH",
"86 64 LINE SMOOTH",
"86 47 OFFCURVE",
"91 40 OFFCURVE",
"107 40 CURVE SMOOTH",
"154 40 LINE",
"153 0 LINE",
"83 0 LINE SMOOTH",
"56 0 OFFCURVE",
"40 17 OFFCURVE",
"40 48 CURVE SMOOTH",
"40 430 LINE SMOOTH"
);
}
);
width = 535;
}
);
unicode = 0D9B;
},
{
glyphname = sinGa;
lastChange = "2021-06-12 12:56:09 +0000";
layers = (
{
layerId = "522BF62C-3FFD-47FE-9DEE-94F66EB24849";
paths = (
{
closed = 1;
nodes = (
"196.781 394 LINE",
"169 393.998 LINE SMOOTH",
"148.817 393.997 OFFCURVE",
"146 389.129 OFFCURVE",
"146 368.998 CURVE SMOOTH",
"146 128 LINE SMOOTH",
"146 114 OFFCURVE",
"151.667 107 OFFCURVE",
"163 107 CURVE SMOOTH",
"214.186 107 LINE SMOOTH",
"233.895 107 OFFCURVE",
"234.186 111.54 OFFCURVE",
"234.186 132 CURVE SMOOTH",
"234.186 196 LINE SMOOTH",
"234.186 209.333 OFFCURVE",
"229.186 216 OFFCURVE",
"219.186 216 CURVE SMOOTH",
"205.186 216 LINE",
"243.186 446 LINE SMOOTH",
"249.186 480 OFFCURVE",
"273.186 497 OFFCURVE",
"315.186 497 CURVE SMOOTH",
"495 497 LINE SMOOTH",
"541.224 497 OFFCURVE",
"562 479.952 OFFCURVE",
"562 434 CURVE SMOOTH",
"562 64 LINE SMOOTH",
"562 15.29 OFFCURVE",
"548.134 0 OFFCURVE",
"499 0 CURVE SMOOTH",
"402 0 LINE",
"402 107 LINE",
"416 107 LINE SMOOTH",
"436.64 107 OFFCURVE",
"438 112.033 OFFCURVE",
"438 133 CURVE SMOOTH",
"438 372 LINE SMOOTH",
"438 384 OFFCURVE",
"432 390 OFFCURVE",
"420 390 CURVE SMOOTH",
"369.186 390 LINE SMOOTH",
"355.853 390 OFFCURVE",
"347.853 384.333 OFFCURVE",
"345.186 373 CURVE SMOOTH",
"330.186 288 LINE",
"332.936 287.928 LINE SMOOTH",
"347.769 287.538 OFFCURVE",
"355.186 276.896 OFFCURVE",
"355.186 256 CURVE SMOOTH",
"355.186 60 LINE SMOOTH",
"355.186 12.607 OFFCURVE",
"335.785 0 OFFCURVE",
"288.186 0 CURVE SMOOTH",
"74 0 LINE SMOOTH",
"37.361 0 OFFCURVE",
"22 24.052 OFFCURVE",
"22 61 CURVE SMOOTH",
"22 436 LINE SMOOTH",
"22 473.333 OFFCURVE",
"44.333 497 OFFCURVE",
"81 497 CURVE SMOOTH",
"196.781 496.999 LINE"
);
}
);
width = 592;
},
{
layerId = "DC4431BF-9234-4C16-9154-22D387E42D10";
paths = (
{
closed = 1;
nodes = (
"187 458 LINE",
"97 458 LINE SMOOTH",
"74 458 OFFCURVE",
"68 452 OFFCURVE",
"68 429 CURVE SMOOTH",
"68 67 LINE SMOOTH",
"68 48 OFFCURVE",
"72 40 OFFCURVE",
"90 40 CURVE SMOOTH",
"244 40 LINE SMOOTH",
"270 40 OFFCURVE",
"279 45 OFFCURVE",
"279 71 CURVE SMOOTH",
"279 228 LINE SMOOTH",
"279 242 OFFCURVE",
"274 249 OFFCURVE",
"260 249 CURVE SMOOTH",
"217 249 LINE",
"252 446 LINE SMOOTH",
"258 480 OFFCURVE",
"282 497 OFFCURVE",
"324 497 CURVE SMOOTH",
"473 497 LINE SMOOTH",
"520 497 OFFCURVE",
"540 480 OFFCURVE",
"540 434 CURVE SMOOTH",
"540 63 LINE SMOOTH",
"540 13 OFFCURVE",
"518 0 OFFCURVE",
"477 0 CURVE SMOOTH",
"388 0 LINE",
"388 40 LINE",
"461 40 LINE SMOOTH",
"488 40 OFFCURVE",
"495 47 OFFCURVE",
"495 78 CURVE SMOOTH",
"495 421 LINE SMOOTH",
"495 448 OFFCURVE",
"486 458 OFFCURVE",
"458 458 CURVE SMOOTH",
"333 458 LINE SMOOTH",
"306 458 OFFCURVE",
"296 447 OFFCURVE",
"293 429 CURVE SMOOTH",
"267 285 LINE",
"289 285 LINE SMOOTH",
"312 285 OFFCURVE",
"324 271 OFFCURVE",
"324 243 CURVE SMOOTH",
"324 60 LINE SMOOTH",
"324 13 OFFCURVE",
"305 0 OFFCURVE",
"257 0 CURVE SMOOTH",
"70 0 LINE SMOOTH",
"34 0 OFFCURVE",
"22 20 OFFCURVE",
"22 57 CURVE SMOOTH",
"22 441 LINE SMOOTH",
"22 478 OFFCURVE",
"41 497 OFFCURVE",
"77 497 CURVE SMOOTH",
"187 497 LINE"
);
}
);
width = 590;
}
);
unicode = 0D9C;
},
{
glyphname = sinGha;
lastChange = "2021-06-12 12:56:09 +0000";
layers = (
{
layerId = "522BF62C-3FFD-47FE-9DEE-94F66EB24849";
paths = (
{
closed = 1;
nodes = (
"302.2 0 OFFCURVE",
"278.95 20.843 OFFCURVE",
"278.95 47 CURVE SMOOTH",
"278.95 131.199 LINE SMOOTH",
"278.95 139.492 OFFCURVE",
"286.789 143.436 OFFCURVE",
"294.083 148 CURVE SMOOTH",
"300.326 151.906 OFFCURVE",
"306.17 156.269 OFFCURVE",
"306.357 164.201 CURVE SMOOTH",
"306.351 172 LINE SMOOTH",
"306.345 180.38 OFFCURVE",
"301.938 181.996 OFFCURVE",
"294.755 181.996 CURVE SMOOTH",
"277.95 181.996 LINE",
"261.195 181.996 LINE SMOOTH",
"255.41 181.996 OFFCURVE",
"249.606 180.38 OFFCURVE",
"249.6 172 CURVE SMOOTH",
"249.593 164.201 LINE SMOOTH",
"249.781 156.268 OFFCURVE",
"255.624 151.907 OFFCURVE",
"261.867 148 CURVE SMOOTH",
"269.161 143.436 OFFCURVE",
"277 139.492 OFFCURVE",
"277 131.199 CURVE SMOOTH",
"277 47 LINE SMOOTH",
"277 20.843 OFFCURVE",
"253.414 0 OFFCURVE",
"225 0 CURVE SMOOTH",
"72 0 LINE SMOOTH",
"34.928 0 OFFCURVE",
"22 16.273 OFFCURVE",
"22 54 CURVE SMOOTH",
"22 218 LINE SMOOTH",
"22 239.333 OFFCURVE",
"29.667 253.667 OFFCURVE",
"45 261 CURVE",
"61.22 283.302 OFFCURVE",
"40.858 356 OFFCURVE",
"78 356 CURVE SMOOTH",
"168.05 356 LINE",
"168 379 LINE",
"168 389 OFFCURVE",
"161.333 394 OFFCURVE",
"148 394 CURVE SMOOTH",
"23 394 LINE",
"23 497 LINE",
"192 497 LINE SMOOTH",
"230.669 497 OFFCURVE",
"264 480.766 OFFCURVE",
"264 443 CURVE SMOOTH",
"264 253 LINE",
"169 253 LINE SMOOTH",
"153.667 253 OFFCURVE",
"146 247.333 OFFCURVE",
"146 236 CURVE SMOOTH",
"146 130 LINE SMOOTH",
"146 114.667 OFFCURVE",
"152 107 OFFCURVE",
"164 107 CURVE SMOOTH",
"196.801 107 LINE SMOOTH",
"205.057 107 OFFCURVE",
"214.751 108.853 OFFCURVE",
"214.778 118.203 CURVE SMOOTH",
"214.801 121.729 LINE SMOOTH",
"214.801 130.158 OFFCURVE",
"207.909 133.604 OFFCURVE",
"200.349 137 CURVE SMOOTH",
"191.166 141.126 OFFCURVE",
"180.997 145.178 OFFCURVE",
"180.997 158 CURVE SMOOTH",
"180.997 198.996 LINE SMOOTH",
"180.997 214.996 OFFCURVE",
"190.41 222.996 OFFCURVE",
"207.005 222.996 CURVE SMOOTH",
"277.95 222.996 LINE",
"348.945 222.996 LINE SMOOTH",
"364.672 222.996 OFFCURVE",
"374.953 214.996 OFFCURVE",
"374.953 198.996 CURVE SMOOTH",
"374.953 158 LINE SMOOTH",
"374.953 145.179 OFFCURVE",
"364.784 141.126 OFFCURVE",
"355.602 137 CURVE SMOOTH",
"348.041 133.604 OFFCURVE",
"341.149 130.158 OFFCURVE",
"341.149 121.729 CURVE SMOOTH",
"341.172 118.203 LINE SMOOTH",
"341.199 108.853 OFFCURVE",
"351.2 107 OFFCURVE",
"359.149 107 CURVE SMOOTH",
"392 107 LINE SMOOTH",
"404 107 OFFCURVE",
"410 114.667 OFFCURVE",
"410 130 CURVE SMOOTH",
"410 236 LINE SMOOTH",
"410 247.333 OFFCURVE",
"402.333 253 OFFCURVE",
"387 253 CURVE SMOOTH",
"292 253 LINE",
"291.999 443 LINE SMOOTH",
"291.999 480.775 OFFCURVE",
"325.296 497 OFFCURVE",
"364 497 CURVE SMOOTH",
"533 497 LINE",
"533 394 LINE",
"409 394 LINE SMOOTH",
"395 394 OFFCURVE",
"388 389 OFFCURVE",
"388 379 CURVE SMOOTH",
"388 356 LINE",
"470 356 LINE SMOOTH",
"513.529 356 OFFCURVE",
"534 339.26 OFFCURVE",
"534 296 CURVE SMOOTH",
"534 54 LINE SMOOTH",
"534 16.27 OFFCURVE",
"521 0 OFFCURVE",
"484 0 CURVE SMOOTH",
"330.95 0 LINE SMOOTH"
);
},
{
closed = 1;
nodes = (
"88 355.996 LINE",
"88 258.996 LINE",
"-6 258.996 LINE",
"-6 355.996 LINE"
);
}
);
width = 564;
},
{
layerId = "DC4431BF-9234-4C16-9154-22D387E42D10";
paths = (
{
closed = 1;
nodes = (
"305 0 OFFCURVE",
"276 15 OFFCURVE",
"276 48 CURVE SMOOTH",
"276 100 LINE SMOOTH",
"276 115 OFFCURVE",
"288 126 OFFCURVE",
"300 135 CURVE SMOOTH",
"321 152 OFFCURVE",
"322 153 OFFCURVE",
"322 169 CURVE SMOOTH",
"322 187 LINE SMOOTH",
"322 195 OFFCURVE",
"317 196 OFFCURVE",
"310 196 CURVE SMOOTH",
"266 196 LINE",
"222 196 LINE SMOOTH",
"215 196 OFFCURVE",
"210 195 OFFCURVE",
"210 187 CURVE SMOOTH",
"210 169 LINE SMOOTH",
"210 153 OFFCURVE",
"212 152 OFFCURVE",
"232 135 CURVE SMOOTH",
"244 126 OFFCURVE",
"256 115 OFFCURVE",
"256 100 CURVE SMOOTH",
"256 48 LINE SMOOTH",
"256 15 OFFCURVE",
"227 0 OFFCURVE",
"205 0 CURVE SMOOTH",
"72 0 LINE SMOOTH",
"35 0 OFFCURVE",
"22 16 OFFCURVE",
"22 54 CURVE SMOOTH",
"22 261 LINE SMOOTH",
"22 282 OFFCURVE",
"30 304 OFFCURVE",
"50 316 CURVE",
"60 330 OFFCURVE",
"60 353 OFFCURVE",
"78 353 CURVE SMOOTH",
"203 353 LINE",
"203 429 LINE",
"203 451 OFFCURVE",
"191 458 OFFCURVE",
"169 458 CURVE SMOOTH",
"23 458 LINE",
"23 497 LINE",
"182 497 LINE SMOOTH",
"224 497 OFFCURVE",
"245 478 OFFCURVE",
"245 440 CURVE SMOOTH",
"245 314 LINE",
"131 314 LINE SMOOTH",
"80 314 OFFCURVE",
"68 284 OFFCURVE",
"68 250 CURVE SMOOTH",
"68 63 LINE SMOOTH",
"68 47 OFFCURVE",
"75 40 OFFCURVE",
"87 40 CURVE SMOOTH",
"188 40 LINE SMOOTH",
"213 40 OFFCURVE",
"216 50 OFFCURVE",
"216 71 CURVE SMOOTH",
"216 91 LINE SMOOTH",
"216 104 OFFCURVE",
"211 108 OFFCURVE",
"198 119 CURVE SMOOTH",
"177 137 OFFCURVE",
"170 140 OFFCURVE",
"170 157 CURVE SMOOTH",
"170 202 LINE SMOOTH",
"170 218 OFFCURVE",
"180 229 OFFCURVE",
"196 229 CURVE SMOOTH",
"266 229 LINE",
"336 229 LINE SMOOTH",
"352 229 OFFCURVE",
"362 218 OFFCURVE",
"362 202 CURVE SMOOTH",
"362 157 LINE SMOOTH",
"362 140 OFFCURVE",
"355 137 OFFCURVE",
"334 119 CURVE SMOOTH",
"321 108 OFFCURVE",
"316 104 OFFCURVE",
"316 91 CURVE SMOOTH",
"316 71 LINE SMOOTH",
"316 50 OFFCURVE",
"320 40 OFFCURVE",
"344 40 CURVE SMOOTH",
"447 40 LINE SMOOTH",
"460 40 OFFCURVE",
"467 47 OFFCURVE",
"467 63 CURVE SMOOTH",
"467 294 LINE SMOOTH",
"467 307 OFFCURVE",
"457 314 OFFCURVE",
"444 314 CURVE SMOOTH",
"290 314 LINE",
"290 440 LINE SMOOTH",
"290 478 OFFCURVE",
"312 497 OFFCURVE",
"353 497 CURVE SMOOTH",
"511 497 LINE",
"511 458 LINE",
"367 458 LINE SMOOTH",
"345 458 OFFCURVE",
"332 451 OFFCURVE",
"332 429 CURVE SMOOTH",
"332 353 LINE",
"456 353 LINE SMOOTH",
"494 353 OFFCURVE",
"512 335 OFFCURVE",
"512 298 CURVE SMOOTH",
"512 54 LINE SMOOTH",
"512 16 OFFCURVE",
"499 0 OFFCURVE",
"462 0 CURVE SMOOTH",
"328 0 LINE SMOOTH"
);
},
{
closed = 1;
nodes = (
"126 353 LINE",
"126 315 LINE",
"-6 315 LINE",
"-6 353 LINE"
);
}
);
width = 575;
}
);
unicode = 0D9D;
},
{
glyphname = sinNga;
lastChange = "2021-06-12 12:56:09 +0000";
layers = (
{
layerId = "522BF62C-3FFD-47FE-9DEE-94F66EB24849";
paths = (
{
closed = 1;
nodes = (
"2 452.455 OFFCURVE",
"22.453 470.788 OFFCURVE",
"58.608 470.791 CURVE SMOOTH",
"277 470.808 LINE SMOOTH",
"315.2 470.801 OFFCURVE",
"349 457.626 OFFCURVE",
"349 406.998 CURVE SMOOTH",
"349 206.602 LINE",
"231.197 206.602 LINE SMOOTH",
"215.864 206.602 OFFCURVE",
"208.197 200.935 OFFCURVE",
"208.197 189.602 CURVE SMOOTH",
"208.197 130 LINE SMOOTH",
"208.197 114.667 OFFCURVE",
"214.197 107 OFFCURVE",
"227.001 107 CURVE SMOOTH",
"244 107 LINE SMOOTH",
"258.197 107 OFFCURVE",
"266 115.333 OFFCURVE",
"266 132 CURVE SMOOTH",
"266 166 LINE",
"365.596 166 LINE",
"365.596 134 LINE SMOOTH",
"365.596 116 OFFCURVE",
"373.262 107 OFFCURVE",
"388.596 107 CURVE SMOOTH",
"406.194 107 LINE SMOOTH",
"417.527 107 OFFCURVE",
"423.194 114 OFFCURVE",
"423.194 128 CURVE SMOOTH",
"423.194 479 LINE SMOOTH",
"423.194 503.852 OFFCURVE",
"416.081 510 OFFCURVE",
"392.197 510 CURVE SMOOTH",
"84.198 510 LINE",
"84.198 626 LINE",
"474.197 626 LINE SMOOTH",
"516.506 626 OFFCURVE",
"547.195 609.264 OFFCURVE",
"547.195 560 CURVE SMOOTH",
"547.195 50 LINE SMOOTH",
"547.195 19.638 OFFCURVE",
"533.594 0 OFFCURVE",
"500.197 0 CURVE SMOOTH",
"364 0 LINE SMOOTH",
"338 0 OFFCURVE",
"321.666 12.333 OFFCURVE",
"315 37 CURVE",
"311.826 16.378 OFFCURVE",
"291.197 0 OFFCURVE",
"268 0 CURVE SMOOTH",
"132.195 0 LINE SMOOTH",
"95.197 0 OFFCURVE",
"84.197 16.273 OFFCURVE",
"84.197 54 CURVE SMOOTH",
"84.197 218.75 LINE SMOOTH",
"84.197 252.177 OFFCURVE",
"102.38 277.757 OFFCURVE",
"140.197 277.757 CURVE SMOOTH",
"244 277.757 LINE",
"244 391 LINE SMOOTH",
"244 402.258 OFFCURVE",
"237.529 408.191 OFFCURVE",
"223 408.191 CURVE SMOOTH",
"191.078 408.191 LINE SMOOTH",
"196.474 406.989 OFFCURVE",
"200 403.722 OFFCURVE",
"200 397 CURVE SMOOTH",
"200 344 LINE SMOOTH",
"200 324.761 OFFCURVE",
"187.471 315.804 OFFCURVE",
"172 315.804 CURVE SMOOTH",
"48 315.804 LINE SMOOTH",
"17 315.804 OFFCURVE",
"2 331.471 OFFCURVE",
"2 362.804 CURVE SMOOTH",
"2 421.788 LINE SMOOTH"
);
},
{
closed = 1;
nodes = (
"67 378 LINE SMOOTH",
"67 374 OFFCURVE",
"70 372 OFFCURVE",
"74 372 CURVE SMOOTH",
"128.192 372 LINE SMOOTH",
"131.192 372 OFFCURVE",
"134.192 375 OFFCURVE",
"134.192 378 CURVE SMOOTH",
"134.192 398.8 LINE SMOOTH",
"134.192 404.521 OFFCURVE",
"131.103 407.424 OFFCURVE",
"127.048 408.191 CURVE SMOOTH",
"73 408.191 LINE SMOOTH",
"70 408.191 OFFCURVE",
"67 405.591 OFFCURVE",
"67 402 CURVE SMOOTH"
);
}
);
width = 578;
},
{
layerId = "DC4431BF-9234-4C16-9154-22D387E42D10";
paths = (
{
closed = 1;
nodes = (
"20 452 OFFCURVE",
"38 471 OFFCURVE",
"74 471 CURVE SMOOTH",
"265 471 LINE SMOOTH",
"308 471 OFFCURVE",
"328 456 OFFCURVE",
"328 410 CURVE SMOOTH",
"328 233 LINE",
"177 233 LINE SMOOTH",
"136 233 OFFCURVE",
"130 220 OFFCURVE",
"130 184 CURVE SMOOTH",
"130 63 LINE SMOOTH",
"130 47 OFFCURVE",
"136 40 OFFCURVE",
"150 40 CURVE SMOOTH",
"244 40 LINE SMOOTH",
"267 40 OFFCURVE",
"283 47 OFFCURVE",
"283 83 CURVE SMOOTH",
"283 175 LINE",
"326 175 LINE",
"326 84 LINE SMOOTH",
"326 47 OFFCURVE",
"342 40 OFFCURVE",
"366 40 CURVE SMOOTH",
"452 40 LINE SMOOTH",
"473 40 OFFCURVE",
"479 49 OFFCURVE",
"479 69 CURVE SMOOTH",
"479 545 LINE SMOOTH",
"479 575 OFFCURVE",
"466 586 OFFCURVE",
"436 586 CURVE SMOOTH",
"84 586 LINE",
"84 626 LINE",
"452 626 LINE SMOOTH",
"494 626 OFFCURVE",
"525 609 OFFCURVE",
"525 560 CURVE SMOOTH",
"525 50 LINE SMOOTH",
"525 20 OFFCURVE",
"511 0 OFFCURVE",
"478 0 CURVE SMOOTH",
"353 0 LINE SMOOTH",
"327 0 OFFCURVE",
"310 9 OFFCURVE",
"304 29 CURVE",
"300 10 OFFCURVE",
"280 0 OFFCURVE",
"257 0 CURVE SMOOTH",
"132 0 LINE SMOOTH",
"95 0 OFFCURVE",
"84 16 OFFCURVE",
"84 54 CURVE SMOOTH",
"84 202 LINE SMOOTH",
"84 237 OFFCURVE",
"105 269 OFFCURVE",
"149 269 CURVE SMOOTH",
"285 269 LINE",
"285 402 LINE SMOOTH",
"285 421 OFFCURVE",
"281 435 OFFCURVE",
"255 435 CURVE SMOOTH",
"193 435 LINE SMOOTH",
"198 434 OFFCURVE",
"200 431 OFFCURVE",
"200 424 CURVE SMOOTH",
"200 344 LINE SMOOTH",
"200 325 OFFCURVE",
"187 316 OFFCURVE",
"172 316 CURVE SMOOTH",
"66 316 LINE SMOOTH",
"35 316 OFFCURVE",
"20 331 OFFCURVE",
"20 363 CURVE SMOOTH",
"20 422 LINE SMOOTH"
);
},
{
closed = 1;
nodes = (
"60 368 LINE SMOOTH",
"60 358 OFFCURVE",
"63 350 OFFCURVE",
"76 350 CURVE SMOOTH",
"145 350 LINE SMOOTH",
"158 350 OFFCURVE",
"160 355 OFFCURVE",
"160 365 CURVE SMOOTH",
"160 422 LINE SMOOTH",
"160 430 OFFCURVE",
"156 434 OFFCURVE",
"150 435 CURVE SMOOTH",
"83 435 LINE SMOOTH",
"71 435 OFFCURVE",
"60 432 OFFCURVE",
"60 418 CURVE SMOOTH"
);
}
);
width = 578;
}
);
unicode = 0D9E;
},
{
glyphname = sinNnga;
lastChange = "2021-06-12 12:56:09 +0000";
layers = (
{
layerId = "522BF62C-3FFD-47FE-9DEE-94F66EB24849";
paths = (
{
closed = 1;
nodes = (
"364.782 394 LINE",
"337.001 393.998 LINE SMOOTH",
"316.818 393.997 OFFCURVE",
"314.001 389.129 OFFCURVE",
"314.001 368.998 CURVE SMOOTH",
"314.001 128 LINE SMOOTH",
"314.001 114 OFFCURVE",
"319.668 107 OFFCURVE",
"331.001 107 CURVE SMOOTH",
"382.187 107 LINE SMOOTH",
"401.896 107 OFFCURVE",
"402.187 111.54 OFFCURVE",
"402.187 132 CURVE SMOOTH",
"402.187 196 LINE SMOOTH",
"402.187 209.333 OFFCURVE",
"397.187 216 OFFCURVE",
"387.187 216 CURVE SMOOTH",
"373.187 216 LINE",
"411.187 446 LINE SMOOTH",
"417.187 480 OFFCURVE",
"441.187 497 OFFCURVE",
"483.187 497 CURVE SMOOTH",
"663 497 LINE SMOOTH",
"709.225 497 OFFCURVE",
"730 479.952 OFFCURVE",
"730 434 CURVE SMOOTH",
"730 64 LINE SMOOTH",
"730 15.29 OFFCURVE",
"716.135 0 OFFCURVE",
"667 0 CURVE SMOOTH",
"570 0 LINE",
"570 107 LINE",
"584 107 LINE SMOOTH",
"604.641 107 OFFCURVE",
"606 112.033 OFFCURVE",
"606 133 CURVE SMOOTH",
"606 372 LINE SMOOTH",
"606 384 OFFCURVE",
"600 390 OFFCURVE",
"588 390 CURVE SMOOTH",
"537.187 390 LINE SMOOTH",
"523.854 390 OFFCURVE",
"515.854 384.333 OFFCURVE",
"513.187 373 CURVE SMOOTH",
"498.187 288 LINE",
"500.937 287.928 LINE SMOOTH",
"515.77 287.538 OFFCURVE",
"523.187 276.896 OFFCURVE",
"523.187 256 CURVE SMOOTH",
"523.187 60 LINE SMOOTH",
"523.187 12.607 OFFCURVE",
"503.786 0 OFFCURVE",
"456.187 0 CURVE SMOOTH",
"238.001 0 LINE SMOOTH",
"201.362 0 OFFCURVE",
"190.001 14.052 OFFCURVE",
"190.001 51 CURVE SMOOTH",
"190.001 440.999 LINE SMOOTH",
"190.001 478.332 OFFCURVE",
"208.334 496.999 OFFCURVE",
"245.001 496.999 CURVE SMOOTH",
"364.782 496.999 LINE"
);
},
{
closed = 1;
nodes = (
"146.598 398 OFFCURVE",
"140.001 391.999 OFFCURVE",
"140.001 373.999 CURVE SMOOTH",
"140.001 0 LINE",
"22 0 LINE",
"22 405.999 LINE SMOOTH",
"22 459.543 OFFCURVE",
"56.247 496.999 OFFCURVE",
"108.4 496.999 CURVE SMOOTH",
"255.002 496.998 LINE",
"202.001 397.999 LINE",
"158.998 398 LINE SMOOTH"
);
}
);
width = 760;
},
{
layerId = "DC4431BF-9234-4C16-9154-22D387E42D10";
paths = (
{
closed = 1;
nodes = (
"346 458 LINE",
"276 458 LINE SMOOTH",
"242 458 OFFCURVE",
"227 440 OFFCURVE",
"227 400 CURVE SMOOTH",
"227 67 LINE SMOOTH",
"227 48 OFFCURVE",
"231 40 OFFCURVE",
"249 40 CURVE SMOOTH",
"403 40 LINE SMOOTH",
"429 40 OFFCURVE",
"438 45 OFFCURVE",
"438 71 CURVE SMOOTH",
"438 228 LINE SMOOTH",
"438 242 OFFCURVE",
"433 249 OFFCURVE",
"419 249 CURVE SMOOTH",
"376 249 LINE",
"411 446 LINE SMOOTH",
"417 480 OFFCURVE",
"441 497 OFFCURVE",
"483 497 CURVE SMOOTH",
"632 497 LINE SMOOTH",
"679 497 OFFCURVE",
"699 480 OFFCURVE",
"699 434 CURVE SMOOTH",
"699 63 LINE SMOOTH",
"699 13 OFFCURVE",
"677 0 OFFCURVE",
"636 0 CURVE SMOOTH",
"547 0 LINE",
"547 40 LINE",
"620 40 LINE SMOOTH",
"647 40 OFFCURVE",
"654 47 OFFCURVE",
"654 78 CURVE SMOOTH",
"654 421 LINE SMOOTH",
"654 448 OFFCURVE",
"645 458 OFFCURVE",
"617 458 CURVE SMOOTH",
"492 458 LINE SMOOTH",
"465 458 OFFCURVE",
"455 447 OFFCURVE",
"452 429 CURVE SMOOTH",
"426 285 LINE",
"448 285 LINE SMOOTH",
"471 285 OFFCURVE",
"483 271 OFFCURVE",
"483 243 CURVE SMOOTH",
"483 60 LINE SMOOTH",
"483 13 OFFCURVE",
"464 0 OFFCURVE",
"416 0 CURVE SMOOTH",
"229 0 LINE SMOOTH",
"192 0 OFFCURVE",
"181 19 OFFCURVE",
"181 56 CURVE SMOOTH",
"181 416 LINE SMOOTH",
"181 476 OFFCURVE",
"227 497 OFFCURVE",
"264 497 CURVE SMOOTH",
"346 497 LINE"
);
},
{
closed = 1;
nodes = (
"84 458 OFFCURVE",
"67 447 OFFCURVE",
"67 408 CURVE SMOOTH",
"67 0 LINE",
"22 0 LINE",
"22 422 LINE SMOOTH",
"22 475 OFFCURVE",
"59 497 OFFCURVE",
"106 497 CURVE SMOOTH",
"279 497 LINE",
"211 458 LINE",
"121 458 LINE SMOOTH"
);
}
);
width = 759;
}
);
unicode = 0D9F;
},
{
glyphname = sinCa;
lastChange = "2021-06-12 12:56:09 +0000";
layers = (
{
layerId = "522BF62C-3FFD-47FE-9DEE-94F66EB24849";
paths = (
{
closed = 1;
nodes = (
"508.997 54 LINE SMOOTH",
"508.997 16.271 OFFCURVE",
"496.072 0 OFFCURVE",
"458.997 0 CURVE SMOOTH",
"95.997 0 LINE SMOOTH",
"58.925 0 OFFCURVE",
"45.997 16.273 OFFCURVE",
"45.997 54 CURVE SMOOTH",
"45.997 175.792 LINE SMOOTH",
"45.997 208.003 OFFCURVE",
"53.927 221.157 OFFCURVE",
"62 229.792 CURVE SMOOTH",
"62 229.792 OFFCURVE",
"118.863 318.999 OFFCURVE",
"148 318.999 CURVE SMOOTH",
"167.997 318.999 LINE",
"167.997 353 LINE SMOOTH",
"167.997 362.333 OFFCURVE",
"162.664 367 OFFCURVE",
"151.997 367 CURVE SMOOTH",
"45.996 367 LINE",
"45.996 470 LINE",
"228.997 470 LINE SMOOTH",
"270.702 470 OFFCURVE",
"291.996 448.41 OFFCURVE",
"291.996 412 CURVE SMOOTH",
"291.996 224.999 LINE",
"205.398 224.999 LINE SMOOTH",
"177.746 224.999 OFFCURVE",
"169.997 209.491 OFFCURVE",
"169.997 180 CURVE SMOOTH",
"169.997 129 LINE SMOOTH",
"169.997 114.333 OFFCURVE",
"175.997 107 OFFCURVE",
"187.997 107 CURVE SMOOTH",
"366.997 107 LINE SMOOTH",
"378.997 107 OFFCURVE",
"384.997 114.333 OFFCURVE",
"384.997 129 CURVE SMOOTH",
"384.997 415 LINE",
"508.997 415 LINE"
);
},
{
closed = 1;
nodes = (
"494.997 625 OFFCURVE",
"508.997 600.687 OFFCURVE",
"508.997 544 CURVE SMOOTH",
"508.997 400 LINE",
"384.997 400 LINE",
"384.997 494.602 LINE SMOOTH",
"384.997 512.95 OFFCURVE",
"378.059 517.602 OFFCURVE",
"358.997 517.602 CURVE SMOOTH",
"45.997 517.602 LINE",
"45.997 625 LINE",
"439.997 625 LINE SMOOTH"
);
},
{
closed = 1;
nodes = (
"162 318.989 LINE",
"162 224.989 LINE",
"-6.002 224.989 LINE",
"-6 318.989 LINE"
);
}
);
width = 539;
},
{
layerId = "DC4431BF-9234-4C16-9154-22D387E42D10";
paths = (
{
closed = 1;
nodes = (
"505 54 LINE SMOOTH",
"505 16 OFFCURVE",
"492 0 OFFCURVE",
"455 0 CURVE SMOOTH",
"115 0 LINE SMOOTH",
"78 0 OFFCURVE",
"65 16 OFFCURVE",
"65 54 CURVE SMOOTH",
"65 221 LINE SMOOTH",
"65 249 OFFCURVE",
"77 268 OFFCURVE",
"94 277 CURVE SMOOTH",
"94 277 OFFCURVE",
"136 310 OFFCURVE",
"156 310 CURVE SMOOTH",
"240 310 LINE",
"240 412 LINE SMOOTH",
"240 428 OFFCURVE",
"227 431 OFFCURVE",
"216 431 CURVE SMOOTH",
"65 431 LINE",
"65 470 LINE",
"233 470 LINE SMOOTH",
"269 470 OFFCURVE",
"286 454 OFFCURVE",
"286 417 CURVE SMOOTH",
"286 272 LINE",
"171 272 LINE SMOOTH",
"138 272 OFFCURVE",
"111 260 OFFCURVE",
"111 216 CURVE SMOOTH",
"111 66 LINE SMOOTH",
"111 47 OFFCURVE",
"118 40 OFFCURVE",
"134 40 CURVE SMOOTH",
"436 40 LINE SMOOTH",
"454 40 OFFCURVE",
"460 48 OFFCURVE",
"460 69 CURVE SMOOTH",
"460 415 LINE",
"505 415 LINE"
);
},
{
closed = 1;
nodes = (
"482.003 625 OFFCURVE",
"505 602 OFFCURVE",
"505 548 CURVE SMOOTH",
"505 400 LINE",
"460 400 LINE",
"460 536 LINE SMOOTH",
"460 573 OFFCURVE",
"451 585 OFFCURVE",
"414 585 CURVE SMOOTH",
"65 585 LINE",
"65 625 LINE",
"430 625 LINE SMOOTH"
);
},
{
closed = 1;
nodes = (
"182 310 LINE",
"182 272 LINE",
"-6 272 LINE",
"-6 309.999 LINE"
);
}
);
width = 539;
}
);
unicode = 0DA0;
},
{
glyphname = sinCha;
lastChange = "2021-06-12 12:56:09 +0000";
layers = (
{
layerId = "522BF62C-3FFD-47FE-9DEE-94F66EB24849";
paths = (
{
closed = 1;
nodes = (
"300.2 322.188 LINE SMOOTH",
"300.255 308.856 OFFCURVE",
"307.534 301.988 OFFCURVE",
"322.2 301.988 CURVE SMOOTH",
"344.2 301.988 LINE SMOOTH",
"358.867 301.988 OFFCURVE",
"366.2 310.667 OFFCURVE",
"366.2 322 CURVE SMOOTH",
"366 372.199 LINE SMOOTH",
"365.942 386.866 OFFCURVE",
"359.334 394.199 OFFCURVE",
"346 394.199 CURVE SMOOTH",
"320 394.199 LINE SMOOTH",
"306.983 394.199 OFFCURVE",
"300 383.601 OFFCURVE",
"300 371 CURVE SMOOTH"
);
},
{
closed = 1;
nodes = (
"250.999 486 LINE",
"268.016 496.523 OFFCURVE",
"275.291 495 OFFCURVE",
"305 533 CURVE SMOOTH",
"391 643 LINE",
"524 643 LINE",
"439 524 LINE SMOOTH",
"416.757 492.86 OFFCURVE",
"396.587 489.982 OFFCURVE",
"388 486 CURVE"
);
},
{
closed = 1;
nodes = (
"343 107 LINE SMOOTH",
"355 107 OFFCURVE",
"361 114.375 OFFCURVE",
"361 129 CURVE SMOOTH",
"361 183.811 LINE SMOOTH",
"361 201.998 OFFCURVE",
"349.411 207.811 OFFCURVE",
"332 207.811 CURVE SMOOTH",
"255.599 207.811 LINE SMOOTH",
"229.371 207.811 OFFCURVE",
"217 227.493 OFFCURVE",
"217 254.811 CURVE SMOOTH",
"216.999 419 LINE SMOOTH",
"217 460 OFFCURVE",
"247.331 497 OFFCURVE",
"286 497 CURVE SMOOTH",
"430 497 LINE SMOOTH",
"465.206 497 OFFCURVE",
"484.998 476.309 OFFCURVE",
"485 436 CURVE SMOOTH",
"485.004 332.2 LINE SMOOTH",
"485 301 OFFCURVE",
"479.802 274.444 OFFCURVE",
"454 256.99 CURVE",
"479.011 241.293 OFFCURVE",
"485 219.553 OFFCURVE",
"485 181 CURVE SMOOTH",
"485 54 LINE SMOOTH",
"485 16.28 OFFCURVE",
"472.072 0 OFFCURVE",
"435 0 CURVE SMOOTH",
"72 0 LINE SMOOTH",
"34.925 0 OFFCURVE",
"22 16.27 OFFCURVE",
"22 54 CURVE SMOOTH",
"22 300 LINE SMOOTH",
"22 337.333 OFFCURVE",
"40.68 354.999 OFFCURVE",
"78 354.999 CURVE SMOOTH",
"170 355 LINE",
"170 379 LINE SMOOTH",
"170 388 OFFCURVE",
"164.667 394.001 OFFCURVE",
"154 394.001 CURVE SMOOTH",
"23 394 LINE",
"23 497 LINE",
"196 497 LINE SMOOTH",
"234.656 497 OFFCURVE",
"259.807 479.785 OFFCURVE",
"259.807 438 CURVE SMOOTH",
"259.807 253 LINE",
"167 253 LINE SMOOTH",
"156.014 253 OFFCURVE",
"146 246.667 OFFCURVE",
"146 234 CURVE SMOOTH",
"146 129 LINE SMOOTH",
"146 114.333 OFFCURVE",
"152 107 OFFCURVE",
"164 107 CURVE SMOOTH"
);
}
);
width = 513;
},
{
layerId = "DC4431BF-9234-4C16-9154-22D387E42D10";
paths = (
{
closed = 1;
nodes = (
"252 297 LINE SMOOTH",
"252 280 OFFCURVE",
"256 274 OFFCURVE",
"271 274 CURVE SMOOTH",
"376 274 LINE SMOOTH",
"409 274 OFFCURVE",
"418 301 OFFCURVE",
"418 328 CURVE SMOOTH",
"418 427 LINE SMOOTH",
"418 449 OFFCURVE",
"409 458 OFFCURVE",
"392 458 CURVE SMOOTH",
"284 458 LINE SMOOTH",
"268 458 OFFCURVE",
"252 442 OFFCURVE",
"252 424 CURVE SMOOTH"
);
},
{
closed = 1;
nodes = (
"245 486 LINE",
"259 496 OFFCURVE",
"278 498 OFFCURVE",
"311 526 CURVE SMOOTH",
"452 643 LINE",
"510 643 LINE",
"365 519 LINE SMOOTH",
"341 497 OFFCURVE",
"333 496 OFFCURVE",
"310 486 CURVE"
);
},
{
closed = 1;
nodes = (
"394 40 LINE SMOOTH",
"413 40 OFFCURVE",
"418 50 OFFCURVE",
"418 69 CURVE SMOOTH",
"418 189 LINE SMOOTH",
"418 224 OFFCURVE",
"399 235 OFFCURVE",
"374 235 CURVE SMOOTH",
"255 235 LINE SMOOTH",
"225 235 OFFCURVE",
"212 248 OFFCURVE",
"212 279 CURVE SMOOTH",
"212 415 LINE SMOOTH",
"212 462 OFFCURVE",
"241 497 OFFCURVE",
"277 497 CURVE SMOOTH",
"408 497 LINE SMOOTH",
"444 497 OFFCURVE",
"463 476 OFFCURVE",
"463 436 CURVE SMOOTH",
"463 332 LINE SMOOTH",
"463 301 OFFCURVE",
"459 275 OFFCURVE",
"432 257 CURVE",
"457 241 OFFCURVE",
"463 220 OFFCURVE",
"463 181 CURVE SMOOTH",
"463 54 LINE SMOOTH",
"463 16 OFFCURVE",
"450 0 OFFCURVE",
"413 0 CURVE SMOOTH",
"72 0 LINE SMOOTH",
"35 0 OFFCURVE",
"22 16 OFFCURVE",
"22 54 CURVE SMOOTH",
"22 300 LINE SMOOTH",
"22 337 OFFCURVE",
"41 355 OFFCURVE",
"78 354.999 CURVE SMOOTH",
"207 355 LINE",
"207 431 LINE SMOOTH",
"207 450 OFFCURVE",
"194 458 OFFCURVE",
"173 458 CURVE SMOOTH",
"23 458 LINE",
"23 497 LINE",
"184 497 LINE SMOOTH",
"223 497 OFFCURVE",
"248 480 OFFCURVE",
"248 438 CURVE SMOOTH",
"248 316 LINE",
"94 316 LINE SMOOTH",
"74 316 OFFCURVE",
"68 305 OFFCURVE",
"68 290 CURVE SMOOTH",
"68 71 LINE SMOOTH",
"68 49 OFFCURVE",
"71 40 OFFCURVE",
"91 40 CURVE SMOOTH"
);
}
);
width = 513;
}
);
unicode = 0DA1;
},
{
glyphname = sinJa;
lastChange = "2021-06-12 12:56:09 +0000";
layers = (
{
layerId = "522BF62C-3FFD-47FE-9DEE-94F66EB24849";
paths = (
{
closed = 1;
nodes = (
"355 107 OFFCURVE",
"361 114.333 OFFCURVE",
"361 129 CURVE SMOOTH",
"361 234 LINE SMOOTH",
"361 246.667 OFFCURVE",
"354 253 OFFCURVE",
"340 253 CURVE SMOOTH",
"267 253 LINE",
"267 443 LINE SMOOTH",
"267 480.766 OFFCURVE",
"300.331 497 OFFCURVE",
"339 497 CURVE SMOOTH",
"484 497 LINE",
"484 394 LINE",
"379 394 LINE SMOOTH",
"368.333 394 OFFCURVE",
"363 389.333 OFFCURVE",
"363 380 CURVE SMOOTH",
"363 356 LINE",
"429 356 LINE SMOOTH",
"466.333 356 OFFCURVE",
"485 337.333 OFFCURVE",
"485 300 CURVE SMOOTH",
"485 54 LINE SMOOTH",
"485 16.273 OFFCURVE",
"472 0 OFFCURVE",
"435 0 CURVE",
"72 0 LINE",
"34.925 0 OFFCURVE",
"22 16.27 OFFCURVE",
"22 54 CURVE SMOOTH",
"22 300 LINE SMOOTH",
"22 337.333 OFFCURVE",
"40.667 356 OFFCURVE",
"78 356 CURVE SMOOTH",
"144 356 LINE",
"144 380 LINE SMOOTH",
"144 389 OFFCURVE",
"138.667 394 OFFCURVE",
"128 394 CURVE SMOOTH",
"23 394 LINE",
"23 497 LINE",
"168 497 LINE SMOOTH",
"206.656 497 OFFCURVE",
"240 480.761 OFFCURVE",
"240 443 CURVE SMOOTH",
"240 253 LINE",
"167 253 LINE SMOOTH",
"156 253 OFFCURVE",
"146 246.667 OFFCURVE",
"146 234 CURVE SMOOTH",
"146 129 LINE SMOOTH",
"146 114.333 OFFCURVE",
"152 107 OFFCURVE",
"164 107 CURVE",
"343 107 LINE"
);
},
{
closed = 1;
nodes = (
"291.999 486.4 LINE",
"301.851 493.377 OFFCURVE",
"313 498 OFFCURVE",
"331 532 CURVE SMOOTH",
"391 643.198 LINE",
"524 643.198 LINE",
"465.996 524 LINE SMOOTH",
"456 502 OFFCURVE",
"437.587 489.982 OFFCURVE",
"429 486 CURVE"
);
}
);
width = 513;
},
{
layerId = "DC4431BF-9234-4C16-9154-22D387E42D10";
paths = (
{
closed = 1;
nodes = (
"414 40 OFFCURVE",
"418 50 OFFCURVE",
"418 69 CURVE SMOOTH",
"418 284 LINE SMOOTH",
"418 307 OFFCURVE",
"408 314 OFFCURVE",
"388 314 CURVE SMOOTH",
"265 314 LINE",
"265 440 LINE SMOOTH",
"265 478 OFFCURVE",
"287 497 OFFCURVE",
"328 497 CURVE SMOOTH",
"462 497 LINE",
"462 458 LINE",
"342 458 LINE SMOOTH",
"318 458 OFFCURVE",
"308 449 OFFCURVE",
"308 426 CURVE SMOOTH",
"308 353 LINE",
"407 353 LINE SMOOTH",
"445 353 OFFCURVE",
"463 335 OFFCURVE",
"463 298 CURVE SMOOTH",
"463 54 LINE SMOOTH",
"463 16 OFFCURVE",
"449 0 OFFCURVE",
"412 0 CURVE",
"74 0 LINE",
"37 0 OFFCURVE",
"22 16 OFFCURVE",
"22 54 CURVE SMOOTH",
"22 298 LINE SMOOTH",
"22 335 OFFCURVE",
"41 353 OFFCURVE",
"78 353 CURVE SMOOTH",
"177 353 LINE",
"177 426 LINE SMOOTH",
"177 449 OFFCURVE",
"168 458 OFFCURVE",
"143 458 CURVE SMOOTH",
"23 458 LINE",
"23 497 LINE",
"157 497 LINE SMOOTH",
"198 497 OFFCURVE",
"220 478 OFFCURVE",
"220 440 CURVE SMOOTH",
"220 314 LINE",
"98 314 LINE SMOOTH",
"78 314 OFFCURVE",
"68 307 OFFCURVE",
"68 284 CURVE SMOOTH",
"68 69 LINE SMOOTH",
"68 50 OFFCURVE",
"75 40 OFFCURVE",
"92 40 CURVE",
"393 40 LINE"
);
},
{
closed = 1;
nodes = (
"290 489 LINE",
"302 496 OFFCURVE",
"309 498 OFFCURVE",
"336 525 CURVE SMOOTH",
"454 643 LINE",
"512 643 LINE",
"393 521 LINE SMOOTH",
"374 502 OFFCURVE",
"361 493 OFFCURVE",
"353 489 CURVE"
);
}
);
width = 512;
}
);
unicode = 0DA2;
},
{
glyphname = sinJha;
lastChange = "2021-06-12 12:56:09 +0000";
layers = (
{
layerId = "522BF62C-3FFD-47FE-9DEE-94F66EB24849";
paths = (
{
closed = 1;
nodes = (
"11.997 276.397 LINE",
"130.608 380.401 LINE",
"130.608 381.999 LINE SMOOTH",
"130.608 391.229 OFFCURVE",
"119.919 393.972 OFFCURVE",
"107.012 394.002 CURVE SMOOTH",
"22 394.201 LINE",
"22 497.201 LINE",
"185.409 497.001 LINE SMOOTH",
"217.092 496.963 OFFCURVE",
"221.005 469.791 OFFCURVE",
"221.005 461.599 CURVE SMOOTH",
"221.005 459.398 LINE",
"243.6 475.202 LINE SMOOTH",
"267.183 490.383 OFFCURVE",
"280.128 491.401 OFFCURVE",
"301 491.401 CURVE SMOOTH",
"308.069 491.401 OFFCURVE",
"329.488 489.309 OFFCURVE",
"346 487.201 CURVE SMOOTH",
"660.794 447.013 LINE",
"440 377.201 LINE SMOOTH",
"329.603 390.599 LINE SMOOTH",
"326.478 391.041 OFFCURVE",
"319.48 391.8 OFFCURVE",
"316.603 391.8 CURVE SMOOTH",
"300.822 391.799 OFFCURVE",
"292.494 390.784 OFFCURVE",
"276.198 376.592 CURVE SMOOTH",
"251.407 355.001 LINE",
"331.4 355.001 LINE SMOOTH",
"363.213 355.001 OFFCURVE",
"384.4 337.696 OFFCURVE",
"384.4 298.001 CURVE SMOOTH",
"384.4 51 LINE SMOOTH",
"384.4 14.955 OFFCURVE",
"361.045 0 OFFCURVE",
"331.4 0 CURVE SMOOTH",
"241.397 0 LINE SMOOTH",
"222.438 0 OFFCURVE",
"209.064 9.668 OFFCURVE",
"204.397 29.002 CURVE",
"199.73 9.668 OFFCURVE",
"183.09 0 OFFCURVE",
"165.397 0 CURVE SMOOTH",
"65.996 0 LINE SMOOTH",
"34.133 0 OFFCURVE",
"22 19.817 OFFCURVE",
"22 50.002 CURVE SMOOTH",
"22 140.201 LINE SMOOTH",
"22 180.996 OFFCURVE",
"34.273 195.266 OFFCURVE",
"48 203.002 CURVE",
"11.997 203.002 LINE"
);
},
{
closed = 1;
nodes = (
"275.4 255.665 OFFCURVE",
"270.4 262 OFFCURVE",
"260.4 262 CURVE SMOOTH",
"145 262 LINE",
"115.399 236 LINE",
"143.793 236 LINE",
"143.996 222 LINE",
"138.511 218.224 OFFCURVE",
"131.996 204.954 OFFCURVE",
"131.996 180.803 CURVE SMOOTH",
"131.996 127 LINE SMOOTH",
"131.996 109.666 OFFCURVE",
"134.656 107 OFFCURVE",
"145.996 107 CURVE SMOOTH",
"154.397 107 LINE SMOOTH",
"167.482 107 OFFCURVE",
"169.397 112.667 OFFCURVE",
"169.397 124 CURVE SMOOTH",
"169.397 188 LINE",
"237.397 188 LINE",
"237.397 126 LINE SMOOTH",
"237.397 111.333 OFFCURVE",
"240.106 107 OFFCURVE",
"251.397 107 CURVE SMOOTH",
"262.4 107 LINE SMOOTH",
"272.605 107 OFFCURVE",
"275.4 111.803 OFFCURVE",
"275.4 129.802 CURVE SMOOTH",
"275.4 243 LINE SMOOTH"
);
},
{
closed = 1;
nodes = (
"558.019 338.211 LINE SMOOTH",
"551.083 338.211 OFFCURVE",
"548.022 334.503 OFFCURVE",
"548.022 328.41 CURVE SMOOTH",
"548.022 126 LINE SMOOTH",
"548.022 113.333 OFFCURVE",
"554.355 107 OFFCURVE",
"567.022 107 CURVE SMOOTH",
"583.821 107 LINE SMOOTH",
"598.487 107 OFFCURVE",
"605.821 115.333 OFFCURVE",
"605.821 132 CURVE SMOOTH",
"605.821 244.796 LINE",
"705.417 244.796 LINE",
"705.417 134 LINE SMOOTH",
"705.417 116 OFFCURVE",
"713.083 107 OFFCURVE",
"728.417 107 CURVE SMOOTH",
"746.016 107 LINE SMOOTH",
"757.349 107 OFFCURVE",
"763.016 114 OFFCURVE",
"763.016 128 CURVE SMOOTH",
"763.016 479 LINE SMOOTH",
"763.016 503.852 OFFCURVE",
"755.902 510 OFFCURVE",
"732.019 510 CURVE SMOOTH",
"424.02 510 LINE",
"424.02 626 LINE",
"814.019 626 LINE SMOOTH",
"856.327 626 OFFCURVE",
"887.017 609.264 OFFCURVE",
"887.017 560 CURVE SMOOTH",
"887.017 50 LINE SMOOTH",
"887.017 19.638 OFFCURVE",
"873.415 0 OFFCURVE",
"840.019 0 CURVE SMOOTH",
"703.821 0 LINE SMOOTH",
"677.821 0 OFFCURVE",
"661.487 12.333 OFFCURVE",
"654.821 37 CURVE",
"651.647 16.378 OFFCURVE",
"631.091 0 OFFCURVE",
"607.821 0 CURVE SMOOTH",
"471.019 0 LINE SMOOTH",
"439.628 0 OFFCURVE",
"424.019 15.018 OFFCURVE",
"424.019 48 CURVE SMOOTH",
"424.019 371 LINE SMOOTH",
"424.019 413.076 OFFCURVE",
"442.04 444.827 OFFCURVE",
"483.019 445.011 CURVE SMOOTH",
"661.216 445.812 LINE",
"661.217 338.211 LINE"
);
}
);
width = 917;
},
{
layerId = "DC4431BF-9234-4C16-9154-22D387E42D10";
paths = (
{
closed = 1;
nodes = (
"12 255 LINE",
"154 375 LINE",
"154 425 LINE SMOOTH",
"154 448 OFFCURVE",
"148 458 OFFCURVE",
"126 458 CURVE SMOOTH",
"36 458 LINE",
"36 497 LINE",
"151 497 LINE SMOOTH",
"180 497 OFFCURVE",
"196 477 OFFCURVE",
"196 443 CURVE SMOOTH",
"196 410 LINE",
"253 453 LINE SMOOTH",
"290 481 OFFCURVE",
"311 488 OFFCURVE",
"335 488 CURVE SMOOTH",
"349 488 OFFCURVE",
"374 485 OFFCURVE",
"393 483 CURVE SMOOTH",
"658 458 LINE",
"463 435 LINE SMOOTH",
"375 443 LINE SMOOTH",
"361 445 OFFCURVE",
"348 446 OFFCURVE",
"337 446 CURVE SMOOTH",
"317 446 OFFCURVE",
"299 435 OFFCURVE",
"273 415 CURVE SMOOTH",
"206 364 LINE",
"322 364 LINE SMOOTH",
"348 364 OFFCURVE",
"370 349 OFFCURVE",
"370 314 CURVE SMOOTH",
"370 53 LINE SMOOTH",
"370 19 OFFCURVE",
"346 0 OFFCURVE",
"318 0 CURVE SMOOTH",
"232 0 LINE SMOOTH",
"213 0 OFFCURVE",
"200 10 OFFCURVE",
"195 29 CURVE",
"190 10 OFFCURVE",
"174 0 OFFCURVE",
"156 0 CURVE SMOOTH",
"67 0 LINE SMOOTH",
"38 0 OFFCURVE",
"22 20 OFFCURVE",
"22 46 CURVE SMOOTH",
"22 154 LINE SMOOTH",
"22 197 OFFCURVE",
"30 214 OFFCURVE",
"45 223 CURVE",
"12 223 LINE"
);
},
{
closed = 1;
nodes = (
"325 320 OFFCURVE",
"316 326 OFFCURVE",
"301 326 CURVE SMOOTH",
"161 326 LINE",
"76 254 LINE",
"103 254 LINE",
"103 228 LINE",
"71 210 OFFCURVE",
"66 194 OFFCURVE",
"66 149 CURVE SMOOTH",
"66 63 LINE SMOOTH",
"66 46 OFFCURVE",
"72 40 OFFCURVE",
"86 40 CURVE SMOOTH",
"136 40 LINE SMOOTH",
"173 40 OFFCURVE",
"176 67 OFFCURVE",
"176 97 CURVE SMOOTH",
"176 188 LINE",
"216 188 LINE",
"216 97 LINE SMOOTH",
"216 67 OFFCURVE",
"217 40 OFFCURVE",
"252 40 CURVE SMOOTH",
"301 40 LINE SMOOTH",
"321 40 OFFCURVE",
"325 53 OFFCURVE",
"325 71 CURVE SMOOTH",
"325 301 LINE SMOOTH"
);
},
{
closed = 1;
nodes = (
"509 418 LINE SMOOTH",
"485 418 OFFCURVE",
"478 405 OFFCURVE",
"478 385 CURVE SMOOTH",
"478 65 LINE SMOOTH",
"478 49 OFFCURVE",
"482 40 OFFCURVE",
"500 40 CURVE SMOOTH",
"587 40 LINE SMOOTH",
"623 40 OFFCURVE",
"630 70 OFFCURVE",
"630 104 CURVE SMOOTH",
"630 245 LINE",
"674 245 LINE",
"674 104 LINE SMOOTH",
"674 71 OFFCURVE",
"683 40 OFFCURVE",
"722 40 CURVE SMOOTH",
"806 40 LINE SMOOTH",
"823 40 OFFCURVE",
"827 51 OFFCURVE",
"827 67 CURVE SMOOTH",
"827 547 LINE SMOOTH",
"827 579 OFFCURVE",
"813 586 OFFCURVE",
"785 586 CURVE SMOOTH",
"432 586 LINE",
"432 626 LINE",
"801 626 LINE SMOOTH",
"843 626 OFFCURVE",
"874 609 OFFCURVE",
"874 560 CURVE SMOOTH",
"874 50 LINE SMOOTH",
"874 20 OFFCURVE",
"860 0 OFFCURVE",
"827 0 CURVE SMOOTH",
"701 0 LINE SMOOTH",
"675 0 OFFCURVE",
"659 12 OFFCURVE",
"652 37 CURVE",
"649 16 OFFCURVE",
"628 0 OFFCURVE",
"605 0 CURVE SMOOTH",
"479 0 LINE SMOOTH",
"448 0 OFFCURVE",
"432 15 OFFCURVE",
"432 48 CURVE SMOOTH",
"432 392 LINE SMOOTH",
"432 431 OFFCURVE",
"450 458 OFFCURVE",
"491 458 CURVE SMOOTH",
"659 458 LINE",
"659 418 LINE"
);
}
);
width = 915;
}
);
unicode = 0DA3;
},
{
glyphname = sinNya;
lastChange = "2021-06-12 12:56:09 +0000";
layers = (
{
components = (
{
name = sinDa;
transform = "{1, 0, 0, 1, 554.4, 0}";
}
);
layerId = "522BF62C-3FFD-47FE-9DEE-94F66EB24849";
paths = (
{
closed = 1;
nodes = (
"437.797 256.666 OFFCURVE",
"432.797 263.001 OFFCURVE",
"422.797 263.001 CURVE SMOOTH",
"307.396 263.001 LINE",
"277.796 237.001 LINE",
"306.189 237.001 LINE",
"306.393 223.001 LINE",
"300.907 219.225 OFFCURVE",
"294.393 205.955 OFFCURVE",
"294.393 181.804 CURVE SMOOTH",
"294.393 128.001 LINE SMOOTH",
"294.393 110.667 OFFCURVE",
"297.053 108 OFFCURVE",
"308.393 108 CURVE SMOOTH",
"316.794 108 LINE SMOOTH",
"329.879 108 OFFCURVE",
"331.794 113.668 OFFCURVE",
"331.794 125.002 CURVE SMOOTH",
"331.794 189.001 LINE",
"399.794 189.001 LINE",
"399.794 127 LINE SMOOTH",
"399.794 112.334 OFFCURVE",
"402.503 108 OFFCURVE",
"413.794 108 CURVE SMOOTH",
"424.797 108 LINE SMOOTH",
"435.002 108 OFFCURVE",
"437.797 112.804 OFFCURVE",
"437.797 130.803 CURVE SMOOTH",
"437.797 244.001 LINE SMOOTH"
);
},
{
closed = 1;
nodes = (
"500 394 LINE SMOOTH",
"484.424 393.966 OFFCURVE",
"470.375 392.897 OFFCURVE",
"461 389 CURVE SMOOTH",
"454.826 386.434 OFFCURVE",
"443.138 379.688 OFFCURVE",
"434.003 372 CURVE SMOOTH",
"413.804 355.001 LINE",
"493.797 355.001 LINE SMOOTH",
"525.609 355.001 OFFCURVE",
"546.797 337.696 OFFCURVE",
"546.797 298.001 CURVE SMOOTH",
"546.797 51 LINE SMOOTH",
"546.797 14.955 OFFCURVE",
"523.441 0 OFFCURVE",
"493.797 0 CURVE SMOOTH",
"403.794 0 LINE SMOOTH",
"384.834 0 OFFCURVE",
"371.461 9.668 OFFCURVE",
"366.794 29.002 CURVE",
"362.127 9.668 OFFCURVE",
"345.486 0 OFFCURVE",
"327.794 0 CURVE SMOOTH",
"228.393 0 LINE SMOOTH",
"196.529 0 OFFCURVE",
"184.396 19.817 OFFCURVE",
"184.396 50.002 CURVE SMOOTH",
"184.396 140.201 LINE SMOOTH",
"184.396 180.996 OFFCURVE",
"196.67 195.266 OFFCURVE",
"210.396 203.002 CURVE",
"174.394 203.002 LINE",
"174.394 276.397 LINE",
"293.005 380.401 LINE",
"293.005 381.999 LINE SMOOTH",
"293.005 391.229 OFFCURVE",
"282.315 393.972 OFFCURVE",
"269.408 394.002 CURVE SMOOTH",
"184.396 394.201 LINE",
"184.396 497.201 LINE",
"347.806 497.001 LINE SMOOTH",
"379.488 496.963 OFFCURVE",
"383.401 469.791 OFFCURVE",
"383.401 461.599 CURVE SMOOTH",
"383.401 459.398 LINE",
"405.996 475.202 LINE SMOOTH",
"411.029 478.722 OFFCURVE",
"416.262 481.705 OFFCURVE",
"421.607 484.223 CURVE SMOOTH",
"443.145 494.374 OFFCURVE",
"466.507 497 OFFCURVE",
"486 497 CURVE SMOOTH",
"591.989 497 LINE",
"592 394.199 LINE"
);
},
{
closed = 1;
nodes = (
"146.598 410.599 OFFCURVE",
"140.001 404.598 OFFCURVE",
"140.001 386.598 CURVE SMOOTH",
"140.001 0 LINE",
"22 0 LINE",
"22 406 LINE SMOOTH",
"22 459.609 OFFCURVE",
"56.247 497 OFFCURVE",
"108.4 497 CURVE SMOOTH",
"255.002 496.999 LINE",
"202.001 410.598 LINE",
"158.998 410.599 LINE SMOOTH"
);
}
);
width = 1015;
},
{
components = (
{
alignment = -1;
name = sinDa;
transform = "{1, 0, 0, 1, 555, 0}";
}
);
layerId = "DC4431BF-9234-4C16-9154-22D387E42D10";
paths = (
{
closed = 1;
nodes = (
"476 320 OFFCURVE",
"466 326 OFFCURVE",
"452 326 CURVE SMOOTH",
"312 326 LINE",
"226 254 LINE",
"253 254 LINE",
"253 228 LINE",
"222 211 OFFCURVE",
"217 194 OFFCURVE",
"217 150 CURVE SMOOTH",
"217 63 LINE SMOOTH",
"217 46 OFFCURVE",
"222 40 OFFCURVE",
"237 40 CURVE SMOOTH",
"286 40 LINE SMOOTH",
"324 40 OFFCURVE",
"326 67 OFFCURVE",
"326 97 CURVE SMOOTH",
"326 188 LINE",
"366 188 LINE",
"366 97 LINE SMOOTH",
"366 67 OFFCURVE",
"367 40 OFFCURVE",
"402 40 CURVE SMOOTH",
"451 40 LINE SMOOTH",
"472 40 OFFCURVE",
"476 53 OFFCURVE",
"476 71 CURVE SMOOTH",
"476 301 LINE SMOOTH"
);
},
{
closed = 1;
nodes = (
"546 458 LINE SMOOTH",
"527 458 OFFCURVE",
"503 456 OFFCURVE",
"487 451 CURVE SMOOTH",
"469 446 OFFCURVE",
"447 433 OFFCURVE",
"423 415 CURVE SMOOTH",
"357 364 LINE",
"473 364 LINE SMOOTH",
"499 364 OFFCURVE",
"520 349 OFFCURVE",
"520 314 CURVE SMOOTH",
"520 53 LINE SMOOTH",
"520 19 OFFCURVE",
"497 0 OFFCURVE",
"469 0 CURVE SMOOTH",
"383 0 LINE SMOOTH",
"364 0 OFFCURVE",
"350 10 OFFCURVE",
"346 29 CURVE",
"341 10 OFFCURVE",
"324 0 OFFCURVE",
"307 0 CURVE SMOOTH",
"217 0 LINE SMOOTH",
"189 0 OFFCURVE",
"173 20 OFFCURVE",
"173 46 CURVE SMOOTH",
"173 154 LINE SMOOTH",
"173 197 OFFCURVE",
"181 214 OFFCURVE",
"196 223 CURVE",
"163 223 LINE",
"163 255 LINE",
"305 375 LINE",
"305 425 LINE SMOOTH",
"305 448 OFFCURVE",
"298 458 OFFCURVE",
"276 458 CURVE SMOOTH",
"187 458 LINE",
"187 497 LINE",
"302 497 LINE SMOOTH",
"330 497 OFFCURVE",
"346 477 OFFCURVE",
"346 443 CURVE SMOOTH",
"346 410 LINE",
"408 456 LINE SMOOTH",
"433 475 OFFCURVE",
"452 483 OFFCURVE",
"466 488 CURVE SMOOTH",
"485 495 OFFCURVE",
"511 497 OFFCURVE",
"533 497 CURVE SMOOTH",
"591 497 LINE",
"591 458 LINE"
);
},
{
closed = 1;
nodes = (
"84 460 OFFCURVE",
"67 448 OFFCURVE",
"67 409 CURVE SMOOTH",
"67 0 LINE",
"22 0 LINE",
"22 422 LINE SMOOTH",
"22 475 OFFCURVE",
"59 497 OFFCURVE",
"106 497 CURVE SMOOTH",
"279 497 LINE",
"211 460 LINE",
"121 460 LINE SMOOTH"
);
}
);
width = 1012;
}
);
unicode = 0DA4;
},
{
glyphname = sinJnya;
lastChange = "2021-06-12 12:56:09 +0000";
layers = (
{
components = (
{
name = sinDa;
transform = "{1, 0, 0, 1, 550.2, 0}";
}
);
layerId = "522BF62C-3FFD-47FE-9DEE-94F66EB24849";
paths = (
{
closed = 1;
nodes = (
"540.39 394.004 LINE SMOOTH",
"527.057 394.004 OFFCURVE",
"519.057 388.337 OFFCURVE",
"516.39 377.004 CURVE SMOOTH",
"498.187 288 LINE",
"500.937 287.928 LINE SMOOTH",
"515.77 287.538 OFFCURVE",
"523.187 276.896 OFFCURVE",
"523.187 256 CURVE SMOOTH",
"523.187 60 LINE SMOOTH",
"523.187 12.607 OFFCURVE",
"503.786 0 OFFCURVE",
"456.187 0 CURVE SMOOTH",
"238.001 0 LINE SMOOTH",
"201.362 0 OFFCURVE",
"190.001 14.052 OFFCURVE",
"190.001 51 CURVE SMOOTH",
"190.001 440.999 LINE SMOOTH",
"190.001 478.332 OFFCURVE",
"208.334 496.999 OFFCURVE",
"245.001 496.999 CURVE SMOOTH",
"364.782 496.999 LINE",
"364.782 394 LINE",
"337.001 393.998 LINE SMOOTH",
"316.818 393.997 OFFCURVE",
"314.001 389.129 OFFCURVE",
"314.001 368.998 CURVE SMOOTH",
"314.001 128 LINE SMOOTH",
"314.001 114 OFFCURVE",
"319.668 107 OFFCURVE",
"331.001 107 CURVE SMOOTH",
"382.187 107 LINE SMOOTH",
"401.896 107 OFFCURVE",
"402.187 111.54 OFFCURVE",
"402.187 132 CURVE SMOOTH",
"402.187 196 LINE SMOOTH",
"402.187 209.333 OFFCURVE",
"397.187 216 OFFCURVE",
"387.187 216 CURVE SMOOTH",
"373.187 216 LINE",
"411.187 446 LINE SMOOTH",
"417.187 480 OFFCURVE",
"441.187 497 OFFCURVE",
"483.187 497 CURVE SMOOTH",
"588 497 LINE",
"588 394.004 LINE"
);
},
{
closed = 1;
nodes = (
"146.598 398.001 OFFCURVE",
"140.001 392 OFFCURVE",
"140.001 374 CURVE SMOOTH",
"140.001 0 LINE",
"22 0 LINE",
"22 406 LINE SMOOTH",
"22 459.609 OFFCURVE",
"56.247 497 OFFCURVE",
"108.4 497 CURVE SMOOTH",
"255.002 496.999 LINE",
"202.001 398 LINE",
"158.998 398.001 LINE SMOOTH"
);
}
);
width = 1011;
},
{
components = (
{
alignment = -1;
name = sinDa;
transform = "{1, 0, 0, 1, 550, 0}";
}
);
layerId = "DC4431BF-9234-4C16-9154-22D387E42D10";
paths = (
{
closed = 1;
nodes = (
"492 458 LINE SMOOTH",
"465 458 OFFCURVE",
"456 447 OFFCURVE",
"452 429 CURVE SMOOTH",
"426 285 LINE",
"448 285 LINE SMOOTH",
"471 285 OFFCURVE",
"483 271 OFFCURVE",
"483 243 CURVE SMOOTH",
"483 60 LINE SMOOTH",
"483 13 OFFCURVE",
"464 0 OFFCURVE",
"416 0 CURVE SMOOTH",
"229 0 LINE SMOOTH",
"192 0 OFFCURVE",
"181 19 OFFCURVE",
"181 56 CURVE SMOOTH",
"181 416 LINE SMOOTH",
"181 476 OFFCURVE",
"227 497 OFFCURVE",
"264 497 CURVE SMOOTH",
"346 497 LINE",
"346 458 LINE",
"276 458 LINE SMOOTH",
"242 458 OFFCURVE",
"227 440 OFFCURVE",
"227 400 CURVE SMOOTH",
"227 67 LINE SMOOTH",
"227 48 OFFCURVE",
"231 40 OFFCURVE",
"249 40 CURVE SMOOTH",
"403 40 LINE SMOOTH",
"429 40 OFFCURVE",
"438 45 OFFCURVE",
"438 71 CURVE SMOOTH",
"438 228 LINE SMOOTH",
"438 242 OFFCURVE",
"433 249 OFFCURVE",
"419 249 CURVE SMOOTH",
"376 249 LINE",
"411 446 LINE SMOOTH",
"417 480 OFFCURVE",
"441 497 OFFCURVE",
"483 497 CURVE SMOOTH",
"617 497 LINE",
"617 458 LINE"
);
},
{
closed = 1;
nodes = (
"84 458 OFFCURVE",
"67 447 OFFCURVE",
"67 408 CURVE SMOOTH",
"67 0 LINE",
"22 0 LINE",
"22 422 LINE SMOOTH",
"22 475 OFFCURVE",
"59 497 OFFCURVE",
"106 497 CURVE SMOOTH",
"279 497 LINE",
"211 458 LINE",
"121 458 LINE SMOOTH"
);
}
);
width = 1007;
}
);
unicode = 0DA5;
},
{
glyphname = sinNyja;
lastChange = "2021-06-12 12:56:09 +0000";
layers = (
{
components = (
{
name = sinJa;
transform = "{1, 0, 0, 1, 169.2, 0}";
}
);
layerId = "522BF62C-3FFD-47FE-9DEE-94F66EB24849";
paths = (
{
closed = 1;
nodes = (
"146.598 409.001 OFFCURVE",
"140.001 403 OFFCURVE",
"140.001 385 CURVE SMOOTH",
"140.001 0 LINE",
"22 0 LINE",
"22 406 LINE SMOOTH",
"22 459.609 OFFCURVE",
"56.247 497 OFFCURVE",
"108.4 497 CURVE SMOOTH",
"255.002 496.999 LINE",
"202.001 409 LINE",
"158.998 409.001 LINE SMOOTH"
);
}
);
width = 683;
},
{
components = (
{
alignment = -1;
name = sinJa;
transform = "{1, 0, 0, 1, 163, 0}";
}
);
layerId = "DC4431BF-9234-4C16-9154-22D387E42D10";
paths = (
{
closed = 1;
nodes = (
"84 459 OFFCURVE",
"67 448 OFFCURVE",
"67 409 CURVE SMOOTH",
"67 0 LINE",
"22 0 LINE",
"22 422 LINE SMOOTH",
"22 475 OFFCURVE",
"59 497 OFFCURVE",
"106 497 CURVE SMOOTH",
"279 497 LINE",
"211 459 LINE",
"121 459 LINE SMOOTH"
);
}
);
width = 683;
}
);
unicode = 0DA6;
},
{
glyphname = sinTta;
lastChange = "2021-06-12 12:56:09 +0000";
layers = (
{
layerId = "522BF62C-3FFD-47FE-9DEE-94F66EB24849";
paths = (
{
closed = 1;
nodes = (
"167 363.399 LINE SMOOTH",
"153 363.399 OFFCURVE",
"146 357.066 OFFCURVE",
"146 344.399 CURVE SMOOTH",
"146 129 LINE SMOOTH",
"146 114.333 OFFCURVE",
"152 107 OFFCURVE",
"164 107 CURVE SMOOTH",
"343 107 LINE SMOOTH",
"355 107 OFFCURVE",
"361 114.333 OFFCURVE",
"361 129 CURVE SMOOTH",
"361 415 LINE",
"485 415 LINE",
"485 54 LINE SMOOTH",
"485 16.27 OFFCURVE",
"472.075 0 OFFCURVE",
"435 0 CURVE SMOOTH",
"72 0 LINE SMOOTH",
"34.928 0 OFFCURVE",
"22 16.273 OFFCURVE",
"22 54 CURVE SMOOTH",
"22 415.001 LINE SMOOTH",
"22 451.668 OFFCURVE",
"40.667 470.001 OFFCURVE",
"78 470.001 CURVE SMOOTH",
"253.998 470.001 LINE",
"254 363.399 LINE"
);
},
{
closed = 1;
nodes = (
"471 625 OFFCURVE",
"485 600.687 OFFCURVE",
"485 544 CURVE SMOOTH",
"485 400 LINE",
"361 400 LINE",
"361 494.602 LINE SMOOTH",
"361 512.95 OFFCURVE",
"354.062 517.602 OFFCURVE",
"335 517.602 CURVE SMOOTH",
"22 517.602 LINE",
"22 625 LINE",
"416 625 LINE SMOOTH"
);
}
);
width = 515;
},
{
layerId = "DC4431BF-9234-4C16-9154-22D387E42D10";
paths = (
{
closed = 1;
nodes = (
"95 410 LINE SMOOTH",
"79 410 OFFCURVE",
"68 404 OFFCURVE",
"68 383 CURVE SMOOTH",
"68 65 LINE SMOOTH",
"68 50 OFFCURVE",
"70 40 OFFCURVE",
"87 40 CURVE SMOOTH",
"395 40 LINE SMOOTH",
"410 40 OFFCURVE",
"417 48 OFFCURVE",
"417 68 CURVE SMOOTH",
"417 415 LINE",
"463 415 LINE",
"463 54 LINE SMOOTH",
"463 16 OFFCURVE",
"448 0 OFFCURVE",
"411 0 CURVE SMOOTH",
"72 0 LINE SMOOTH",
"35 0 OFFCURVE",
"22 16 OFFCURVE",
"22 54 CURVE SMOOTH",
"22 394 LINE SMOOTH",
"22 431 OFFCURVE",
"41 449 OFFCURVE",
"78 449 CURVE SMOOTH",
"241 449 LINE",
"241 410 LINE"
);
},
{
closed = 1;
nodes = (
"439 625 OFFCURVE",
"463 602 OFFCURVE",
"463 548 CURVE SMOOTH",
"463 400 LINE",
"417 400 LINE",
"417 536 LINE SMOOTH",
"417 573 OFFCURVE",
"408 585 OFFCURVE",
"372 585 CURVE SMOOTH",
"22 585 LINE",
"22 625 LINE",
"387 625 LINE SMOOTH"
);
}
);
width = 515;
}
);
unicode = 0DA7;
},
{
glyphname = sinTtha;
lastChange = "2021-06-12 12:56:09 +0000";
layers = (
{
layerId = "522BF62C-3FFD-47FE-9DEE-94F66EB24849";
paths = (
{
closed = 1;
nodes = (
"293.203 514.6 LINE SMOOTH",
"293.203 496.191 OFFCURVE",
"300.605 496.015 OFFCURVE",
"314.986 496.015 CURVE SMOOTH",
"359.2 496.015 LINE",
"359.201 522 LINE SMOOTH",
"359.201 529.711 OFFCURVE",
"357.313 538 OFFCURVE",
"347.001 538 CURVE SMOOTH",
"293.203 538 LINE"
);
},
{
closed = 1;
nodes = (
"361.2 394 LINE",
"361.2 427.015 LINE",
"228.986 427.015 LINE SMOOTH",
"195.694 427.015 OFFCURVE",
"183.203 437.986 OFFCURVE",
"183.203 474.4 CURVE SMOOTH",
"183.203 539 LINE",
"137.809 539 LINE",
"137.809 626 LINE",
"419 626 LINE SMOOTH",
"466.56 626 OFFCURVE",
"485.001 610.567 OFFCURVE",
"485.001 559 CURVE SMOOTH",
"485.001 394 LINE"
);
},
{
closed = 1;
nodes = (
"484.998 50 LINE SMOOTH",
"484.998 19.638 OFFCURVE",
"471.396 0 OFFCURVE",
"438 0 CURVE SMOOTH",
"301.803 0 LINE SMOOTH",
"275.803 0 OFFCURVE",
"259.469 12.333 OFFCURVE",
"252.803 37 CURVE",
"249.629 16.378 OFFCURVE",
"229.072 0 OFFCURVE",
"205.803 0 CURVE SMOOTH",
"69 0 LINE SMOOTH",
"37.61 0 OFFCURVE",
"22 15.018 OFFCURVE",
"22 48 CURVE SMOOTH",
"22 328.601 LINE SMOOTH",
"22 367.155 OFFCURVE",
"40.021 393.601 OFFCURVE",
"81 393.601 CURVE SMOOTH",
"259.197 393.601 LINE",
"259.198 286 LINE",
"156 286 LINE SMOOTH",
"149.064 286 OFFCURVE",
"146.004 282.292 OFFCURVE",
"146.004 276.199 CURVE SMOOTH",
"146.004 126 LINE SMOOTH",
"146.004 113.333 OFFCURVE",
"152.337 107 OFFCURVE",
"165.004 107 CURVE SMOOTH",
"181.803 107 LINE SMOOTH",
"196.469 107 OFFCURVE",
"203.803 115.333 OFFCURVE",
"203.803 132 CURVE SMOOTH",
"203.803 222 LINE",
"303.398 222 LINE",
"303.398 134 LINE SMOOTH",
"303.398 116 OFFCURVE",
"309.263 107 OFFCURVE",
"324.597 107 CURVE SMOOTH",
"343.196 107 LINE SMOOTH",
"356.103 107 OFFCURVE",
"361.197 115.669 OFFCURVE",
"361.197 126.799 CURVE SMOOTH",
"361.201 407 LINE",
"484.998 407 LINE"
);
}
);
width = 515;
},
{
layerId = "DC4431BF-9234-4C16-9154-22D387E42D10";
paths = (
{
closed = 1;
nodes = (
"266 485 LINE SMOOTH",
"266 464 OFFCURVE",
"272 463 OFFCURVE",
"288 463 CURVE SMOOTH",
"418 463 LINE",
"418 554 LINE SMOOTH",
"418 578 OFFCURVE",
"412 588 OFFCURVE",
"383 588 CURVE SMOOTH",
"266 588 LINE"
);
},
{
closed = 1;
nodes = (
"418 394 LINE",
"418 427 LINE",
"267 427 LINE SMOOTH",
"234 427 OFFCURVE",
"221 438 OFFCURVE",
"221 474 CURVE SMOOTH",
"221 589 LINE",
"157 589 LINE",
"157 626 LINE",
"397 626 LINE SMOOTH",
"445 626 OFFCURVE",
"463 611 OFFCURVE",
"463 559 CURVE SMOOTH",
"463 394 LINE"
);
},
{
closed = 1;
nodes = (
"463 50 LINE SMOOTH",
"463 20 OFFCURVE",
"450 0 OFFCURVE",
"416 0 CURVE SMOOTH",
"290.992 0 LINE SMOOTH",
"264.992 0 OFFCURVE",
"249 12 OFFCURVE",
"241.992 37 CURVE",
"239 16 OFFCURVE",
"218 0 OFFCURVE",
"194.992 0 CURVE SMOOTH",
"69 0 LINE SMOOTH",
"38 0 OFFCURVE",
"22 15 OFFCURVE",
"22 48 CURVE SMOOTH",
"22 292 LINE SMOOTH",
"22 331 OFFCURVE",
"40 357 OFFCURVE",
"81 357 CURVE SMOOTH",
"248 357 LINE",
"248 317 LINE",
"99 317 LINE SMOOTH",
"75 317 OFFCURVE",
"68 304 OFFCURVE",
"68 284 CURVE SMOOTH",
"68 65 LINE SMOOTH",
"68 49 OFFCURVE",
"72 40 OFFCURVE",
"90 40 CURVE SMOOTH",
"177 40 LINE SMOOTH",
"213 40 OFFCURVE",
"220 70 OFFCURVE",
"220 104 CURVE SMOOTH",
"220 202 LINE",
"264 202 LINE",
"264 104 LINE SMOOTH",
"264 71 OFFCURVE",
"272 40 OFFCURVE",
"311 40 CURVE SMOOTH",
"396 40 LINE SMOOTH",
"413 40 OFFCURVE",
"418 51 OFFCURVE",
"418 67 CURVE SMOOTH",
"418 456 LINE",
"463 457 LINE"
);
}
);
width = 515;
}
);
unicode = 0DA8;
},
{
glyphname = sinDda;
lastChange = "2021-06-12 12:56:09 +0000";
layers = (
{
layerId = "522BF62C-3FFD-47FE-9DEE-94F66EB24849";
paths = (
{
closed = 1;
nodes = (
"88 329.003 LINE",
"88 232.003 LINE",
"-6 232.003 LINE",
"-6 329.003 LINE"
);
},
{
closed = 1;
nodes = (
"33 0 OFFCURVE",
"22 16.273 OFFCURVE",
"22 54 CURVE SMOOTH",
"22 191.007 LINE SMOOTH",
"22 212.34 OFFCURVE",
"29.667 226.674 OFFCURVE",
"45 234.007 CURVE",
"61.22 256.309 OFFCURVE",
"40.858 329.007 OFFCURVE",
"78 329.007 CURVE SMOOTH",
"145.592 329.007 LINE",
"145.542 352.007 LINE",
"145.542 362.007 OFFCURVE",
"138.875 367.007 OFFCURVE",
"125.542 367.007 CURVE SMOOTH",
"23 367.007 LINE",
"23 470.007 LINE",
"192 470.007 LINE SMOOTH",
"230.669 470.007 OFFCURVE",
"264 453.772 OFFCURVE",
"264 416.007 CURVE SMOOTH",
"264 226.007 LINE",
"169 226.007 LINE SMOOTH",
"153.667 226.007 OFFCURVE",
"146 220.34 OFFCURVE",
"146 209.007 CURVE SMOOTH",
"146 130 LINE SMOOTH",
"146 114.667 OFFCURVE",
"152 107 OFFCURVE",
"164.804 107 CURVE SMOOTH",
"181.803 107 LINE SMOOTH",
"196 107 OFFCURVE",
"203.803 115.333 OFFCURVE",
"203.803 132 CURVE SMOOTH",
"203.803 185.405 LINE",
"303.398 185.405 LINE",
"303.398 134 LINE SMOOTH",
"303.398 116 OFFCURVE",
"311.064 107 OFFCURVE",
"326.398 107 CURVE SMOOTH",
"343.997 107 LINE SMOOTH",
"355.33 107 OFFCURVE",
"360.997 114 OFFCURVE",
"360.997 128 CURVE SMOOTH",
"360.997 479 LINE SMOOTH",
"360.997 503.852 OFFCURVE",
"353.884 510 OFFCURVE",
"330 510 CURVE SMOOTH",
"22 510 LINE",
"22 626 LINE",
"412 626 LINE SMOOTH",
"454.309 626 OFFCURVE",
"484.998 609.264 OFFCURVE",
"484.998 560 CURVE SMOOTH",
"484.998 50 LINE SMOOTH",
"484.998 19.638 OFFCURVE",
"471.396 0 OFFCURVE",
"438 0 CURVE SMOOTH",
"301.803 0 LINE SMOOTH",
"275.803 0 OFFCURVE",
"259.469 12.333 OFFCURVE",
"252.803 37 CURVE",
"249.629 16.378 OFFCURVE",
"229 0 OFFCURVE",
"205.803 0 CURVE SMOOTH",
"69.998 0 LINE SMOOTH"
);
}
);
width = 515;
},
{
layerId = "DC4431BF-9234-4C16-9154-22D387E42D10";
paths = (
{
closed = 1;
nodes = (
"126 351 LINE",
"126 312 LINE",
"-6 312 LINE",
"-6 351 LINE"
);
},
{
closed = 1;
nodes = (
"33 0 OFFCURVE",
"22 16 OFFCURVE",
"22 54 CURVE SMOOTH",
"22 259 LINE SMOOTH",
"22 279 OFFCURVE",
"30 302 OFFCURVE",
"50 313 CURVE",
"60 328 OFFCURVE",
"60 351 OFFCURVE",
"78 351 CURVE SMOOTH",
"201 351 LINE",
"201 427 LINE",
"201 448 OFFCURVE",
"189 455 OFFCURVE",
"167 455 CURVE SMOOTH",
"23 455 LINE",
"23 494 LINE",
"182 494 LINE SMOOTH",
"224 494 OFFCURVE",
"245 476 OFFCURVE",
"245 438 CURVE SMOOTH",
"245 312 LINE",
"131 312 LINE SMOOTH",
"80 312 OFFCURVE",
"68 281 OFFCURVE",
"68 248 CURVE SMOOTH",
"68 63 LINE SMOOTH",
"68 47 OFFCURVE",
"74 40 OFFCURVE",
"88 40 CURVE SMOOTH",
"182 40 LINE SMOOTH",
"205 40 OFFCURVE",
"221 47 OFFCURVE",
"221 83 CURVE SMOOTH",
"221 177 LINE",
"264 177 LINE",
"264 84 LINE SMOOTH",
"264 47 OFFCURVE",
"280 40 OFFCURVE",
"304 40 CURVE SMOOTH",
"390 40 LINE SMOOTH",
"411 40 OFFCURVE",
"417 49 OFFCURVE",
"417 69 CURVE SMOOTH",
"417 545 LINE SMOOTH",
"417 575 OFFCURVE",
"404 586 OFFCURVE",
"374 586 CURVE SMOOTH",
"22 586 LINE",
"22 626 LINE",
"389 626 LINE SMOOTH",
"432 626 OFFCURVE",
"462 609 OFFCURVE",
"462 560 CURVE SMOOTH",
"462 50 LINE SMOOTH",
"462 20 OFFCURVE",
"449 0 OFFCURVE",
"415 0 CURVE SMOOTH",
"291 0 LINE SMOOTH",
"265 0 OFFCURVE",
"247 9 OFFCURVE",
"242 29 CURVE",
"238 10 OFFCURVE",
"218 0 OFFCURVE",
"195 0 CURVE SMOOTH",
"69.998 0 LINE SMOOTH"
);
}
);
width = 513;
}
);
unicode = 0DA9;
},
{
glyphname = sinDdha;
lastChange = "2021-06-12 12:56:09 +0000";
layers = (
{
layerId = "522BF62C-3FFD-47FE-9DEE-94F66EB24849";
paths = (
{
closed = 1;
nodes = (
"293.203 514.6 LINE SMOOTH",
"293.203 496.191 OFFCURVE",
"300.605 496.015 OFFCURVE",
"314.986 496.015 CURVE SMOOTH",
"358.199 496.015 LINE",
"358.2 522 LINE SMOOTH",
"358.2 529.711 OFFCURVE",
"356.312 538 OFFCURVE",
"346 538 CURVE SMOOTH",
"293.203 538 LINE"
);
},
{
closed = 1;
nodes = (
"361 394 LINE",
"361 427.015 LINE",
"228.986 427.015 LINE SMOOTH",
"195.694 427.015 OFFCURVE",
"183.203 437.986 OFFCURVE",
"183.203 474.4 CURVE SMOOTH",
"183.203 539 LINE",
"137.809 539 LINE",
"137.809 626 LINE",
"419 626 LINE SMOOTH",
"466.56 626 OFFCURVE",
"485.001 610.567 OFFCURVE",
"485.001 559 CURVE SMOOTH",
"485.001 394 LINE"
);
},
{
closed = 1;
nodes = (
"88 290.791 LINE",
"88 207.791 LINE",
"-6 207.791 LINE",
"-6 290.791 LINE"
);
},
{
closed = 1;
nodes = (
"22 188.128 OFFCURVE",
"29.667 202.462 OFFCURVE",
"45 209.795 CURVE",
"61.22 232.097 OFFCURVE",
"40.858 290.795 OFFCURVE",
"78 290.795 CURVE SMOOTH",
"168.05 290.795 LINE",
"168 310.592 LINE",
"168 320.592 OFFCURVE",
"161.333 325.592 OFFCURVE",
"148 325.592 CURVE SMOOTH",
"23 325.592 LINE",
"23 419.585 LINE",
"192 419.585 LINE SMOOTH",
"230.669 419.585 OFFCURVE",
"264 403.351 OFFCURVE",
"264 365.585 CURVE SMOOTH",
"264 201.795 LINE",
"169 201.795 LINE SMOOTH",
"153.667 201.795 OFFCURVE",
"146 196.128 OFFCURVE",
"146 184.795 CURVE SMOOTH",
"146 130 LINE SMOOTH",
"146 114.667 OFFCURVE",
"152 107 OFFCURVE",
"164.804 107 CURVE SMOOTH",
"181.803 107 LINE SMOOTH",
"196 107 OFFCURVE",
"203.803 115.333 OFFCURVE",
"203.803 132 CURVE SMOOTH",
"203.803 161.193 LINE",
"303.398 161.193 LINE",
"303.398 134 LINE SMOOTH",
"303.398 116 OFFCURVE",
"311.064 107 OFFCURVE",
"326.398 107 CURVE SMOOTH",
"343.997 107 LINE SMOOTH",
"355.33 107 OFFCURVE",
"360.997 114 OFFCURVE",
"360.997 128 CURVE SMOOTH",
"360.997 412.001 LINE",
"484.998 412 LINE",
"484.998 50 LINE SMOOTH",
"484.998 19.638 OFFCURVE",
"471.396 0 OFFCURVE",
"438 0 CURVE SMOOTH",
"301.803 0 LINE SMOOTH",
"275.803 0 OFFCURVE",
"259.469 12.333 OFFCURVE",
"252.803 37 CURVE",
"249.629 16.378 OFFCURVE",
"229 0 OFFCURVE",
"205.803 0 CURVE SMOOTH",
"69.998 0 LINE SMOOTH",
"33 0 OFFCURVE",
"22 16.273 OFFCURVE",
"22 54 CURVE SMOOTH",
"22 166.795 LINE SMOOTH"
);
}
);
width = 515;
},
{
layerId = "DC4431BF-9234-4C16-9154-22D387E42D10";
paths = (
{
closed = 1;
nodes = (
"265 485 LINE SMOOTH",
"265 464 OFFCURVE",
"271 463 OFFCURVE",
"287 463 CURVE SMOOTH",
"417 463 LINE",
"417 554 LINE SMOOTH",
"417 578 OFFCURVE",
"411 588 OFFCURVE",
"382 588 CURVE SMOOTH",
"265 588 LINE"
);
},
{
closed = 1;
nodes = (
"417 394 LINE",
"417 427 LINE",
"266 427 LINE SMOOTH",
"233 427 OFFCURVE",
"220 438 OFFCURVE",
"220 474 CURVE SMOOTH",
"220 589 LINE",
"157 589 LINE",
"157 626 LINE",
"396 626 LINE SMOOTH",
"444 626 OFFCURVE",
"463 611 OFFCURVE",
"463 559 CURVE SMOOTH",
"463 394 LINE"
);
},
{
closed = 1;
nodes = (
"126 276 LINE",
"126 239 LINE",
"-6 239 LINE",
"-6 276 LINE"
);
},
{
closed = 1;
nodes = (
"22 207 OFFCURVE",
"30 229 OFFCURVE",
"50 240 CURVE",
"60 255 OFFCURVE",
"60 276 OFFCURVE",
"78 276 CURVE SMOOTH",
"203 276 LINE",
"203 352 LINE",
"203 374 OFFCURVE",
"191 381 OFFCURVE",
"169 381 CURVE SMOOTH",
"23 381 LINE",
"23 419 LINE",
"182 419 LINE SMOOTH",
"224 419 OFFCURVE",
"245 400 OFFCURVE",
"245 362 CURVE SMOOTH",
"245 239 LINE",
"131 239 LINE SMOOTH",
"80 239 OFFCURVE",
"68 208 OFFCURVE",
"68 175 CURVE SMOOTH",
"68 63 LINE SMOOTH",
"68 47 OFFCURVE",
"74 40 OFFCURVE",
"88 40 CURVE SMOOTH",
"182 40 LINE SMOOTH",
"205 40 OFFCURVE",
"221 47 OFFCURVE",
"221 83 CURVE SMOOTH",
"221 148 LINE",
"264 148 LINE",
"264 84 LINE SMOOTH",
"264 47 OFFCURVE",
"280 40 OFFCURVE",
"304 40 CURVE SMOOTH",
"390 40 LINE SMOOTH",
"411 40 OFFCURVE",
"417 49 OFFCURVE",
"417 69 CURVE SMOOTH",
"417 410 LINE",
"462 410 LINE",
"462 50 LINE SMOOTH",
"462 20 OFFCURVE",
"449 0 OFFCURVE",
"415 0 CURVE SMOOTH",
"291 0 LINE SMOOTH",
"265 0 OFFCURVE",
"247 9 OFFCURVE",
"242 29 CURVE",
"238 10 OFFCURVE",
"218 0 OFFCURVE",
"195 0 CURVE SMOOTH",
"69.998 0 LINE SMOOTH",
"33 0 OFFCURVE",
"22 16 OFFCURVE",
"22 54 CURVE SMOOTH",
"22 186 LINE SMOOTH"
);
}
);
width = 513;
}
);
unicode = 0DAA;
},
{
glyphname = sinNna;
lastChange = "2021-06-12 12:56:09 +0000";
layers = (
{
layerId = "522BF62C-3FFD-47FE-9DEE-94F66EB24849";
paths = (
{
closed = 1;
nodes = (
"412.517 496.908 OFFCURVE",
"423.914 482.651 OFFCURVE",
"432.244 467.001 CURVE",
"442.796 488.558 OFFCURVE",
"457.725 497 OFFCURVE",
"486 497 CURVE SMOOTH",
"517 497 LINE SMOOTH",
"550.162 497 OFFCURVE",
"559.441 482.247 OFFCURVE",
"565.549 464.001 CURVE",
"572.969 482.983 OFFCURVE",
"586.031 497 OFFCURVE",
"623 497 CURVE SMOOTH",
"753 497 LINE SMOOTH",
"795.148 497 OFFCURVE",
"814 478.25 OFFCURVE",
"814 439 CURVE SMOOTH",
"814 64.801 LINE SMOOTH",
"814 25.57 OFFCURVE",
"797.68 0 OFFCURVE",
"741 0 CURVE SMOOTH",
"483.946 0 LINE",
"483.946 107 LINE",
"665.473 107 LINE SMOOTH",
"687.48 107 OFFCURVE",
"690.131 117.346 OFFCURVE",
"690.131 135.001 CURVE SMOOTH",
"690.131 371 LINE SMOOTH",
"690.131 391.099 OFFCURVE",
"685.106 394 OFFCURVE",
"669.183 394 CURVE SMOOTH",
"637.211 394 LINE SMOOTH",
"623.245 394 OFFCURVE",
"616.264 386.666 OFFCURVE",
"616.264 372 CURVE SMOOTH",
"616.264 181.001 LINE",
"507.116 181.001 LINE",
"507.116 369 LINE SMOOTH",
"507.116 385.666 OFFCURVE",
"499.398 394 OFFCURVE",
"483.964 394 CURVE SMOOTH",
"466.422 394 LINE SMOOTH",
"450.987 394 OFFCURVE",
"443.27 387 OFFCURVE",
"443.27 373 CURVE SMOOTH",
"443.27 75 LINE SMOOTH",
"443.27 28.761 OFFCURVE",
"424.11 0 OFFCURVE",
"370.8 0 CURVE SMOOTH",
"129 0 LINE SMOOTH",
"90.422 0 OFFCURVE",
"74.937 2.036 OFFCURVE",
"74.937 38 CURVE SMOOTH",
"74.937 46.667 OFFCURVE",
"69.057 51 OFFCURVE",
"57.295 51 CURVE",
"22.016 13.194 LINE",
"22.016 133.001 LINE",
"362.688 616 LINE",
"483.964 616 LINE",
"156.521 135.403 LINE",
"161.683 135.35 OFFCURVE",
"162.97 128.828 OFFCURVE",
"163 126 CURVE SMOOTH",
"163.08 118.554 OFFCURVE",
"162.466 107 OFFCURVE",
"183 107 CURVE SMOOTH",
"298.743 107 LINE SMOOTH",
"311.974 107 OFFCURVE",
"318.589 115.667 OFFCURVE",
"318.589 133.001 CURVE SMOOTH",
"318.589 372.204 LINE SMOOTH",
"318.589 388.995 OFFCURVE",
"308 398.204 OFFCURVE",
"294 398.204 CURVE SMOOTH",
"181.878 398.204 LINE SMOOTH",
"163.506 398.204 OFFCURVE",
"154.332 391.338 OFFCURVE",
"154.315 376.005 CURVE SMOOTH",
"154.4 260.393 LINE SMOOTH",
"154.416 241.711 OFFCURVE",
"160.329 235.792 OFFCURVE",
"178.999 235.792 CURVE SMOOTH",
"278.898 235.792 LINE",
"278.898 152.001 LINE",
"99 152.001 LINE SMOOTH",
"66.847 152.001 OFFCURVE",
"40.758 179.88 OFFCURVE",
"40.758 227 CURVE SMOOTH",
"40.758 443 LINE SMOOTH",
"40.758 483.908 OFFCURVE",
"70 497 OFFCURVE",
"101.2 497 CURVE SMOOTH",
"390.199 496.915 LINE SMOOTH"
);
}
);
width = 845;
},
{
layerId = "DC4431BF-9234-4C16-9154-22D387E42D10";
paths = (
{
closed = 1;
nodes = (
"404 497 OFFCURVE",
"418 483 OFFCURVE",
"426 467 CURVE",
"437 489 OFFCURVE",
"452 497 OFFCURVE",
"480 497 CURVE SMOOTH",
"547 497 LINE SMOOTH",
"581 497 OFFCURVE",
"591 480 OFFCURVE",
"596 464 CURVE",
"603 482 OFFCURVE",
"616 497 OFFCURVE",
"653 497 CURVE SMOOTH",
"736 497 LINE SMOOTH",
"778 497 OFFCURVE",
"797 478 OFFCURVE",
"797 439 CURVE SMOOTH",
"797 65 LINE SMOOTH",
"797 26 OFFCURVE",
"781 0 OFFCURVE",
"724 0 CURVE SMOOTH",
"484 0 LINE",
"484 40 LINE",
"727 40 LINE SMOOTH",
"749 40 OFFCURVE",
"751 50 OFFCURVE",
"751 68 CURVE SMOOTH",
"751 417 LINE SMOOTH",
"751 444 OFFCURVE",
"746 458 OFFCURVE",
"720 458 CURVE SMOOTH",
"658 458 LINE SMOOTH",
"637 458 OFFCURVE",
"618 436 OFFCURVE",
"618 401 CURVE SMOOTH",
"618 181 LINE",
"572 181 LINE",
"572 401 LINE SMOOTH",
"572 436 OFFCURVE",
"562 458 OFFCURVE",
"536 458 CURVE SMOOTH",
"482 458 LINE SMOOTH",
"458 458 OFFCURVE",
"443 435 OFFCURVE",
"443 406 CURVE SMOOTH",
"443 75 LINE SMOOTH",
"443 29 OFFCURVE",
"424 0 OFFCURVE",
"371 0 CURVE SMOOTH",
"127 0 LINE SMOOTH",
"93 0 OFFCURVE",
"88 33 OFFCURVE",
"88 78 CURVE SMOOTH",
"88 111 OFFCURVE",
"76 111 OFFCURVE",
"67 111 CURVE",
"22 60 LINE",
"22 115 LINE",
"401 616 LINE",
"452 616 LINE",
"100 147 LINE",
"113 146 OFFCURVE",
"128 135 OFFCURVE",
"128 98 CURVE SMOOTH",
"128 61 OFFCURVE",
"128 40 OFFCURVE",
"154 40 CURVE SMOOTH",
"360 40 LINE SMOOTH",
"384 40 OFFCURVE",
"397 52 OFFCURVE",
"397 85 CURVE SMOOTH",
"397 406 LINE SMOOTH",
"397 423 OFFCURVE",
"387 458 OFFCURVE",
"353 458 CURVE SMOOTH",
"134 458 LINE SMOOTH",
"111 458 OFFCURVE",
"102 447 OFFCURVE",
"102 429 CURVE SMOOTH",
"102 292 LINE SMOOTH",
"102 262 OFFCURVE",
"107 242 OFFCURVE",
"136 242 CURVE SMOOTH",
"279 242 LINE",
"279 204 LINE",
"116 204 LINE SMOOTH",
"83 204 OFFCURVE",
"57 232 OFFCURVE",
"57 279 CURVE SMOOTH",
"57 443 LINE SMOOTH",
"57 484 OFFCURVE",
"87 497 OFFCURVE",
"118 497 CURVE SMOOTH",
"378 497 LINE SMOOTH"
);
}
);
width = 845;
}
);
unicode = 0DAB;
},
{
glyphname = sinNndda;
lastChange = "2021-06-12 12:56:09 +0000";
layers = (
{
components = (
{
name = sinDda;
transform = "{1, 0, 0, 1, 184.8, 0}";
}
);
layerId = "522BF62C-3FFD-47FE-9DEE-94F66EB24849";
paths = (
{
closed = 1;
nodes = (
"146.598 384.001 OFFCURVE",
"140.001 378 OFFCURVE",
"140.001 360 CURVE SMOOTH",
"140.001 0 LINE",
"22 0 LINE",
"22 379.001 LINE SMOOTH",
"22 432.609 OFFCURVE",
"56.247 470.001 OFFCURVE",
"108.4 470.001 CURVE SMOOTH",
"255.002 470 LINE",
"214 384 LINE",
"158.998 384.001 LINE SMOOTH"
);
}
);
width = 700;
},
{
components = (
{
alignment = -1;
name = sinDda;
transform = "{1, 0, 0, 1, 182, 0}";
}
);
layerId = "DC4431BF-9234-4C16-9154-22D387E42D10";
paths = (
{
closed = 1;
nodes = (
"84 457 OFFCURVE",
"67 445 OFFCURVE",
"67 407 CURVE SMOOTH",
"67 0 LINE",
"22 0 LINE",
"22 420 LINE SMOOTH",
"22 472 OFFCURVE",
"59 494 OFFCURVE",
"106 494 CURVE SMOOTH",
"279 494 LINE",
"212 457 LINE",
"121 457 LINE SMOOTH"
);
}
);
width = 697;
}
);
unicode = 0DAC;
},
{
glyphname = sinTa;
lastChange = "2021-06-12 12:56:09 +0000";
layers = (
{
layerId = "522BF62C-3FFD-47FE-9DEE-94F66EB24849";
paths = (
{
closed = 1;
nodes = (
"263.6 255.465 OFFCURVE",
"258.6 261.8 OFFCURVE",
"248.6 261.8 CURVE SMOOTH",
"145 261.8 LINE",
"115.399 235.8 LINE",
"156.196 235.8 LINE",
"156.399 221.8 LINE",
"150.914 218.023 OFFCURVE",
"144.399 204.754 OFFCURVE",
"144.399 180.603 CURVE SMOOTH",
"144.399 126.8 LINE SMOOTH",
"144.399 109.466 OFFCURVE",
"147.06 106.8 OFFCURVE",
"158.399 106.8 CURVE SMOOTH",
"250.6 106.8 LINE SMOOTH",
"260.805 106.8 OFFCURVE",
"263.6 111.603 OFFCURVE",
"263.6 129.602 CURVE SMOOTH",
"263.6 242.8 LINE SMOOTH"
);
},
{
closed = 1;
nodes = (
"240.008 475.8 LINE SMOOTH",
"262.183 494.689 OFFCURVE",
"279.213 496.8 OFFCURVE",
"303.408 496.8 CURVE SMOOTH",
"503 497 LINE SMOOTH",
"539.827 497 OFFCURVE",
"561.608 475.843 OFFCURVE",
"561.608 444 CURVE SMOOTH",
"561.608 49 LINE SMOOTH",
"561.608 13.204 OFFCURVE",
"537.075 0 OFFCURVE",
"507.6 0 CURVE SMOOTH",
"401.6 0 LINE",
"401.6 107 LINE",
"423 107 LINE SMOOTH",
"432.333 107 OFFCURVE",
"437 112.667 OFFCURVE",
"437 124 CURVE SMOOTH",
"437 376.001 LINE SMOOTH",
"437 388.001 OFFCURVE",
"429.933 394.001 OFFCURVE",
"416.6 394.001 CURVE SMOOTH",
"313.408 393.8 LINE SMOOTH",
"298.741 393.8 OFFCURVE",
"293.372 391.342 OFFCURVE",
"281.208 380.8 CURVE SMOOTH",
"251.407 354.8 LINE",
"331.4 354.8 LINE SMOOTH",
"363.213 354.8 OFFCURVE",
"384.4 337.495 OFFCURVE",
"384.4 297.8 CURVE SMOOTH",
"384.4 50.8 LINE SMOOTH",
"384.4 14.754 OFFCURVE",
"361.045 -0.2 OFFCURVE",
"331.4 -0.2 CURVE SMOOTH",
"65.996 -0.2 LINE SMOOTH",
"34.133 -0.2 OFFCURVE",
"22 19.616 OFFCURVE",
"22 49.801 CURVE SMOOTH",
"22 140 LINE SMOOTH",
"22 180.795 OFFCURVE",
"34.273 195.065 OFFCURVE",
"48 202.801 CURVE",
"11.997 202.801 LINE",
"11.997 276.196 LINE",
"130.608 380.2 LINE",
"130.608 381.798 LINE SMOOTH",
"130.608 391.027 OFFCURVE",
"119.919 393.771 OFFCURVE",
"107.012 393.801 CURVE SMOOTH",
"22 394 LINE",
"22 497 LINE",
"185.409 496.8 LINE SMOOTH",
"217.092 496.762 OFFCURVE",
"221.005 469.59 OFFCURVE",
"221.005 461.397 CURVE SMOOTH",
"221.005 459.197 LINE"
);
}
);
width = 592;
},
{
layerId = "DC4431BF-9234-4C16-9154-22D387E42D10";
paths = (
{
closed = 1;
nodes = (
"313 320 OFFCURVE",
"304 326 OFFCURVE",
"289 326 CURVE SMOOTH",
"161 326 LINE",
"76 254 LINE",
"104 254 LINE",
"104 228 LINE",
"73 210 OFFCURVE",
"68 194 OFFCURVE",
"68 149 CURVE SMOOTH",
"68 63 LINE SMOOTH",
"68 46 OFFCURVE",
"73 39 OFFCURVE",
"87 39 CURVE SMOOTH",
"289 39 LINE SMOOTH",
"309 39 OFFCURVE",
"313 53 OFFCURVE",
"313 71 CURVE SMOOTH",
"313 301 LINE SMOOTH"
);
},
{
closed = 1;
nodes = (
"271 472 LINE SMOOTH",
"294 492 OFFCURVE",
"317 497 OFFCURVE",
"336 497 CURVE SMOOTH",
"484 497 LINE SMOOTH",
"519 497 OFFCURVE",
"540 474 OFFCURVE",
"540 441 CURVE SMOOTH",
"540 54 LINE SMOOTH",
"540 19 OFFCURVE",
"517 0 OFFCURVE",
"488 0 CURVE SMOOTH",
"387 0 LINE",
"387 39 LINE",
"470 39 LINE SMOOTH",
"486 39 OFFCURVE",
"495 51 OFFCURVE",
"495 69 CURVE SMOOTH",
"495 426 LINE SMOOTH",
"495 446 OFFCURVE",
"485 458 OFFCURVE",
"463 458 CURVE SMOOTH",
"352 458 LINE SMOOTH",
"326 458 OFFCURVE",
"310 451 OFFCURVE",
"291 435 CURVE SMOOTH",
"206 364 LINE",
"311 364 LINE SMOOTH",
"337 364 OFFCURVE",
"359 349 OFFCURVE",
"359 314 CURVE SMOOTH",
"359 53 LINE SMOOTH",
"359 19 OFFCURVE",
"335 0 OFFCURVE",
"307 0 CURVE SMOOTH",
"67 0 LINE SMOOTH",
"38 0 OFFCURVE",
"22 20 OFFCURVE",
"22 46 CURVE SMOOTH",
"22 154 LINE SMOOTH",
"22 197 OFFCURVE",
"30 214 OFFCURVE",
"45 223 CURVE",
"12 223 LINE",
"12 255 LINE",
"154 375 LINE",
"154 425 LINE SMOOTH",
"154 448 OFFCURVE",
"148 458 OFFCURVE",
"126 458 CURVE SMOOTH",
"36 458 LINE",
"36 497 LINE",
"151 497 LINE SMOOTH",
"180 497 OFFCURVE",
"196 477 OFFCURVE",
"196 443 CURVE SMOOTH",
"196 410 LINE"
);
}
);
width = 592;
}
);
unicode = 0DAD;
},
{
glyphname = sinTha;
lastChange = "2021-06-12 12:56:09 +0000";
layers = (
{
layerId = "522BF62C-3FFD-47FE-9DEE-94F66EB24849";
paths = (
{
closed = 1;
nodes = (
"293.203 514.6 LINE SMOOTH",
"293.203 496.191 OFFCURVE",
"300.605 496.015 OFFCURVE",
"314.986 496.015 CURVE SMOOTH",
"358.199 496.015 LINE",
"358.2 522 LINE SMOOTH",
"358.2 529.711 OFFCURVE",
"356.312 538 OFFCURVE",
"346 538 CURVE SMOOTH",
"293.203 538 LINE"
);
},
{
closed = 1;
nodes = (
"360.199 394 LINE",
"360.199 427.015 LINE",
"228.986 427.015 LINE SMOOTH",
"195.694 427.015 OFFCURVE",
"183.203 437.986 OFFCURVE",
"183.203 474.4 CURVE SMOOTH",
"183.203 539 LINE",
"137.809 539 LINE",
"137.809 626 LINE",
"419 626 LINE SMOOTH",
"466.56 626 OFFCURVE",
"485.001 610.567 OFFCURVE",
"485.001 559 CURVE SMOOTH",
"485.001 394 LINE"
);
},
{
closed = 1;
nodes = (
"167 287.399 LINE SMOOTH",
"153 287.399 OFFCURVE",
"146 281.066 OFFCURVE",
"146 268.399 CURVE SMOOTH",
"146 129 LINE SMOOTH",
"146 114.333 OFFCURVE",
"152 107 OFFCURVE",
"164 107 CURVE SMOOTH",
"342.199 107 LINE SMOOTH",
"354.199 107 OFFCURVE",
"360.199 114.333 OFFCURVE",
"360.199 129 CURVE SMOOTH",
"360.199 415 LINE",
"485 415 LINE",
"485 54 LINE SMOOTH",
"485 16.27 OFFCURVE",
"472.075 0 OFFCURVE",
"435 0 CURVE SMOOTH",
"72 0 LINE SMOOTH",
"34.928 0 OFFCURVE",
"22 16.273 OFFCURVE",
"22 54 CURVE SMOOTH",
"22 339.001 LINE SMOOTH",
"22 375.668 OFFCURVE",
"40.667 394.001 OFFCURVE",
"78 394.001 CURVE SMOOTH",
"253.998 394.001 LINE",
"254 287.399 LINE"
);
}
);
width = 515;
},
{
layerId = "DC4431BF-9234-4C16-9154-22D387E42D10";
paths = (
{
closed = 1;
nodes = (
"266 485 LINE SMOOTH",
"266 464 OFFCURVE",
"272 463 OFFCURVE",
"288 463 CURVE SMOOTH",
"417 463 LINE",
"417 554 LINE SMOOTH",
"417 578 OFFCURVE",
"412 588 OFFCURVE",
"383 588 CURVE SMOOTH",
"266 588 LINE"
);
},
{
closed = 1;
nodes = (
"418 394 LINE",
"418 427 LINE",
"267 427 LINE SMOOTH",
"234 427 OFFCURVE",
"221 438 OFFCURVE",
"221 474 CURVE SMOOTH",
"221 589 LINE",
"157 589 LINE",
"157 626 LINE",
"397 626 LINE SMOOTH",
"445 626 OFFCURVE",
"463 611 OFFCURVE",
"463 559 CURVE SMOOTH",
"463 394 LINE"
);
},
{
closed = 1;
nodes = (
"95 355 LINE SMOOTH",
"79 355 OFFCURVE",
"68 348 OFFCURVE",
"68 327 CURVE SMOOTH",
"68 65 LINE SMOOTH",
"68 50 OFFCURVE",
"70 40 OFFCURVE",
"87 40 CURVE SMOOTH",
"396 40 LINE SMOOTH",
"411 40 OFFCURVE",
"418 48 OFFCURVE",
"418 68 CURVE SMOOTH",
"418 415 LINE",
"463 415 LINE",
"463 54 LINE SMOOTH",
"463 16 OFFCURVE",
"449 0 OFFCURVE",
"412 0 CURVE SMOOTH",
"72 0 LINE SMOOTH",
"35 0 OFFCURVE",
"22 16 OFFCURVE",
"22 54 CURVE SMOOTH",
"22 339 LINE SMOOTH",
"22 376 OFFCURVE",
"41 394 OFFCURVE",
"78 394 CURVE SMOOTH",
"203 394 LINE",
"203 355 LINE"
);
}
);
width = 512;
}
);
unicode = 0DAE;
},
{
glyphname = sinDa;
lastChange = "2021-06-12 12:56:09 +0000";
layers = (
{
layerId = "522BF62C-3FFD-47FE-9DEE-94F66EB24849";
paths = (
{
closed = 1;
nodes = (
"269 0 LINE SMOOTH",
"247.859 0 OFFCURVE",
"238 -10.011 OFFCURVE",
"238 -30 CURVE SMOOTH",
"238 -46 LINE SMOOTH",
"238 -59.138 OFFCURVE",
"246.031 -64 OFFCURVE",
"259 -64 CURVE SMOOTH",
"452 -64 LINE",
"452 -171 LINE",
"161 -171 LINE SMOOTH",
"132.813 -171 OFFCURVE",
"109 -159.622 OFFCURVE",
"109 -126 CURVE SMOOTH",
"109 -56 LINE SMOOTH",
"109 -22.203 OFFCURVE",
"114.8 -9.378 OFFCURVE",
"138 0 CURVE",
"66 0 LINE SMOOTH",
"32.307 0 OFFCURVE",
"22 17.926 OFFCURVE",
"22 49.6 CURVE SMOOTH",
"22 298 LINE SMOOTH",
"22 338.657 OFFCURVE",
"43.106 355 OFFCURVE",
"80 355 CURVE SMOOTH",
"301 355 LINE",
"300.999 378 LINE SMOOTH",
"300.998 391.308 OFFCURVE",
"296.338 394.001 OFFCURVE",
"287.005 394.001 CURVE SMOOTH",
"22 394.001 LINE",
"22 497.001 LINE",
"372 497 LINE SMOOTH",
"405.565 497 OFFCURVE",
"425 480.913 OFFCURVE",
"425 444 CURVE SMOOTH",
"425 253.001 LINE",
"168 253 LINE SMOOTH",
"151.333 253 OFFCURVE",
"146 245.668 OFFCURVE",
"146 231.001 CURVE SMOOTH",
"146 133.001 LINE SMOOTH",
"146 113.159 OFFCURVE",
"151.048 107 OFFCURVE",
"166.2 107 CURVE SMOOTH",
"429 107 LINE",
"429 0 LINE"
);
}
);
width = 460;
},
{
layerId = "DC4431BF-9234-4C16-9154-22D387E42D10";
paths = (
{
closed = 1;
nodes = (
"218 0 LINE SMOOTH",
"186 0 OFFCURVE",
"155 -16 OFFCURVE",
"155 -50 CURVE SMOOTH",
"155 -111 LINE SMOOTH",
"155 -130 OFFCURVE",
"166 -132 OFFCURVE",
"179 -132 CURVE SMOOTH",
"433 -132 LINE",
"433 -171 LINE",
"161 -171 LINE SMOOTH",
"133 -171 OFFCURVE",
"109 -160 OFFCURVE",
"109 -126 CURVE SMOOTH",
"109 -49 LINE SMOOTH",
"109 -29 OFFCURVE",
"116 -11 OFFCURVE",
"138 0 CURVE",
"66 0 LINE SMOOTH",
"32 0 OFFCURVE",
"22 18 OFFCURVE",
"22 50 CURVE SMOOTH",
"22 296 LINE SMOOTH",
"22 337 OFFCURVE",
"43 353 OFFCURVE",
"80 353 CURVE SMOOTH",
"360 353 LINE",
"360 430 LINE SMOOTH",
"360 451 OFFCURVE",
"352 458 OFFCURVE",
"335 458 CURVE SMOOTH",
"22 458 LINE",
"22 497.001 LINE",
"353 497 LINE SMOOTH",
"387 497 OFFCURVE",
"406 481 OFFCURVE",
"406 444 CURVE SMOOTH",
"406 314 LINE",
"99 314 LINE SMOOTH",
"75 314 OFFCURVE",
"68 305 OFFCURVE",
"68 284 CURVE SMOOTH",
"68 66 LINE SMOOTH",
"68 46 OFFCURVE",
"75 40 OFFCURVE",
"91 40 CURVE SMOOTH",
"410 40 LINE",
"410 0 LINE"
);
}
);
width = 460;
}
);
unicode = 0DAF;
},
{
glyphname = sinDha;
lastChange = "2021-06-12 12:56:09 +0000";
layers = (
{
layerId = "522BF62C-3FFD-47FE-9DEE-94F66EB24849";
paths = (
{
closed = 1;
nodes = (
"156 362.4 LINE SMOOTH",
"149.064 362.4 OFFCURVE",
"146.004 358.692 OFFCURVE",
"146.004 352.6 CURVE SMOOTH",
"146.004 126 LINE SMOOTH",
"146.004 113.333 OFFCURVE",
"152.337 107 OFFCURVE",
"165.004 107 CURVE SMOOTH",
"181.803 107 LINE SMOOTH",
"196.469 107 OFFCURVE",
"203.803 115.333 OFFCURVE",
"203.803 132 CURVE SMOOTH",
"203.803 244.796 LINE",
"303.398 244.796 LINE",
"303.398 134 LINE SMOOTH",
"303.398 116 OFFCURVE",
"311.064 107 OFFCURVE",
"326.398 107 CURVE SMOOTH",
"343.997 107 LINE SMOOTH",
"355.33 107 OFFCURVE",
"360.997 114 OFFCURVE",
"360.997 128 CURVE SMOOTH",
"360.997 479 LINE SMOOTH",
"360.997 503.852 OFFCURVE",
"353.884 510 OFFCURVE",
"330 510 CURVE SMOOTH",
"22 510 LINE",
"22 626 LINE",
"412 626 LINE SMOOTH",
"454.309 626 OFFCURVE",
"484.998 609.264 OFFCURVE",
"484.998 560 CURVE SMOOTH",
"484.998 50 LINE SMOOTH",
"484.998 19.638 OFFCURVE",
"471.396 0 OFFCURVE",
"438 0 CURVE SMOOTH",
"301.803 0 LINE SMOOTH",
"275.803 0 OFFCURVE",
"259.469 12.333 OFFCURVE",
"252.803 37 CURVE",
"249.629 16.378 OFFCURVE",
"229.072 0 OFFCURVE",
"205.803 0 CURVE SMOOTH",
"69 0 LINE SMOOTH",
"37.61 0 OFFCURVE",
"22 15.018 OFFCURVE",
"22 48 CURVE SMOOTH",
"22 405.001 LINE SMOOTH",
"22 443.556 OFFCURVE",
"40.021 470.001 OFFCURVE",
"81 470.001 CURVE SMOOTH",
"259.197 470.001 LINE",
"259.198 362.4 LINE"
);
}
);
width = 515;
},
{
layerId = "DC4431BF-9234-4C16-9154-22D387E42D10";
paths = (
{
closed = 1;
nodes = (
"99 455 LINE SMOOTH",
"75 455 OFFCURVE",
"68 441 OFFCURVE",
"68 421 CURVE SMOOTH",
"68 65 LINE SMOOTH",
"68 49 OFFCURVE",
"72 40 OFFCURVE",
"90 40 CURVE SMOOTH",
"177 40 LINE SMOOTH",
"213 40 OFFCURVE",
"220 70 OFFCURVE",
"220 104 CURVE SMOOTH",
"220 245 LINE",
"264 245 LINE",
"264 104 LINE SMOOTH",
"264 71 OFFCURVE",
"273 40 OFFCURVE",
"312 40 CURVE SMOOTH",
"396 40 LINE SMOOTH",
"413 40 OFFCURVE",
"417 51 OFFCURVE",
"417 67 CURVE SMOOTH",
"417 547 LINE SMOOTH",
"417 579 OFFCURVE",
"403 586 OFFCURVE",
"375 586 CURVE SMOOTH",
"22 586 LINE",
"22 626 LINE",
"390 626 LINE SMOOTH",
"433 626 OFFCURVE",
"463 609 OFFCURVE",
"463 560 CURVE SMOOTH",
"463 50 LINE SMOOTH",
"463 20 OFFCURVE",
"450 0 OFFCURVE",
"416 0 CURVE SMOOTH",
"290.992 0 LINE SMOOTH",
"264.992 0 OFFCURVE",
"249 12 OFFCURVE",
"241.992 37 CURVE",
"239 16 OFFCURVE",
"218 0 OFFCURVE",
"194.992 0 CURVE SMOOTH",
"69 0 LINE SMOOTH",
"38 0 OFFCURVE",
"22 15 OFFCURVE",
"22 48 CURVE SMOOTH",
"22 429 LINE SMOOTH",
"22 468 OFFCURVE",
"40 494 OFFCURVE",
"81 494 CURVE SMOOTH",
"248 494 LINE",
"248 455 LINE"
);
}
);
width = 515;
}
);
unicode = 0DB0;
},
{
glyphname = sinNa;
lastChange = "2021-06-12 12:56:09 +0000";
layers = (
{
layerId = "522BF62C-3FFD-47FE-9DEE-94F66EB24849";
paths = (
{
closed = 1;
nodes = (
"176 311 LINE",
"176 373.5 LINE SMOOTH",
"176 387.167 OFFCURVE",
"168.333 394 OFFCURVE",
"153 394 CURVE SMOOTH",
"22 394 LINE",
"22 497 LINE",
"195 497 LINE SMOOTH",
"238.332 497 OFFCURVE",
"266 474.113 OFFCURVE",
"266 431 CURVE SMOOTH",
"266 418 LINE"
);
},
{
closed = 1;
nodes = (
"292 314.56 LINE",
"336.414 314.5 LINE SMOOTH",
"371 314 OFFCURVE",
"384.414 299.698 OFFCURVE",
"384.414 266.572 CURVE SMOOTH",
"384.414 60 LINE SMOOTH",
"384.414 12.607 OFFCURVE",
"365.014 0 OFFCURVE",
"317.414 0 CURVE SMOOTH",
"70 0 LINE SMOOTH",
"33.361 0 OFFCURVE",
"22 14.052 OFFCURVE",
"22 51 CURVE SMOOTH",
"22 341.25 LINE",
"136.5 341.25 LINE",
"136.5 278.799 LINE",
"145 171 LINE",
"144.5 125.25 LINE SMOOTH",
"144 111 OFFCURVE",
"147.676 107 OFFCURVE",
"161.5 107 CURVE SMOOTH",
"243.414 107 LINE SMOOTH",
"263.123 107 OFFCURVE",
"263.414 111.54 OFFCURVE",
"263.414 132 CURVE SMOOTH",
"263.414 203 LINE SMOOTH",
"263.414 216.333 OFFCURVE",
"258.414 223 OFFCURVE",
"248.414 223 CURVE SMOOTH",
"212 223 LINE"
);
},
{
closed = 1;
nodes = (
"163 165 OFFCURVE",
"157 161 OFFCURVE",
"150 161 CURVE SMOOTH",
"141 161 OFFCURVE",
"131 164 OFFCURVE",
"130 168 CURVE",
"130 298 LINE",
"132 296 OFFCURVE",
"139.318 295.396 OFFCURVE",
"140.75 295.396 CURVE SMOOTH",
"143.446 295.396 OFFCURVE",
"146 297 OFFCURVE",
"149 300.397 CURVE SMOOTH",
"276 454 LINE SMOOTH",
"298 481 OFFCURVE",
"314.072 497 OFFCURVE",
"357.25 497 CURVE SMOOTH",
"494.6 497 LINE SMOOTH",
"540.823 497 OFFCURVE",
"561.6 479.952 OFFCURVE",
"561.6 434 CURVE SMOOTH",
"561.6 64 LINE SMOOTH",
"561.6 15.29 OFFCURVE",
"547.733 0 OFFCURVE",
"498.6 0 CURVE SMOOTH",
"401.6 0 LINE",
"401.6 107 LINE",
"414.999 107 LINE SMOOTH",
"435.64 107 OFFCURVE",
"436.999 112.033 OFFCURVE",
"436.999 133 CURVE SMOOTH",
"436.999 372 LINE SMOOTH",
"436.999 384 OFFCURVE",
"430.999 390 OFFCURVE",
"418.999 390 CURVE SMOOTH",
"385 390 LINE SMOOTH",
"376.333 390 OFFCURVE",
"367 384 OFFCURVE",
"357 373 CURVE SMOOTH",
"170 173 LINE SMOOTH"
);
}
);
width = 591;
},
{
layerId = "DC4431BF-9234-4C16-9154-22D387E42D10";
paths = (
{
closed = 1;
nodes = (
"178 316 LINE",
"178 426 LINE SMOOTH",
"178 451 OFFCURVE",
"168 458 OFFCURVE",
"147 458 CURVE SMOOTH",
"22 458 LINE",
"22 497 LINE",
"160 497 LINE SMOOTH",
"203 497 OFFCURVE",
"218 481 OFFCURVE",
"218 438 CURVE SMOOTH",
"218 366 LINE"
);
},
{
closed = 1;
nodes = (
"218 323 LINE",
"311 323 LINE SMOOTH",
"346 323 OFFCURVE",
"359 308 OFFCURVE",
"359 275 CURVE SMOOTH",
"359 60 LINE SMOOTH",
"359 13 OFFCURVE",
"339 0 OFFCURVE",
"292 0 CURVE SMOOTH",
"70 0 LINE SMOOTH",
"33 0 OFFCURVE",
"22 14 OFFCURVE",
"22 51 CURVE SMOOTH",
"22 341 LINE",
"67 341 LINE",
"67 220 LINE",
"67 192 LINE",
"67 63 LINE SMOOTH",
"67 46 OFFCURVE",
"71 40 OFFCURVE",
"90 40 CURVE SMOOTH",
"282 40 LINE SMOOTH",
"309 40 OFFCURVE",
"313 48 OFFCURVE",
"313 73 CURVE SMOOTH",
"313 261 LINE SMOOTH",
"313 279 OFFCURVE",
"304 285 OFFCURVE",
"289 285 CURVE SMOOTH",
"185 285 LINE"
);
},
{
closed = 1;
nodes = (
"96 179 OFFCURVE",
"87 175 OFFCURVE",
"80 175 CURVE SMOOTH",
"72 175 OFFCURVE",
"66 178 OFFCURVE",
"63 181 CURVE",
"63 231 LINE",
"65 229 OFFCURVE",
"70 225 OFFCURVE",
"75 225 CURVE SMOOTH",
"83 225 OFFCURVE",
"87 230 OFFCURVE",
"92 236 CURVE SMOOTH",
"271 441 LINE SMOOTH",
"293 467 OFFCURVE",
"317 497 OFFCURVE",
"355 497 CURVE SMOOTH",
"473 497 LINE SMOOTH",
"520 497 OFFCURVE",
"540 480 OFFCURVE",
"540 434 CURVE SMOOTH",
"540 67 LINE SMOOTH",
"540 18 OFFCURVE",
"526 0 OFFCURVE",
"477 0 CURVE SMOOTH",
"388 0 LINE",
"388 40 LINE",
"465 40 LINE SMOOTH",
"493 40 OFFCURVE",
"495 54 OFFCURVE",
"495 77 CURVE SMOOTH",
"495 424 LINE SMOOTH",
"495 447 OFFCURVE",
"485 458 OFFCURVE",
"460 458 CURVE SMOOTH",
"380 458 LINE SMOOTH",
"348 458 OFFCURVE",
"335 452 OFFCURVE",
"315 429 CURVE SMOOTH",
"106 190 LINE SMOOTH"
);
}
);
width = 591;
}
);
unicode = 0DB1;
},
{
glyphname = sinNda;
lastChange = "2021-06-12 12:56:09 +0000";
layers = (
{
components = (
{
name = sinDa;
transform = "{1, 0, 0, 1, 164, 0}";
}
);
layerId = "522BF62C-3FFD-47FE-9DEE-94F66EB24849";
paths = (
{
closed = 1;
nodes = (
"146.598 406 OFFCURVE",
"140.001 399.999 OFFCURVE",
"140.001 381.999 CURVE SMOOTH",
"140.001 0 LINE",
"22 0 LINE",
"22 405.999 LINE SMOOTH",
"22 459.543 OFFCURVE",
"56.247 496.999 OFFCURVE",
"108.4 496.999 CURVE SMOOTH",
"255.002 496.998 LINE",
"202.001 405.999 LINE",
"158.998 406 LINE SMOOTH"
);
}
);
width = 624;
},
{
components = (
{
alignment = -1;
name = sinDa;
transform = "{1, 0, 0, 1, 169, 0}";
}
);
layerId = "DC4431BF-9234-4C16-9154-22D387E42D10";
paths = (
{
closed = 1;
nodes = (
"84 459 OFFCURVE",
"67 448 OFFCURVE",
"67 409 CURVE SMOOTH",
"67 0 LINE",
"22 0 LINE",
"22 422 LINE SMOOTH",
"22 474 OFFCURVE",
"59 497 OFFCURVE",
"106 497 CURVE SMOOTH",
"279 497 LINE",
"211 459 LINE",
"121 459 LINE SMOOTH"
);
}
);
width = 620;
}
);
unicode = 0DB3;
},
{
glyphname = sinPa;
lastChange = "2021-06-12 12:56:09 +0000";
layers = (
{
layerId = "522BF62C-3FFD-47FE-9DEE-94F66EB24849";
paths = (
{
closed = 1;
nodes = (
"22 300 LINE SMOOTH",
"22 337.333 OFFCURVE",
"40.667 356 OFFCURVE",
"78 356 CURVE SMOOTH",
"144 356 LINE",
"144 380 LINE SMOOTH",
"144 389 OFFCURVE",
"138.667 394 OFFCURVE",
"128 394 CURVE SMOOTH",
"23 394 LINE",
"23 497 LINE",
"168 497 LINE SMOOTH",
"206.656 497 OFFCURVE",
"240 480.761 OFFCURVE",
"240 443 CURVE SMOOTH",
"240 253 LINE",
"167 253 LINE SMOOTH",
"156 253 OFFCURVE",
"146 246.667 OFFCURVE",
"146 234 CURVE SMOOTH",
"146 129 LINE SMOOTH",
"146 114.333 OFFCURVE",
"152 107 OFFCURVE",
"164 107 CURVE",
"343 107 LINE",
"355 107 OFFCURVE",
"361 114.333 OFFCURVE",
"361 129 CURVE SMOOTH",
"361 234 LINE SMOOTH",
"361 246.667 OFFCURVE",
"354 253 OFFCURVE",
"340 253 CURVE SMOOTH",
"267 253 LINE",
"267 443 LINE SMOOTH",
"267 480.766 OFFCURVE",
"300.331 497 OFFCURVE",
"339 497 CURVE SMOOTH",
"484 497 LINE",
"484 394 LINE",
"379 394 LINE SMOOTH",
"368.333 394 OFFCURVE",
"363 389.333 OFFCURVE",
"363 380 CURVE SMOOTH",
"363 356 LINE",
"429 356 LINE SMOOTH",
"466.333 356 OFFCURVE",
"485 337.333 OFFCURVE",
"485 300 CURVE SMOOTH",
"485 54 LINE SMOOTH",
"485 16.273 OFFCURVE",
"472.072 0 OFFCURVE",
"435 0 CURVE SMOOTH",
"314 0 OFFCURVE",
"193 0 OFFCURVE",
"72 0 CURVE SMOOTH",
"35 0 OFFCURVE",
"22 16.27 OFFCURVE",
"22 54 CURVE SMOOTH"
);
}
);
width = 513;
},
{
layerId = "DC4431BF-9234-4C16-9154-22D387E42D10";
paths = (
{
closed = 1;
nodes = (
"22 298 LINE SMOOTH",
"22 335 OFFCURVE",
"41 353 OFFCURVE",
"78 353 CURVE SMOOTH",
"177 353 LINE",
"177 426 LINE SMOOTH",
"177 449 OFFCURVE",
"168 458 OFFCURVE",
"143 458 CURVE SMOOTH",
"23 458 LINE",
"23 497 LINE",
"157 497 LINE SMOOTH",
"198 497 OFFCURVE",
"220 478 OFFCURVE",
"220 440 CURVE SMOOTH",
"220 314 LINE",
"98 314 LINE SMOOTH",
"78 314 OFFCURVE",
"68 307 OFFCURVE",
"68 284 CURVE SMOOTH",
"68 69 LINE SMOOTH",
"68 50 OFFCURVE",
"73 40 OFFCURVE",
"92 40 CURVE",
"393 40 LINE",
"414 40 OFFCURVE",
"418 50 OFFCURVE",
"418 69 CURVE SMOOTH",
"418 284 LINE SMOOTH",
"418 307 OFFCURVE",
"408 314 OFFCURVE",
"388 314 CURVE SMOOTH",
"265 314 LINE",
"265 440 LINE SMOOTH",
"265 478 OFFCURVE",
"287 497 OFFCURVE",
"328 497 CURVE SMOOTH",
"462 497 LINE",
"462 458 LINE",
"342 458 LINE SMOOTH",
"318 458 OFFCURVE",
"308 449 OFFCURVE",
"308 426 CURVE SMOOTH",
"308 353 LINE",
"407 353 LINE SMOOTH",
"445 353 OFFCURVE",
"463 335 OFFCURVE",
"463 298 CURVE SMOOTH",
"463 54 LINE SMOOTH",
"463 16 OFFCURVE",
"449 0 OFFCURVE",
"412 0 CURVE SMOOTH",
"399 0 OFFCURVE",
"86 0 OFFCURVE",
"74 0 CURVE SMOOTH",
"37 0 OFFCURVE",
"22 16 OFFCURVE",
"22 54 CURVE SMOOTH"
);
}
);
width = 509;
}
);
unicode = 0DB4;
},
{
glyphname = sinPha;
lastChange = "2021-06-12 12:56:09 +0000";
layers = (
{
layerId = "522BF62C-3FFD-47FE-9DEE-94F66EB24849";
paths = (
{
closed = 1;
nodes = (
"293.203 514.6 LINE SMOOTH",
"293.203 496.191 OFFCURVE",
"300.605 496.015 OFFCURVE",
"314.986 496.015 CURVE SMOOTH",
"358.199 496.015 LINE",
"358.2 522 LINE SMOOTH",
"358.2 529.711 OFFCURVE",
"356.312 538 OFFCURVE",
"346 538 CURVE SMOOTH",
"293.203 538 LINE"
);
},
{
closed = 1;
nodes = (
"361 394 LINE",
"361 427.015 LINE",
"228.986 427.015 LINE SMOOTH",
"195.694 427.015 OFFCURVE",
"183.203 437.986 OFFCURVE",
"183.203 474.4 CURVE SMOOTH",
"183.203 539 LINE",
"137.809 539 LINE",
"137.809 626 LINE",
"419 626 LINE SMOOTH",
"466.56 626 OFFCURVE",
"485.001 610.567 OFFCURVE",
"485.001 559 CURVE SMOOTH",
"485.001 394 LINE"
);
},
{
closed = 1;
nodes = (
"485 54 LINE SMOOTH",
"485 16.27 OFFCURVE",
"472.075 0 OFFCURVE",
"435 0 CURVE SMOOTH",
"72 0 LINE SMOOTH",
"34.928 0 OFFCURVE",
"22 16.273 OFFCURVE",
"22 54 CURVE SMOOTH",
"22 216.999 LINE SMOOTH",
"22 253.666 OFFCURVE",
"40.667 271.999 OFFCURVE",
"78 271.999 CURVE SMOOTH",
"144 271.999 LINE",
"144 306 LINE SMOOTH",
"144 315.333 OFFCURVE",
"138.667 320 OFFCURVE",
"128 320 CURVE SMOOTH",
"22 320 LINE",
"22 415.393 LINE",
"205 415.393 LINE SMOOTH",
"246.705 415.393 OFFCURVE",
"267.999 393.803 OFFCURVE",
"267.999 357.393 CURVE SMOOTH",
"267.999 189.797 LINE",
"167 189.797 LINE SMOOTH",
"153 189.797 OFFCURVE",
"146 183.464 OFFCURVE",
"146 170.797 CURVE SMOOTH",
"146 129 LINE SMOOTH",
"146 114.333 OFFCURVE",
"152 107 OFFCURVE",
"164 107 CURVE SMOOTH",
"343 107 LINE SMOOTH",
"355 107 OFFCURVE",
"361 114.333 OFFCURVE",
"361 129 CURVE SMOOTH",
"361 415 LINE",
"485 415 LINE"
);
}
);
width = 515;
},
{
layerId = "DC4431BF-9234-4C16-9154-22D387E42D10";
paths = (
{
closed = 1;
nodes = (
"266 485 LINE SMOOTH",
"266 464 OFFCURVE",
"272 463 OFFCURVE",
"288 463 CURVE SMOOTH",
"417 463 LINE",
"417 554 LINE SMOOTH",
"417 578 OFFCURVE",
"412 588 OFFCURVE",
"383 588 CURVE SMOOTH",
"266 588 LINE"
);
},
{
closed = 1;
nodes = (
"418 394 LINE",
"418 427 LINE",
"267 427 LINE SMOOTH",
"234 427 OFFCURVE",
"221 438 OFFCURVE",
"221 474 CURVE SMOOTH",
"221 589 LINE",
"157 589 LINE",
"157 626 LINE",
"397 626 LINE SMOOTH",
"445 626 OFFCURVE",
"463 611 OFFCURVE",
"463 559 CURVE SMOOTH",
"463 394 LINE"
);
},
{
closed = 1;
nodes = (
"463 54 LINE SMOOTH",
"463 16 OFFCURVE",
"449 0 OFFCURVE",
"412 0 CURVE SMOOTH",
"72 0 LINE SMOOTH",
"35 0 OFFCURVE",
"22 16 OFFCURVE",
"22 54 CURVE SMOOTH",
"22 236 LINE SMOOTH",
"22 273 OFFCURVE",
"41 291 OFFCURVE",
"78 291 CURVE SMOOTH",
"197 291 LINE",
"197 355 LINE SMOOTH",
"197 371 OFFCURVE",
"184 374 OFFCURVE",
"173 374 CURVE SMOOTH",
"22 374 LINE",
"22 412 LINE",
"191 412 LINE SMOOTH",
"226 412 OFFCURVE",
"243 396 OFFCURVE",
"243 360 CURVE SMOOTH",
"243 254 LINE",
"95 254 LINE SMOOTH",
"79 254 OFFCURVE",
"68 248 OFFCURVE",
"68 227 CURVE SMOOTH",
"68 65 LINE SMOOTH",
"68 50 OFFCURVE",
"70 40 OFFCURVE",
"87 40 CURVE SMOOTH",
"396 40 LINE SMOOTH",
"411 40 OFFCURVE",
"418 48 OFFCURVE",
"418 68 CURVE SMOOTH",
"418 415 LINE",
"463 415 LINE"
);
}
);
width = 514;
}
);
unicode = 0DB5;
},
{
glyphname = sinBa;
lastChange = "2021-06-12 12:56:09 +0000";
layers = (
{
layerId = "522BF62C-3FFD-47FE-9DEE-94F66EB24849";
paths = (
{
closed = 1;
nodes = (
"361 494.602 LINE SMOOTH",
"361 513 OFFCURVE",
"354 518 OFFCURVE",
"335 517.602 CURVE SMOOTH",
"22 517.602 LINE",
"22 625 LINE",
"416 625 LINE SMOOTH",
"471 625 OFFCURVE",
"485 601 OFFCURVE",
"485 544 CURVE SMOOTH",
"485 415 LINE",
"485 54 LINE SMOOTH",
"485 16 OFFCURVE",
"472 0 OFFCURVE",
"435 0 CURVE SMOOTH",
"250 0 LINE SMOOTH",
"213 0 OFFCURVE",
"198 17 OFFCURVE",
"198 54 CURVE SMOOTH",
"197 345.414 LINE SMOOTH",
"197 357 OFFCURVE",
"195 363 OFFCURVE",
"183.399 363.414 CURVE SMOOTH",
"161.999 363.414 LINE SMOOTH",
"148 363 OFFCURVE",
"146 357 OFFCURVE",
"146 344.414 CURVE SMOOTH",
"146 129 LINE SMOOTH",
"146 114 OFFCURVE",
"152 107 OFFCURVE",
"164 107 CURVE SMOOTH",
"172 107 LINE",
"172 0 LINE",
"72 0 LINE SMOOTH",
"35 0 OFFCURVE",
"22 16 OFFCURVE",
"22 54 CURVE SMOOTH",
"22 415.016 LINE SMOOTH",
"22 452 OFFCURVE",
"41 470 OFFCURVE",
"78 470.016 CURVE SMOOTH",
"256 470.016 LINE SMOOTH",
"288 470 OFFCURVE",
"311 456 OFFCURVE",
"311 416.414 CURVE SMOOTH",
"311 126.195 LINE SMOOTH",
"311 111 OFFCURVE",
"313 107 OFFCURVE",
"327.397 107 CURVE SMOOTH",
"345.402 107 LINE SMOOTH",
"357 107 OFFCURVE",
"361 110 OFFCURVE",
"361 124.996 CURVE SMOOTH",
"361 415 LINE"
);
}
);
width = 515;
},
{
layerId = "DC4431BF-9234-4C16-9154-22D387E42D10";
paths = (
{
closed = 1;
nodes = (
"417 536 LINE SMOOTH",
"417 573 OFFCURVE",
"408 586 OFFCURVE",
"372 585 CURVE SMOOTH",
"22 585 LINE",
"22 625 LINE",
"387 625 LINE SMOOTH",
"439 625 OFFCURVE",
"463 602 OFFCURVE",
"463 548 CURVE SMOOTH",
"463 411 LINE",
"463 54 LINE SMOOTH",
"463 16 OFFCURVE",
"450 0 OFFCURVE",
"413 0 CURVE SMOOTH",
"265 0 LINE SMOOTH",
"229 0 OFFCURVE",
"213 17 OFFCURVE",
"213 54 CURVE SMOOTH",
"212 403 LINE SMOOTH",
"212 422 OFFCURVE",
"205 431 OFFCURVE",
"188 431 CURVE SMOOTH",
"93 431 LINE SMOOTH",
"73 431 OFFCURVE",
"68 421 OFFCURVE",
"68 402 CURVE SMOOTH",
"68 67 LINE SMOOTH",
"68 45 OFFCURVE",
"73 40 OFFCURVE",
"90 40 CURVE SMOOTH",
"172 40 LINE",
"172 0 LINE",
"72 0 LINE SMOOTH",
"35 0 OFFCURVE",
"22 16 OFFCURVE",
"22 54 CURVE SMOOTH",
"22 415 LINE SMOOTH",
"22 452 OFFCURVE",
"41 470 OFFCURVE",
"78 470 CURVE SMOOTH",
"203 470 LINE SMOOTH",
"235 470 OFFCURVE",
"258 456 OFFCURVE",
"258 416 CURVE SMOOTH",
"258 68 LINE SMOOTH",
"258 49 OFFCURVE",
"261 40 OFFCURVE",
"282 40 CURVE SMOOTH",
"396 40 LINE SMOOTH",
"412 40 OFFCURVE",
"417 46 OFFCURVE",
"417 65 CURVE SMOOTH",
"417 410 LINE"
);
}
);
width = 515;
}
);
unicode = 0DB6;
},
{
glyphname = sinBha;
lastChange = "2021-06-12 12:56:09 +0000";
layers = (
{
layerId = "522BF62C-3FFD-47FE-9DEE-94F66EB24849";
paths = (
{
closed = 1;
nodes = (
"22 216.999 LINE SMOOTH",
"22 238 OFFCURVE",
"29.667 250.864 OFFCURVE",
"45 258.197 CURVE",
"61.22 280.5 OFFCURVE",
"41 354.998 OFFCURVE",
"78 354.999 CURVE SMOOTH",
"106 355 LINE",
"106 377 LINE SMOOTH",
"106 392 OFFCURVE",
"100.533 394 OFFCURVE",
"85 394 CURVE SMOOTH",
"22 394 LINE",
"22 497 LINE",
"125 497 LINE SMOOTH",
"168.332 497 OFFCURVE",
"197.001 474.112 OFFCURVE",
"197.001 431 CURVE SMOOTH",
"197 253 LINE",
"169 253 LINE SMOOTH",
"148.818 253 OFFCURVE",
"146 248.131 OFFCURVE",
"146 228 CURVE SMOOTH",
"146 128 LINE SMOOTH",
"146 114 OFFCURVE",
"151.667 107 OFFCURVE",
"163 107 CURVE SMOOTH",
"229 107 LINE SMOOTH",
"248.709 107 OFFCURVE",
"249 111.54 OFFCURVE",
"249 132 CURVE SMOOTH",
"249 196 LINE SMOOTH",
"249 209.333 OFFCURVE",
"244 216 OFFCURVE",
"234 216 CURVE SMOOTH",
"220 216 LINE",
"258 446 LINE SMOOTH",
"264 480 OFFCURVE",
"288 497 OFFCURVE",
"330 497 CURVE SMOOTH",
"495 497 LINE SMOOTH",
"541.224 497 OFFCURVE",
"562 479.952 OFFCURVE",
"562 434 CURVE SMOOTH",
"562 64 LINE SMOOTH",
"562 15.29 OFFCURVE",
"548.134 0 OFFCURVE",
"499 0 CURVE SMOOTH",
"402 0 LINE",
"402 107 LINE",
"416 107 LINE SMOOTH",
"436.64 107 OFFCURVE",
"438 112.033 OFFCURVE",
"438 133 CURVE SMOOTH",
"438 372 LINE SMOOTH",
"438 384 OFFCURVE",
"432 390 OFFCURVE",
"420 390 CURVE SMOOTH",
"384 390 LINE SMOOTH",
"370.667 390 OFFCURVE",
"362.667 384.333 OFFCURVE",
"360 373 CURVE SMOOTH",
"345 288 LINE",
"347.75 287.928 LINE SMOOTH",
"362.583 287.538 OFFCURVE",
"370 276.896 OFFCURVE",
"370 256 CURVE SMOOTH",
"370 60 LINE SMOOTH",
"370 12.607 OFFCURVE",
"350.6 0 OFFCURVE",
"303 0 CURVE SMOOTH",
"70 0 LINE SMOOTH",
"33.361 0 OFFCURVE",
"22 14 OFFCURVE",
"22 51 CURVE SMOOTH"
);
},
{
closed = 1;
nodes = (
"88 354.995 LINE",
"88 257.995 LINE",
"-6 257.995 LINE",
"-6 354.995 LINE"
);
}
);
width = 592;
},
{
layerId = "DC4431BF-9234-4C16-9154-22D387E42D10";
paths = (
{
closed = 1;
nodes = (
"22 275 LINE SMOOTH",
"22 297 OFFCURVE",
"30 309 OFFCURVE",
"45 317 CURVE",
"61 339 OFFCURVE",
"41 355 OFFCURVE",
"78 354.999 CURVE SMOOTH",
"150 355 LINE",
"150 422 LINE SMOOTH",
"150 447 OFFCURVE",
"135 458 OFFCURVE",
"110 458 CURVE SMOOTH",
"22 458 LINE",
"22 497 LINE",
"121 497 LINE SMOOTH",
"164 497 OFFCURVE",
"193 474 OFFCURVE",
"193 431 CURVE SMOOTH",
"193 316 LINE",
"110 316 LINE SMOOTH",
"79 316 OFFCURVE",
"68 297 OFFCURVE",
"68 269 CURVE SMOOTH",
"68 65 LINE SMOOTH",
"68 49 OFFCURVE",
"72 40 OFFCURVE",
"87 40 CURVE SMOOTH",
"268 40 LINE SMOOTH",
"289 40 OFFCURVE",
"299 45 OFFCURVE",
"299 70 CURVE SMOOTH",
"299 229 LINE SMOOTH",
"299 248 OFFCURVE",
"291 252 OFFCURVE",
"281 252 CURVE SMOOTH",
"218 252 LINE",
"257 446 LINE SMOOTH",
"264 479 OFFCURVE",
"285 497 OFFCURVE",
"327 497 CURVE SMOOTH",
"477 497 LINE SMOOTH",
"523 497 OFFCURVE",
"544 480 OFFCURVE",
"544 434 CURVE SMOOTH",
"544 64 LINE SMOOTH",
"544 15 OFFCURVE",
"530 0 OFFCURVE",
"481 0 CURVE SMOOTH",
"383 0 LINE",
"383 40 LINE",
"466 40 LINE SMOOTH",
"491 40 OFFCURVE",
"498 47 OFFCURVE",
"498 77 CURVE SMOOTH",
"498 426 LINE SMOOTH",
"498 449 OFFCURVE",
"489 457 OFFCURVE",
"466 458 CURVE SMOOTH",
"340 458 LINE SMOOTH",
"319 458 OFFCURVE",
"303 446 OFFCURVE",
"299 426 CURVE SMOOTH",
"271 288 LINE",
"305 288 LINE SMOOTH",
"323 288 OFFCURVE",
"344 280 OFFCURVE",
"344 248 CURVE SMOOTH",
"344 60 LINE SMOOTH",
"344 13 OFFCURVE",
"324 0 OFFCURVE",
"277 0 CURVE SMOOTH",
"70 0 LINE SMOOTH",
"33 0 OFFCURVE",
"22 14 OFFCURVE",
"22 51 CURVE SMOOTH"
);
},
{
closed = 1;
nodes = (
"88 354.995 LINE",
"88 316 LINE",
"-6 316 LINE",
"-6 354.995 LINE"
);
}
);
width = 592;
}
);
unicode = 0DB7;
},
{
glyphname = sinMa;
lastChange = "2021-06-12 12:56:09 +0000";
layers = (
{
layerId = "522BF62C-3FFD-47FE-9DEE-94F66EB24849";
paths = (
{
closed = 1;
nodes = (
"471 625 OFFCURVE",
"485 600.687 OFFCURVE",
"485 544 CURVE SMOOTH",
"485 400 LINE",
"361 400 LINE",
"361 494.602 LINE SMOOTH",
"361 512.95 OFFCURVE",
"354.062 517.602 OFFCURVE",
"335 517.602 CURVE SMOOTH",
"22 517.602 LINE",
"22 625 LINE",
"416 625 LINE SMOOTH"
);
},
{
closed = 1;
nodes = (
"185.196 249.597 LINE SMOOTH",
"195.196 249.598 OFFCURVE",
"199.794 253.597 OFFCURVE",
"199.794 263.597 CURVE SMOOTH",
"199.792 352.202 LINE SMOOTH",
"199.792 363.69 OFFCURVE",
"194.791 368.602 OFFCURVE",
"183.791 368.602 CURVE SMOOTH",
"163.797 368.602 LINE SMOOTH",
"149.797 368.602 OFFCURVE",
"146 362.269 OFFCURVE",
"146 349.602 CURVE SMOOTH",
"146 129 LINE SMOOTH",
"146 114.333 OFFCURVE",
"152 107 OFFCURVE",
"164 107 CURVE SMOOTH",
"343 107 LINE SMOOTH",
"355 107 OFFCURVE",
"361 114.333 OFFCURVE",
"361 129 CURVE SMOOTH",
"361 415 LINE",
"485 415 LINE",
"485 59 LINE SMOOTH",
"485 21.271 OFFCURVE",
"466.075 0 OFFCURVE",
"429 0 CURVE SMOOTH",
"75 0 LINE SMOOTH",
"37.929 0 OFFCURVE",
"22 19.273 OFFCURVE",
"22 57 CURVE SMOOTH",
"22 412 LINE SMOOTH",
"22 448.667 OFFCURVE",
"45.671 470.001 OFFCURVE",
"83 470.001 CURVE SMOOTH",
"258.196 470.001 LINE SMOOTH",
"294.453 470.001 OFFCURVE",
"317.196 456.322 OFFCURVE",
"317.196 419 CURVE SMOOTH",
"317.197 207.594 LINE SMOOTH",
"317.197 168.576 OFFCURVE",
"303.052 149.991 OFFCURVE",
"265.196 149.991 CURVE SMOOTH",
"134 149.99 LINE",
"133.999 249.595 LINE"
);
}
);
width = 515;
},
{
layerId = "DC4431BF-9234-4C16-9154-22D387E42D10";
paths = (
{
closed = 1;
nodes = (
"439 625 OFFCURVE",
"463 602 OFFCURVE",
"463 548 CURVE SMOOTH",
"463 400 LINE",
"417 400 LINE",
"417 536 LINE SMOOTH",
"417 573 OFFCURVE",
"408 585 OFFCURVE",
"372 585 CURVE SMOOTH",
"22 585 LINE",
"22 625 LINE",
"387 625 LINE SMOOTH"
);
},
{
closed = 1;
nodes = (
"236 209 LINE SMOOTH",
"256 209 OFFCURVE",
"256 223 OFFCURVE",
"256 235 CURVE SMOOTH",
"256 405 LINE SMOOTH",
"256 426 OFFCURVE",
"245 430 OFFCURVE",
"230 430 CURVE SMOOTH",
"95 430 LINE SMOOTH",
"74 430 OFFCURVE",
"68 418 OFFCURVE",
"68 402 CURVE SMOOTH",
"68 70 LINE SMOOTH",
"68 48 OFFCURVE",
"76 40 OFFCURVE",
"91 40 CURVE SMOOTH",
"390 40 LINE SMOOTH",
"408 40 OFFCURVE",
"417 49 OFFCURVE",
"417 71 CURVE SMOOTH",
"417 415 LINE",
"463 415 LINE",
"463 59 LINE SMOOTH",
"463 21 OFFCURVE",
"444 0 OFFCURVE",
"407 0 CURVE SMOOTH",
"75 0 LINE SMOOTH",
"38 0 OFFCURVE",
"22 19 OFFCURVE",
"22 57 CURVE SMOOTH",
"22 412 LINE SMOOTH",
"22 449 OFFCURVE",
"46 470 OFFCURVE",
"83 470.001 CURVE SMOOTH",
"243 470 LINE SMOOTH",
"279 470 OFFCURVE",
"302 456 OFFCURVE",
"302 419 CURVE SMOOTH",
"302 226 LINE SMOOTH",
"302 187 OFFCURVE",
"288 169 OFFCURVE",
"250 169 CURVE SMOOTH",
"56 169 LINE",
"56 209 LINE"
);
}
);
width = 515;
}
);
unicode = 0DB8;
},
{
glyphname = sinMba;
lastChange = "2021-06-12 12:56:09 +0000";
layers = (
{
layerId = "522BF62C-3FFD-47FE-9DEE-94F66EB24849";
paths = (
{
closed = 1;
nodes = (
"22 412.799 LINE SMOOTH",
"22 445 OFFCURVE",
"43.162 470.001 OFFCURVE",
"83 470.001 CURVE SMOOTH",
"258.196 470.001 LINE SMOOTH",
"294.453 470.001 OFFCURVE",
"317.196 456.322 OFFCURVE",
"317.196 419 CURVE SMOOTH",
"317.197 317.798 LINE SMOOTH",
"317.197 278.78 OFFCURVE",
"303.052 260.195 OFFCURVE",
"265.196 260.195 CURVE SMOOTH",
"134 260.194 LINE",
"133.999 323.799 LINE",
"185.196 323.801 LINE SMOOTH",
"195.196 323.802 OFFCURVE",
"199.794 327.801 OFFCURVE",
"199.794 337.801 CURVE SMOOTH",
"199.792 352.202 LINE SMOOTH",
"199.79 363.69 OFFCURVE",
"194.791 368.602 OFFCURVE",
"183.791 368.602 CURVE SMOOTH",
"163.797 368.602 LINE SMOOTH",
"149.797 368.602 OFFCURVE",
"146 362 OFFCURVE",
"146 349.602 CURVE SMOOTH",
"146 130 LINE SMOOTH",
"146 115 OFFCURVE",
"151.426 107 OFFCURVE",
"162.281 107 CURVE SMOOTH",
"191.949 107 LINE SMOOTH",
"199.416 107 OFFCURVE",
"208.186 108.853 OFFCURVE",
"208.21 118.203 CURVE SMOOTH",
"208.23 121.729 LINE SMOOTH",
"208.23 130.158 OFFCURVE",
"201.996 133.604 OFFCURVE",
"195.158 137 CURVE SMOOTH",
"186.853 141.126 OFFCURVE",
"177.654 145.179 OFFCURVE",
"177.654 158 CURVE SMOOTH",
"177.654 198.996 LINE SMOOTH",
"177.654 214.996 OFFCURVE",
"186.168 222.996 OFFCURVE",
"201.179 222.996 CURVE SMOOTH",
"253.56 222.996 LINE",
"305.977 222.996 LINE SMOOTH",
"320.201 222.996 OFFCURVE",
"329.501 214.996 OFFCURVE",
"329.501 198.996 CURVE SMOOTH",
"329.501 158 LINE SMOOTH",
"329.501 145.179 OFFCURVE",
"320.303 141.126 OFFCURVE",
"311.998 137 CURVE SMOOTH",
"305.159 133.604 OFFCURVE",
"298.925 130.158 OFFCURVE",
"298.925 121.729 CURVE SMOOTH",
"298.945 118.203 LINE SMOOTH",
"298.97 108.853 OFFCURVE",
"308.016 107 OFFCURVE",
"315.206 107 CURVE SMOOTH",
"344.919 107 LINE SMOOTH",
"355.774 107 OFFCURVE",
"361 119 OFFCURVE",
"361.2 130 CURVE SMOOTH",
"361 415 LINE",
"485 415 LINE",
"485.157 54 LINE SMOOTH",
"485 16 OFFCURVE",
"473.398 0 OFFCURVE",
"439.932 0 CURVE SMOOTH",
"301.498 0 LINE SMOOTH",
"275.494 0 OFFCURVE",
"254.464 20.843 OFFCURVE",
"254.464 47 CURVE SMOOTH",
"254.464 131.199 LINE SMOOTH",
"254.464 139.492 OFFCURVE",
"261.555 143.436 OFFCURVE",
"268.151 148 CURVE SMOOTH",
"273.799 151.906 OFFCURVE",
"279.084 156.269 OFFCURVE",
"279.254 164.201 CURVE SMOOTH",
"279.248 172 LINE SMOOTH",
"279.242 180.38 OFFCURVE",
"275.256 181.996 OFFCURVE",
"268.759 181.996 CURVE SMOOTH",
"253.56 181.996 LINE",
"238.405 181.996 LINE SMOOTH",
"233.172 181.996 OFFCURVE",
"227.922 180.38 OFFCURVE",
"227.916 172 CURVE SMOOTH",
"227.91 164.201 LINE SMOOTH",
"228.08 156.269 OFFCURVE",
"233.366 151.906 OFFCURVE",
"239.013 148 CURVE SMOOTH",
"245.609 143.436 OFFCURVE",
"252.699 139.492 OFFCURVE",
"252.699 131.199 CURVE SMOOTH",
"252.699 47 LINE SMOOTH",
"252.699 20.843 OFFCURVE",
"231.366 0 OFFCURVE",
"205.666 0 CURVE SMOOTH",
"67.277 0 LINE SMOOTH",
"33.746 0 OFFCURVE",
"22.057 16 OFFCURVE",
"22.052 54 CURVE SMOOTH"
);
},
{
closed = 1;
nodes = (
"471 625 OFFCURVE",
"485 600.687 OFFCURVE",
"485 544 CURVE SMOOTH",
"485 400 LINE",
"361 400 LINE",
"361 494.602 LINE SMOOTH",
"361 512.95 OFFCURVE",
"354.062 517.602 OFFCURVE",
"335 517.602 CURVE SMOOTH",
"22 517.602 LINE",
"22 625 LINE",
"416 625 LINE SMOOTH"
);
}
);
width = 515;
},
{
layerId = "DC4431BF-9234-4C16-9154-22D387E42D10";
paths = (
{
closed = 1;
nodes = (
"22 413 LINE SMOOTH",
"22 445 OFFCURVE",
"43 470 OFFCURVE",
"83 470.001 CURVE SMOOTH",
"222 470 LINE SMOOTH",
"258 470 OFFCURVE",
"281 456 OFFCURVE",
"281 419 CURVE SMOOTH",
"281 341 LINE SMOOTH",
"281 302 OFFCURVE",
"267 283 OFFCURVE",
"229 283 CURVE SMOOTH",
"56 283 LINE",
"56 319 LINE",
"214 319 LINE SMOOTH",
"227 319 OFFCURVE",
"236 325 OFFCURVE",
"236 345 CURVE SMOOTH",
"236 409 LINE SMOOTH",
"236 424 OFFCURVE",
"226 431 OFFCURVE",
"208 431 CURVE SMOOTH",
"95 431 LINE SMOOTH",
"74 431 OFFCURVE",
"68 420 OFFCURVE",
"68 405 CURVE SMOOTH",
"68 64 LINE SMOOTH",
"68 49 OFFCURVE",
"73 40 OFFCURVE",
"84 40 CURVE SMOOTH",
"171 40 LINE SMOOTH",
"182 40 OFFCURVE",
"193 42 OFFCURVE",
"193 57 CURVE SMOOTH",
"192 92 LINE SMOOTH",
"192 108 OFFCURVE",
"178 118 OFFCURVE",
"167 124 CURVE SMOOTH",
"159 129 OFFCURVE",
"131 142 OFFCURVE",
"131 165 CURVE SMOOTH",
"131 206 LINE SMOOTH",
"131 227 OFFCURVE",
"145 234 OFFCURVE",
"160 234 CURVE SMOOTH",
"242 234 LINE",
"324 234 LINE SMOOTH",
"338 234 OFFCURVE",
"353 228 OFFCURVE",
"353 206 CURVE SMOOTH",
"353 165 LINE SMOOTH",
"353 140 OFFCURVE",
"322 129 OFFCURVE",
"315 124 CURVE SMOOTH",
"302 117 OFFCURVE",
"293 108 OFFCURVE",
"292 93 CURVE SMOOTH",
"292 58 LINE SMOOTH",
"292 44 OFFCURVE",
"302 40 OFFCURVE",
"312 40 CURVE SMOOTH",
"397 40 LINE SMOOTH",
"412 40 OFFCURVE",
"417 52 OFFCURVE",
"417 64 CURVE SMOOTH",
"417 415 LINE",
"463 415 LINE",
"463 54 LINE SMOOTH",
"462 16 OFFCURVE",
"451 0 OFFCURVE",
"417 0 CURVE SMOOTH",
"302 0 LINE SMOOTH",
"276 0 OFFCURVE",
"255 21 OFFCURVE",
"255 47 CURVE SMOOTH",
"255 101 LINE SMOOTH",
"255 129 OFFCURVE",
"284 142 OFFCURVE",
"291 146 CURVE SMOOTH",
"296 150 OFFCURVE",
"315 159 OFFCURVE",
"315 174 CURVE SMOOTH",
"315 191 LINE SMOOTH",
"315 199 OFFCURVE",
"311 201 OFFCURVE",
"302 201 CURVE SMOOTH",
"242 201 LINE",
"183 201 LINE SMOOTH",
"176 201 OFFCURVE",
"170 199 OFFCURVE",
"170 191 CURVE SMOOTH",
"170 174 LINE SMOOTH",
"170 159 OFFCURVE",
"188 149 OFFCURVE",
"194 145 CURVE SMOOTH",
"201 140 OFFCURVE",
"230 129 OFFCURVE",
"230 101 CURVE SMOOTH",
"230 47 LINE SMOOTH",
"230 21 OFFCURVE",
"209 0 OFFCURVE",
"183 0 CURVE SMOOTH",
"67 0 LINE SMOOTH",
"34 0 OFFCURVE",
"22 16 OFFCURVE",
"22 54 CURVE SMOOTH"
);
},
{
closed = 1;
nodes = (
"439 625 OFFCURVE",
"463 602 OFFCURVE",
"463 548 CURVE SMOOTH",
"463 400 LINE",
"417 400 LINE",
"417 536 LINE SMOOTH",
"417 573 OFFCURVE",
"408 585 OFFCURVE",
"372 585 CURVE SMOOTH",
"22 585 LINE",
"22 625 LINE",
"387 625 LINE SMOOTH"
);
}
);
width = 515;
}
);
unicode = 0DB9;
},
{
glyphname = sinYa;
lastChange = "2021-06-12 12:56:09 +0000";
layers = (
{
layerId = "522BF62C-3FFD-47FE-9DEE-94F66EB24849";
paths = (
{
closed = 1;
nodes = (
"235.172 394 LINE",
"166.4 394 LINE SMOOTH",
"151.067 394 OFFCURVE",
"146 384.809 OFFCURVE",
"146 368 CURVE SMOOTH",
"146 130 LINE SMOOTH",
"146 114.667 OFFCURVE",
"152 107 OFFCURVE",
"164 107 CURVE SMOOTH",
"196 107 LINE SMOOTH",
"213.333 107 OFFCURVE",
"222 115.667 OFFCURVE",
"222 133 CURVE SMOOTH",
"222 190 LINE",
"334 190 LINE",
"334 133 LINE SMOOTH",
"334 115.667 OFFCURVE",
"343 107 OFFCURVE",
"361 107 CURVE SMOOTH",
"392 107 LINE SMOOTH",
"404 107 OFFCURVE",
"410 114.667 OFFCURVE",
"410 130 CURVE SMOOTH",
"410 236 LINE SMOOTH",
"410 247.333 OFFCURVE",
"402.333 253 OFFCURVE",
"387 253 CURVE SMOOTH",
"270.979 253 LINE",
"270.979 436 LINE SMOOTH",
"270.979 473.775 OFFCURVE",
"295.356 497 OFFCURVE",
"342.979 497 CURVE SMOOTH",
"533 497 LINE",
"533 394 LINE",
"405.396 394 LINE SMOOTH",
"391.396 394 OFFCURVE",
"384.396 389 OFFCURVE",
"384.396 379 CURVE SMOOTH",
"384.396 356 LINE",
"470 356 LINE SMOOTH",
"513.529 356 OFFCURVE",
"534 339.26 OFFCURVE",
"534 296 CURVE SMOOTH",
"534 54 LINE SMOOTH",
"534 16.27 OFFCURVE",
"521.075 0 OFFCURVE",
"484 0 CURVE SMOOTH",
"331 0 LINE SMOOTH",
"304.431 0 OFFCURVE",
"278 19.881 OFFCURVE",
"278 46 CURVE",
"278 19.885 OFFCURVE",
"251.562 0 OFFCURVE",
"225 0 CURVE SMOOTH",
"72 0 LINE SMOOTH",
"34.928 0 OFFCURVE",
"22 16.273 OFFCURVE",
"22 54 CURVE SMOOTH",
"22 437.999 LINE SMOOTH",
"22 468.273 OFFCURVE",
"34.955 497 OFFCURVE",
"78 497 CURVE SMOOTH",
"235.172 497 LINE"
);
}
);
width = 564;
},
{
layerId = "DC4431BF-9234-4C16-9154-22D387E42D10";
paths = (
{
closed = 1;
nodes = (
"215 458 LINE",
"92 458 LINE SMOOTH",
"74 458 OFFCURVE",
"68 445 OFFCURVE",
"68 427 CURVE SMOOTH",
"68 63 LINE SMOOTH",
"68 47 OFFCURVE",
"74 40 OFFCURVE",
"87 40 CURVE SMOOTH",
"200 40 LINE SMOOTH",
"234 40 OFFCURVE",
"246 68 OFFCURVE",
"246 97 CURVE SMOOTH",
"246 168 LINE",
"290 168 LINE",
"290 97 LINE SMOOTH",
"290 68 OFFCURVE",
"302 40 OFFCURVE",
"336 40 CURVE SMOOTH",
"447 40 LINE SMOOTH",
"460 40 OFFCURVE",
"467 47 OFFCURVE",
"467 63 CURVE SMOOTH",
"467 294 LINE SMOOTH",
"467 307 OFFCURVE",
"457 314 OFFCURVE",
"444 314 CURVE SMOOTH",
"268 314 LINE",
"268 440 LINE SMOOTH",
"268 478 OFFCURVE",
"289 497 OFFCURVE",
"331 497 CURVE SMOOTH",
"511 497 LINE",
"511 458 LINE",
"347 458 LINE SMOOTH",
"325 458 OFFCURVE",
"313 451 OFFCURVE",
"313 429 CURVE SMOOTH",
"313 353 LINE",
"456 353 LINE SMOOTH",
"494 353 OFFCURVE",
"512 335 OFFCURVE",
"512 298 CURVE SMOOTH",
"512 54 LINE SMOOTH",
"512 16 OFFCURVE",
"499 0 OFFCURVE",
"462 0 CURVE SMOOTH",
"320 0 LINE SMOOTH",
"301 0 OFFCURVE",
"276 12 OFFCURVE",
"268 36 CURVE",
"260 12 OFFCURVE",
"235 0 OFFCURVE",
"216 0 CURVE SMOOTH",
"72 0 LINE SMOOTH",
"35 0 OFFCURVE",
"22 16 OFFCURVE",
"22 54 CURVE SMOOTH",
"22 437.999 LINE SMOOTH",
"22 468 OFFCURVE",
"35 497 OFFCURVE",
"78 497 CURVE SMOOTH",
"215 497 LINE"
);
}
);
width = 565;
}
);
unicode = 0DBA;
},
{
glyphname = sinRa;
lastChange = "2021-06-12 12:56:09 +0000";
layers = (
{
layerId = "522BF62C-3FFD-47FE-9DEE-94F66EB24849";
paths = (
{
closed = 1;
nodes = (
"22 455.7 OFFCURVE",
"35.973 478.246 OFFCURVE",
"63 498.002 CURVE SMOOTH",
"260 642.002 LINE",
"438 642.002 LINE",
"240 497.002 LINE",
"373 497 LINE SMOOTH",
"411.484 496.999 OFFCURVE",
"435.214 476.413 OFFCURVE",
"435.214 438 CURVE SMOOTH",
"435.214 48 LINE SMOOTH",
"435.214 18.848 OFFCURVE",
"417.333 0 OFFCURVE",
"390 0 CURVE SMOOTH",
"67 0 LINE SMOOTH",
"41 0 OFFCURVE",
"22 14.942 OFFCURVE",
"22 48 CURVE SMOOTH",
"22 424 LINE SMOOTH"
);
},
{
closed = 1;
nodes = (
"146 138 LINE SMOOTH",
"146 112.666 OFFCURVE",
"157.334 107 OFFCURVE",
"170 107 CURVE SMOOTH",
"284 107 LINE SMOOTH",
"301.894 107 OFFCURVE",
"311.005 113.252 OFFCURVE",
"311.005 138.398 CURVE SMOOTH",
"311.005 368 LINE SMOOTH",
"311.005 385.761 OFFCURVE",
"304.667 394 OFFCURVE",
"286 394 CURVE SMOOTH",
"173.808 394.002 LINE SMOOTH",
"151.802 394.002 OFFCURVE",
"146.005 386.921 OFFCURVE",
"146.005 365.801 CURVE SMOOTH"
);
}
);
width = 466;
},
{
layerId = "DC4431BF-9234-4C16-9154-22D387E42D10";
paths = (
{
closed = 1;
nodes = (
"22 459 OFFCURVE",
"37 477 OFFCURVE",
"63 498.001 CURVE SMOOTH",
"264 661 LINE",
"328 661 LINE",
"129 497 LINE",
"337 497 LINE SMOOTH",
"379 497 OFFCURVE",
"398 474 OFFCURVE",
"398 438 CURVE SMOOTH",
"398 60 LINE SMOOTH",
"398 31 OFFCURVE",
"392 0 OFFCURVE",
"344 0 CURVE SMOOTH",
"68 0 LINE SMOOTH",
"39 0 OFFCURVE",
"22 12 OFFCURVE",
"22 48 CURVE SMOOTH",
"22 429 LINE SMOOTH"
);
},
{
closed = 1;
nodes = (
"68 78 LINE SMOOTH",
"68 44 OFFCURVE",
"71 40 OFFCURVE",
"103 40 CURVE SMOOTH",
"327 40 LINE SMOOTH",
"346 40 OFFCURVE",
"354 42 OFFCURVE",
"354 72 CURVE SMOOTH",
"354 418 LINE SMOOTH",
"354 449 OFFCURVE",
"342 458 OFFCURVE",
"317 458 CURVE SMOOTH",
"107 458 LINE SMOOTH",
"83 458 OFFCURVE",
"68 444 OFFCURVE",
"68 412 CURVE SMOOTH"
);
}
);
width = 453;
}
);
unicode = 0DBB;
},
{
glyphname = sinLa;
lastChange = "2021-06-12 12:56:09 +0000";
layers = (
{
layerId = "522BF62C-3FFD-47FE-9DEE-94F66EB24849";
paths = (
{
closed = 1;
nodes = (
"211.608 222.204 LINE",
"172.612 222.204 LINE",
"172.612 312.204 LINE",
"374.999 312.204 LINE",
"374.999 224.204 LINE",
"335.609 224.204 LINE",
"335.609 123 LINE SMOOTH",
"335.609 107.734 OFFCURVE",
"337.95 107 OFFCURVE",
"353.609 107 CURVE SMOOTH",
"388.01 107 LINE SMOOTH",
"397.343 107 OFFCURVE",
"402.01 112.667 OFFCURVE",
"402.01 124 CURVE SMOOTH",
"402.01 371 LINE SMOOTH",
"402.01 386.299 OFFCURVE",
"397.666 394 OFFCURVE",
"377 394 CURVE SMOOTH",
"169.8 394.001 LINE SMOOTH",
"152.057 394.001 OFFCURVE",
"146 384 OFFCURVE",
"146 370 CURVE SMOOTH",
"146 -6.611 LINE SMOOTH",
"146 -37.05 OFFCURVE",
"155.477 -47.611 OFFCURVE",
"188.001 -47.611 CURVE SMOOTH",
"525.812 -47.611 LINE",
"525.812 -162.611 LINE",
"92 -162.611 LINE SMOOTH",
"52.114 -162.611 OFFCURVE",
"22 -146.153 OFFCURVE",
"22 -90.611 CURVE SMOOTH",
"22 434 LINE SMOOTH",
"22 471.686 OFFCURVE",
"47.346 497.001 OFFCURVE",
"76.2 497.001 CURVE SMOOTH",
"465 497 LINE SMOOTH",
"501.262 497 OFFCURVE",
"526 464 OFFCURVE",
"526.012 428 CURVE SMOOTH",
"526 61 LINE SMOOTH",
"526 27.205 OFFCURVE",
"511.8 0 OFFCURVE",
"474 0 CURVE SMOOTH",
"260.608 0 LINE SMOOTH",
"227.708 0 OFFCURVE",
"211.608 20.872 OFFCURVE",
"211.608 48 CURVE SMOOTH"
);
}
);
width = 557;
},
{
layerId = "DC4431BF-9234-4C16-9154-22D387E42D10";
paths = (
{
closed = 1;
nodes = (
"237 274 LINE",
"159 274 LINE",
"159 312 LINE",
"362 312 LINE",
"362 274 LINE",
"283 274 LINE",
"283 63 LINE SMOOTH",
"283 47 OFFCURVE",
"291 40 OFFCURVE",
"306 40 CURVE SMOOTH",
"437 40 LINE SMOOTH",
"455 40 OFFCURVE",
"460 53 OFFCURVE",
"460 72 CURVE SMOOTH",
"460 415 LINE SMOOTH",
"460 436 OFFCURVE",
"455 458 OFFCURVE",
"427 458 CURVE SMOOTH",
"97 458 LINE SMOOTH",
"76 458 OFFCURVE",
"68 444 OFFCURVE",
"68 421 CURVE SMOOTH",
"68 -74 LINE SMOOTH",
"68 -112 OFFCURVE",
"77 -123 OFFCURVE",
"110 -123 CURVE SMOOTH",
"506 -123 LINE",
"506 -163 LINE",
"92 -163 LINE SMOOTH",
"52 -163 OFFCURVE",
"22 -146 OFFCURVE",
"22 -91 CURVE SMOOTH",
"22 434 LINE SMOOTH",
"22 472 OFFCURVE",
"47 497 OFFCURVE",
"76 497 CURVE SMOOTH",
"445 497 LINE SMOOTH",
"481 497 OFFCURVE",
"506 464 OFFCURVE",
"506 428 CURVE SMOOTH",
"506 61 LINE SMOOTH",
"506 27 OFFCURVE",
"492 0 OFFCURVE",
"454 0 CURVE SMOOTH",
"286 0 LINE SMOOTH",
"253 0 OFFCURVE",
"237 21 OFFCURVE",
"237 48 CURVE SMOOTH"
);
}
);
width = 557;
}
);
unicode = 0DBD;
},
{
glyphname = sinVa;
lastChange = "2021-06-12 12:56:09 +0000";
layers = (
{
layerId = "522BF62C-3FFD-47FE-9DEE-94F66EB24849";
paths = (
{
closed = 1;
nodes = (
"485 54 LINE SMOOTH",
"485 16.27 OFFCURVE",
"472.075 0 OFFCURVE",
"435 0 CURVE SMOOTH",
"72 0 LINE SMOOTH",
"34.928 0 OFFCURVE",
"22 16.273 OFFCURVE",
"22 54 CURVE SMOOTH",
"22 275.61 LINE SMOOTH",
"22 312.277 OFFCURVE",
"40.667 330.61 OFFCURVE",
"78 330.61 CURVE SMOOTH",
"144 330.61 LINE",
"144 353 LINE SMOOTH",
"144 362.333 OFFCURVE",
"138.667 367 OFFCURVE",
"128 367 CURVE SMOOTH",
"22 367 LINE",
"22 470 LINE",
"205 470 LINE SMOOTH",
"246.705 470 OFFCURVE",
"267.999 448.41 OFFCURVE",
"267.999 412 CURVE SMOOTH",
"267.999 236.61 LINE",
"167 236.61 LINE SMOOTH",
"153 236.61 OFFCURVE",
"146 230.277 OFFCURVE",
"146 217.61 CURVE SMOOTH",
"146 129 LINE SMOOTH",
"146 114.333 OFFCURVE",
"152 107 OFFCURVE",
"164 107 CURVE SMOOTH",
"343 107 LINE SMOOTH",
"355 107 OFFCURVE",
"361 114.333 OFFCURVE",
"361 129 CURVE SMOOTH",
"361 415 LINE",
"485 415 LINE"
);
},
{
closed = 1;
nodes = (
"471 625 OFFCURVE",
"485 600.687 OFFCURVE",
"485 544 CURVE SMOOTH",
"485 400 LINE",
"361 400 LINE",
"361 494.602 LINE SMOOTH",
"361 512.95 OFFCURVE",
"354.062 517.602 OFFCURVE",
"335 517.602 CURVE SMOOTH",
"22 517.602 LINE",
"22 625 LINE",
"416 625 LINE SMOOTH"
);
}
);
width = 515;
},
{
layerId = "DC4431BF-9234-4C16-9154-22D387E42D10";
paths = (
{
closed = 1;
nodes = (
"463 54 LINE SMOOTH",
"463 16 OFFCURVE",
"448 0 OFFCURVE",
"411 0 CURVE SMOOTH",
"72 0 LINE SMOOTH",
"35 0 OFFCURVE",
"22 16 OFFCURVE",
"22 54 CURVE SMOOTH",
"22 296 LINE SMOOTH",
"22 332 OFFCURVE",
"41 351 OFFCURVE",
"78 351 CURVE SMOOTH",
"197 351 LINE",
"197 436 LINE SMOOTH",
"197 453 OFFCURVE",
"184 455 OFFCURVE",
"173 455 CURVE SMOOTH",
"22 455 LINE",
"22 494 LINE",
"191 494 LINE SMOOTH",
"226 494 OFFCURVE",
"243 478 OFFCURVE",
"243 442 CURVE SMOOTH",
"243 313 LINE",
"95 313 LINE SMOOTH",
"79 313 OFFCURVE",
"68 307 OFFCURVE",
"68 285 CURVE SMOOTH",
"68 65 LINE SMOOTH",
"68 50 OFFCURVE",
"70 40 OFFCURVE",
"87 40 CURVE SMOOTH",
"395 40 LINE SMOOTH",
"410 40 OFFCURVE",
"417 48 OFFCURVE",
"417 68 CURVE SMOOTH",
"417 415 LINE",
"463 415 LINE"
);
},
{
closed = 1;
nodes = (
"439 625 OFFCURVE",
"463 602 OFFCURVE",
"463 548 CURVE SMOOTH",
"463 400 LINE",
"417 400 LINE",
"417 536 LINE SMOOTH",
"417 573 OFFCURVE",
"408 585 OFFCURVE",
"372 585 CURVE SMOOTH",
"22 585 LINE",
"22 625 LINE",
"387 625 LINE SMOOTH"
);
}
);
width = 514;
}
);
unicode = 0DC0;
},
{
glyphname = sinSha;
lastChange = "2021-06-12 12:56:09 +0000";
layers = (
{
layerId = "522BF62C-3FFD-47FE-9DEE-94F66EB24849";
paths = (
{
closed = 1;
nodes = (
"378.182 104.794 OFFCURVE",
"358.793 126.841 OFFCURVE",
"358.793 171 CURVE SMOOTH",
"358.793 274 LINE SMOOTH",
"358.793 300.033 OFFCURVE",
"372.956 313.799 OFFCURVE",
"403 313.8 CURVE SMOOTH",
"441.003 313.801 LINE",
"441.003 333.2 OFFCURVE",
"441.003 352.601 OFFCURVE",
"441.003 372 CURVE SMOOTH",
"441.003 384 OFFCURVE",
"435.003 390 OFFCURVE",
"423.003 390 CURVE SMOOTH",
"348.165 390 LINE SMOOTH",
"334.832 390 OFFCURVE",
"326.832 384.333 OFFCURVE",
"324.165 373 CURVE SMOOTH",
"309.165 288 LINE",
"311.915 287.928 LINE SMOOTH",
"326.748 287.538 OFFCURVE",
"334.165 276.896 OFFCURVE",
"334.165 256 CURVE SMOOTH",
"334.165 60 LINE SMOOTH",
"334.165 12.607 OFFCURVE",
"314.765 0 OFFCURVE",
"267.165 0 CURVE SMOOTH",
"74 0 LINE SMOOTH",
"37.361 0 OFFCURVE",
"22 24.052 OFFCURVE",
"22 61 CURVE SMOOTH",
"22 436 LINE SMOOTH",
"22 473.333 OFFCURVE",
"44.333 497 OFFCURVE",
"81 497 CURVE SMOOTH",
"188.773 496.999 LINE",
"188.773 394 LINE",
"169 393.998 LINE SMOOTH",
"148.817 393.997 OFFCURVE",
"146 389.129 OFFCURVE",
"146 368.998 CURVE SMOOTH",
"146 128 LINE SMOOTH",
"146 114 OFFCURVE",
"151.667 107 OFFCURVE",
"163 107 CURVE SMOOTH",
"193.165 107 LINE SMOOTH",
"212.874 107 OFFCURVE",
"213.165 111.54 OFFCURVE",
"213.165 132 CURVE SMOOTH",
"213.165 196 LINE SMOOTH",
"213.165 209.333 OFFCURVE",
"208.165 216 OFFCURVE",
"198.165 216 CURVE SMOOTH",
"184.165 216 LINE",
"222.165 446 LINE SMOOTH",
"228.165 480 OFFCURVE",
"252.165 497 OFFCURVE",
"294.165 497 CURVE SMOOTH",
"495 497 LINE SMOOTH",
"541.224 497 OFFCURVE",
"562 479.952 OFFCURVE",
"562 434 CURVE SMOOTH",
"562 64 LINE SMOOTH",
"562 15.29 OFFCURVE",
"548.134 0 OFFCURVE",
"499 0 CURVE SMOOTH",
"357.801 0 LINE",
"357.801 95.589 LINE",
"410.393 95.589 LINE"
);
},
{
closed = 1;
nodes = (
"424 236.203 LINE SMOOTH",
"417.808 236.203 OFFCURVE",
"416.793 232.281 OFFCURVE",
"416.793 227.203 CURVE SMOOTH",
"416.793 176.589 LINE SMOOTH",
"416.793 141.922 OFFCURVE",
"433.415 133.766 OFFCURVE",
"449.195 127.784 CURVE",
"449.195 236.203 LINE"
);
}
);
width = 592;
},
{
layerId = "DC4431BF-9234-4C16-9154-22D387E42D10";
paths = (
{
closed = 1;
nodes = (
"410 53 OFFCURVE",
"371 88 OFFCURVE",
"371 150 CURVE SMOOTH",
"371 274 LINE SMOOTH",
"371 300 OFFCURVE",
"386 314 OFFCURVE",
"416 314 CURVE SMOOTH",
"495 314 LINE",
"495 333 OFFCURVE",
"495 419 OFFCURVE",
"495 421 CURVE SMOOTH",
"495 446 OFFCURVE",
"486 458 OFFCURVE",
"458 458 CURVE SMOOTH",
"331 458 LINE SMOOTH",
"304 458 OFFCURVE",
"294 447 OFFCURVE",
"291 429 CURVE SMOOTH",
"265 285 LINE",
"286 285 LINE SMOOTH",
"310 285 OFFCURVE",
"322 271 OFFCURVE",
"322 243 CURVE SMOOTH",
"322 60 LINE SMOOTH",
"322 13 OFFCURVE",
"303 0 OFFCURVE",
"255 0 CURVE SMOOTH",
"70 0 LINE SMOOTH",
"34 0 OFFCURVE",
"22 20 OFFCURVE",
"22 57 CURVE SMOOTH",
"22 441 LINE SMOOTH",
"22 478 OFFCURVE",
"41 497 OFFCURVE",
"77 497 CURVE SMOOTH",
"186 497 LINE",
"186 458 LINE",
"97 458 LINE SMOOTH",
"74 458 OFFCURVE",
"68 452 OFFCURVE",
"68 429 CURVE SMOOTH",
"68 67 LINE SMOOTH",
"68 48 OFFCURVE",
"72 40 OFFCURVE",
"90 40 CURVE SMOOTH",
"242 40 LINE SMOOTH",
"268 40 OFFCURVE",
"277 45 OFFCURVE",
"277 71 CURVE SMOOTH",
"277 228 LINE SMOOTH",
"277 242 OFFCURVE",
"272 249 OFFCURVE",
"258 249 CURVE SMOOTH",
"215 249 LINE",
"250 446 LINE SMOOTH",
"256 480 OFFCURVE",
"280 497 OFFCURVE",
"322 497 CURVE SMOOTH",
"473 497 LINE SMOOTH",
"520 497 OFFCURVE",
"540 480 OFFCURVE",
"540 434 CURVE SMOOTH",
"540 63 LINE SMOOTH",
"540 13 OFFCURVE",
"518 0 OFFCURVE",
"477 0 CURVE SMOOTH",
"372 0 LINE",
"372 38 LINE",
"460 38 LINE"
);
},
{
closed = 1;
nodes = (
"420 277 LINE SMOOTH",
"412 277 OFFCURVE",
"410 272 OFFCURVE",
"410 263 CURVE SMOOTH",
"410 147 LINE SMOOTH",
"410 95 OFFCURVE",
"459 71 OFFCURVE",
"496 62 CURVE",
"496 277 LINE"
);
}
);
width = 592;
}
);
unicode = 0DC1;
},
{
glyphname = sinSsa;
lastChange = "2021-06-12 12:56:09 +0000";
layers = (
{
layerId = "522BF62C-3FFD-47FE-9DEE-94F66EB24849";
paths = (
{
closed = 1;
nodes = (
"396 262 LINE",
"327 191 LINE SMOOTH",
"316.538 180.235 OFFCURVE",
"309.609 173.317 OFFCURVE",
"309.607 153 CURVE SMOOTH",
"309.605 133.393 LINE",
"196 133.392 LINE",
"196 159 LINE SMOOTH",
"196 180.787 OFFCURVE",
"201 193 OFFCURVE",
"216 204 CURVE SMOOTH",
"286 262 LINE"
);
},
{
closed = 1;
nodes = (
"22 300 LINE SMOOTH",
"22 337.333 OFFCURVE",
"40.667 356 OFFCURVE",
"78 356 CURVE SMOOTH",
"134.991 356 LINE",
"134.991 380 LINE SMOOTH",
"134.991 389 OFFCURVE",
"129.658 394 OFFCURVE",
"118.991 394 CURVE SMOOTH",
"23 394 LINE",
"23 497 LINE",
"158.991 497 LINE SMOOTH",
"197.647 497 OFFCURVE",
"230.991 480.761 OFFCURVE",
"230.991 443 CURVE SMOOTH",
"230.991 253 LINE",
"167 253 LINE SMOOTH",
"156 253 OFFCURVE",
"146 246.667 OFFCURVE",
"146 234 CURVE SMOOTH",
"146 129 LINE SMOOTH",
"146 114.333 OFFCURVE",
"152 107 OFFCURVE",
"164 107 CURVE SMOOTH",
"343 107 LINE SMOOTH",
"355 107 OFFCURVE",
"361 114.333 OFFCURVE",
"361 129 CURVE SMOOTH",
"361 234 LINE SMOOTH",
"361 246.667 OFFCURVE",
"354 253 OFFCURVE",
"340 253 CURVE SMOOTH",
"254.188 253 LINE",
"254.188 443 LINE SMOOTH",
"254.188 480.766 OFFCURVE",
"287.519 497 OFFCURVE",
"326.188 497 CURVE SMOOTH",
"437 497 LINE SMOOTH",
"458.3 497 OFFCURVE",
"485 486.944 OFFCURVE",
"485 450 CURVE SMOOTH",
"485 392 LINE SMOOTH",
"485 373.763 OFFCURVE",
"482 365 OFFCURVE",
"473 354 CURVE SMOOTH",
"452 330.983 LINE",
"351 330 LINE",
"388 364 LINE SMOOTH",
"397.615 372.835 OFFCURVE",
"401.403 378.35 OFFCURVE",
"401.403 385.598 CURVE SMOOTH",
"401.403 391.141 OFFCURVE",
"398.173 394 OFFCURVE",
"392 394 CURVE SMOOTH",
"365.787 394 LINE SMOOTH",
"356.072 394 OFFCURVE",
"349.787 389.333 OFFCURVE",
"349.787 380 CURVE SMOOTH",
"349.787 349.193 LINE",
"429 349.193 LINE SMOOTH",
"466.333 349.193 OFFCURVE",
"485 330.527 OFFCURVE",
"485 293.193 CURVE SMOOTH",
"485 54 LINE SMOOTH",
"485 16.273 OFFCURVE",
"472.072 0 OFFCURVE",
"435 0 CURVE",
"72 0 LINE",
"35 0 OFFCURVE",
"22 16.27 OFFCURVE",
"22 54 CURVE SMOOTH"
);
}
);
width = 513;
},
{
layerId = "DC4431BF-9234-4C16-9154-22D387E42D10";
paths = (
{
closed = 1;
nodes = (
"400 321 LINE",
"269 205 LINE SMOOTH",
"253 189 OFFCURVE",
"252 178 OFFCURVE",
"252 153 CURVE SMOOTH",
"252 106 LINE",
"208 106 LINE",
"208 159 LINE SMOOTH",
"208 181 OFFCURVE",
"208 202 OFFCURVE",
"225 216 CURVE SMOOTH",
"344 321 LINE"
);
},
{
closed = 1;
nodes = (
"22 298 LINE SMOOTH",
"22 335 OFFCURVE",
"41 353 OFFCURVE",
"78 353 CURVE SMOOTH",
"167 353 LINE",
"167 426 LINE SMOOTH",
"167 449 OFFCURVE",
"158 458 OFFCURVE",
"133 458 CURVE SMOOTH",
"23 458 LINE",
"23 497 LINE",
"147 497 LINE SMOOTH",
"188 497 OFFCURVE",
"210 478 OFFCURVE",
"210 440 CURVE SMOOTH",
"210 314 LINE",
"98 314 LINE SMOOTH",
"78 314 OFFCURVE",
"68 307 OFFCURVE",
"68 284 CURVE SMOOTH",
"68 69 LINE SMOOTH",
"68 50 OFFCURVE",
"72 40 OFFCURVE",
"92 40 CURVE SMOOTH",
"393 40 LINE SMOOTH",
"414 40 OFFCURVE",
"418 50 OFFCURVE",
"418 69 CURVE SMOOTH",
"418 284 LINE SMOOTH",
"418 307 OFFCURVE",
"408 314 OFFCURVE",
"388 314 CURVE SMOOTH",
"255 314 LINE",
"255 440 LINE SMOOTH",
"255 478 OFFCURVE",
"277 497 OFFCURVE",
"318 497 CURVE SMOOTH",
"418 497 LINE SMOOTH",
"436 497 OFFCURVE",
"463 485 OFFCURVE",
"463 444 CURVE SMOOTH",
"463 405 LINE SMOOTH",
"463 391 OFFCURVE",
"459 380 OFFCURVE",
"447 368 CURVE SMOOTH",
"417 342 LINE",
"365 342 LINE",
"403 377 LINE SMOOTH",
"415 388 OFFCURVE",
"422 398 OFFCURVE",
"422 420 CURVE SMOOTH",
"422 442 OFFCURVE",
"421 458 OFFCURVE",
"398 458 CURVE SMOOTH",
"332 458 LINE SMOOTH",
"307 458 OFFCURVE",
"298 449 OFFCURVE",
"298 426 CURVE SMOOTH",
"298 353 LINE",
"407 353 LINE SMOOTH",
"445 353 OFFCURVE",
"463 334 OFFCURVE",
"463 298 CURVE SMOOTH",
"463 54 LINE SMOOTH",
"463 16 OFFCURVE",
"448 0 OFFCURVE",
"412 0 CURVE",
"74 0 LINE",
"37 0 OFFCURVE",
"22 16 OFFCURVE",
"22 54 CURVE SMOOTH"
);
}
);
width = 509;
}
);
unicode = 0DC2;
},
{
glyphname = sinSa;
lastChange = "2021-06-12 12:56:09 +0000";
layers = (
{
layerId = "522BF62C-3FFD-47FE-9DEE-94F66EB24849";
paths = (
{
closed = 1;
nodes = (
"22 239.333 OFFCURVE",
"29.667 253.667 OFFCURVE",
"45 261 CURVE",
"61.22 283.302 OFFCURVE",
"40.858 356 OFFCURVE",
"78 356 CURVE SMOOTH",
"168.05 356 LINE",
"168 379 LINE",
"168 389 OFFCURVE",
"161.333 394 OFFCURVE",
"148 394 CURVE SMOOTH",
"23 394 LINE",
"23 497 LINE",
"192 497 LINE SMOOTH",
"230.669 497 OFFCURVE",
"264 480.766 OFFCURVE",
"264 443 CURVE SMOOTH",
"264 253 LINE",
"169 253 LINE SMOOTH",
"153.667 253 OFFCURVE",
"146 247.333 OFFCURVE",
"146 236 CURVE SMOOTH",
"146 130 LINE SMOOTH",
"146 114.667 OFFCURVE",
"152 107 OFFCURVE",
"164 107 CURVE SMOOTH",
"196 107 LINE SMOOTH",
"213.333 107 OFFCURVE",
"222 115.667 OFFCURVE",
"222 133 CURVE SMOOTH",
"222 190 LINE",
"334 190 LINE",
"334 133 LINE SMOOTH",
"334 115.667 OFFCURVE",
"343 107 OFFCURVE",
"361 107 CURVE SMOOTH",
"392 107 LINE SMOOTH",
"404 107 OFFCURVE",
"410 114.667 OFFCURVE",
"410 130 CURVE SMOOTH",
"410 236 LINE SMOOTH",
"410 247.333 OFFCURVE",
"402.333 253 OFFCURVE",
"387 253 CURVE SMOOTH",
"292 253 LINE",
"291.999 443 LINE SMOOTH",
"291.999 480.775 OFFCURVE",
"325.296 497 OFFCURVE",
"364 497 CURVE SMOOTH",
"533 497 LINE",
"533 394 LINE",
"409 394 LINE SMOOTH",
"395 394 OFFCURVE",
"388 389 OFFCURVE",
"388 379 CURVE SMOOTH",
"388 356 LINE",
"470 356 LINE SMOOTH",
"513.529 356 OFFCURVE",
"534 339.26 OFFCURVE",
"534 296 CURVE SMOOTH",
"534 54 LINE SMOOTH",
"534 16.27 OFFCURVE",
"521.075 0 OFFCURVE",
"484 0 CURVE SMOOTH",
"331 0 LINE SMOOTH",
"304.431 0 OFFCURVE",
"278 19.881 OFFCURVE",
"278 46 CURVE",
"278 19.885 OFFCURVE",
"251.562 0 OFFCURVE",
"225 0 CURVE SMOOTH",
"72 0 LINE SMOOTH",
"34.928 0 OFFCURVE",
"22 16.273 OFFCURVE",
"22 54 CURVE SMOOTH",
"22 218 LINE SMOOTH"
);
},
{
closed = 1;
nodes = (
"88 355.996 LINE",
"88 258.996 LINE",
"-6 258.996 LINE",
"-6 355.996 LINE"
);
}
);
width = 564;
},
{
layerId = "DC4431BF-9234-4C16-9154-22D387E42D10";
paths = (
{
closed = 1;
nodes = (
"22 282 OFFCURVE",
"30 304 OFFCURVE",
"50 316 CURVE",
"60 330 OFFCURVE",
"60 353 OFFCURVE",
"78 353 CURVE SMOOTH",
"202 353 LINE",
"202 429 LINE",
"202 451 OFFCURVE",
"190 458 OFFCURVE",
"168 458 CURVE SMOOTH",
"23 458 LINE",
"23 497 LINE",
"182 497 LINE SMOOTH",
"224 497 OFFCURVE",
"245 478 OFFCURVE",
"245 440 CURVE SMOOTH",
"245 314 LINE",
"131 314 LINE SMOOTH",
"80 314 OFFCURVE",
"68 284 OFFCURVE",
"68 250 CURVE SMOOTH",
"68 63 LINE SMOOTH",
"68 47 OFFCURVE",
"74 40 OFFCURVE",
"87 40 CURVE SMOOTH",
"200 40 LINE SMOOTH",
"234 40 OFFCURVE",
"246 68 OFFCURVE",
"246 97 CURVE SMOOTH",
"246 168 LINE",
"290 168 LINE",
"290 97 LINE SMOOTH",
"290 68 OFFCURVE",
"302 40 OFFCURVE",
"336 40 CURVE SMOOTH",
"447 40 LINE SMOOTH",
"460 40 OFFCURVE",
"467 47 OFFCURVE",
"467 63 CURVE SMOOTH",
"467 294 LINE SMOOTH",
"467 307 OFFCURVE",
"457 314 OFFCURVE",
"444 314 CURVE SMOOTH",
"290 314 LINE",
"290 440 LINE SMOOTH",
"290 478 OFFCURVE",
"312 497 OFFCURVE",
"353 497 CURVE SMOOTH",
"511 497 LINE",
"511 458 LINE",
"368 458 LINE SMOOTH",
"345 458 OFFCURVE",
"333 451 OFFCURVE",
"333 429 CURVE SMOOTH",
"333 353 LINE",
"456 353 LINE SMOOTH",
"494 353 OFFCURVE",
"512 335 OFFCURVE",
"512 298 CURVE SMOOTH",
"512 54 LINE SMOOTH",
"512 16 OFFCURVE",
"499 0 OFFCURVE",
"462 0 CURVE SMOOTH",
"320 0 LINE SMOOTH",
"301 0 OFFCURVE",
"276 12 OFFCURVE",
"268 36 CURVE",
"260 12 OFFCURVE",
"235 0 OFFCURVE",
"216 0 CURVE SMOOTH",
"72 0 LINE SMOOTH",
"35 0 OFFCURVE",
"22 16 OFFCURVE",
"22 54 CURVE SMOOTH",
"22 261 LINE SMOOTH"
);
},
{
closed = 1;
nodes = (
"126 353 LINE",
"126 315 LINE",
"-6 315 LINE",
"-6 353 LINE"
);
}
);
width = 565;
}
);
unicode = 0DC3;
},
{
glyphname = sinHa;
lastChange = "2021-06-12 12:56:09 +0000";
layers = (
{
layerId = "522BF62C-3FFD-47FE-9DEE-94F66EB24849";
paths = (
{
closed = 1;
nodes = (
"146 114 OFFCURVE",
"151.667 107 OFFCURVE",
"163 107 CURVE SMOOTH",
"229 107 LINE SMOOTH",
"248.709 107 OFFCURVE",
"249 111.54 OFFCURVE",
"249 132 CURVE SMOOTH",
"249 196 LINE SMOOTH",
"249 209.333 OFFCURVE",
"244 216 OFFCURVE",
"234 216 CURVE SMOOTH",
"220 216 LINE",
"258 446 LINE SMOOTH",
"264 480 OFFCURVE",
"288 497 OFFCURVE",
"330 497 CURVE SMOOTH",
"495 497 LINE SMOOTH",
"541.224 497 OFFCURVE",
"562 479.952 OFFCURVE",
"562 434 CURVE SMOOTH",
"562 64 LINE SMOOTH",
"562 15.29 OFFCURVE",
"548.134 0 OFFCURVE",
"499 0 CURVE SMOOTH",
"402 0 LINE",
"402 107 LINE",
"416 107 LINE SMOOTH",
"436.64 107 OFFCURVE",
"438 112.033 OFFCURVE",
"438 133 CURVE SMOOTH",
"438 372 LINE SMOOTH",
"438 384 OFFCURVE",
"432 390 OFFCURVE",
"420 390 CURVE SMOOTH",
"384 390 LINE SMOOTH",
"370.667 390 OFFCURVE",
"362.667 384.333 OFFCURVE",
"360 373 CURVE SMOOTH",
"345 288 LINE",
"347.75 287.928 LINE SMOOTH",
"362.583 287.538 OFFCURVE",
"370 276.896 OFFCURVE",
"370 256 CURVE SMOOTH",
"370 60 LINE SMOOTH",
"370 12.607 OFFCURVE",
"350.6 0 OFFCURVE",
"303 0 CURVE SMOOTH",
"70 0 LINE SMOOTH",
"33.361 0 OFFCURVE",
"22 14.052 OFFCURVE",
"22 51 CURVE SMOOTH",
"22 299 LINE SMOOTH",
"22 336.333 OFFCURVE",
"40.333 355 OFFCURVE",
"77 355 CURVE SMOOTH",
"106 355 LINE",
"106 377 LINE SMOOTH",
"106 392.226 OFFCURVE",
"100.533 394 OFFCURVE",
"85 394 CURVE SMOOTH",
"22 394 LINE",
"22 497 LINE",
"125 497 LINE SMOOTH",
"168.332 497 OFFCURVE",
"197.001 474.112 OFFCURVE",
"197.001 431 CURVE SMOOTH",
"197 253 LINE",
"169 253 LINE SMOOTH",
"148.818 253 OFFCURVE",
"146 248.131 OFFCURVE",
"146 228 CURVE SMOOTH",
"146 128 LINE SMOOTH"
);
}
);
width = 592;
},
{
layerId = "DC4431BF-9234-4C16-9154-22D387E42D10";
paths = (
{
closed = 1;
nodes = (
"68 48 OFFCURVE",
"72 40 OFFCURVE",
"90 40 CURVE SMOOTH",
"248 40 LINE SMOOTH",
"274 40 OFFCURVE",
"283 45 OFFCURVE",
"283 71 CURVE SMOOTH",
"283 228 LINE SMOOTH",
"283 242 OFFCURVE",
"278 249 OFFCURVE",
"265 249 CURVE SMOOTH",
"221 249 LINE",
"256 446 LINE SMOOTH",
"262 480 OFFCURVE",
"286 497 OFFCURVE",
"328 497 CURVE SMOOTH",
"473 497 LINE SMOOTH",
"520 497 OFFCURVE",
"540 480 OFFCURVE",
"540 434 CURVE SMOOTH",
"540 64 LINE SMOOTH",
"540 15 OFFCURVE",
"521 0 OFFCURVE",
"477 0 CURVE SMOOTH",
"388 0 LINE",
"388 40 LINE",
"464 40 LINE SMOOTH",
"488 40 OFFCURVE",
"495 49 OFFCURVE",
"495 75 CURVE SMOOTH",
"495 421 LINE SMOOTH",
"495 448 OFFCURVE",
"486 458 OFFCURVE",
"458 458 CURVE SMOOTH",
"337 458 LINE SMOOTH",
"310 458 OFFCURVE",
"300 447 OFFCURVE",
"297 429 CURVE SMOOTH",
"271 285 LINE",
"293 285 LINE SMOOTH",
"316 285 OFFCURVE",
"328 271 OFFCURVE",
"328 243 CURVE SMOOTH",
"328 60 LINE SMOOTH",
"328 13 OFFCURVE",
"309 0 OFFCURVE",
"261 0 CURVE SMOOTH",
"70 0 LINE SMOOTH",
"37 0 OFFCURVE",
"22 15 OFFCURVE",
"22 51 CURVE SMOOTH",
"22 298 LINE SMOOTH",
"22 335 OFFCURVE",
"40 353 OFFCURVE",
"77 353 CURVE SMOOTH",
"145 353 LINE",
"145 419 LINE SMOOTH",
"145 449 OFFCURVE",
"133 458 OFFCURVE",
"106 458 CURVE SMOOTH",
"22 458 LINE",
"22 497 LINE",
"120 497 LINE SMOOTH",
"164 497 OFFCURVE",
"187 475 OFFCURVE",
"187 431 CURVE SMOOTH",
"187 314 LINE",
"97 314 LINE SMOOTH",
"74 314 OFFCURVE",
"68 308 OFFCURVE",
"68 286 CURVE SMOOTH",
"68 66 LINE SMOOTH"
);
}
);
width = 590;
}
);
unicode = 0DC4;
},
{
glyphname = sinLla;
lastChange = "2021-06-12 12:56:09 +0000";
layers = (
{
layerId = "522BF62C-3FFD-47FE-9DEE-94F66EB24849";
paths = (
{
closed = 1;
nodes = (
"146.001 -4.8 LINE SMOOTH",
"146.001 -24.722 OFFCURVE",
"152.961 -36 OFFCURVE",
"177 -36 CURVE SMOOTH",
"522.811 -36 LINE",
"522.811 -152 LINE",
"100 -152 LINE SMOOTH",
"51.287 -152 OFFCURVE",
"22 -126.804 OFFCURVE",
"22 -74 CURVE SMOOTH",
"22 267 LINE SMOOTH",
"22 307.178 OFFCURVE",
"43.493 329.272 OFFCURVE",
"72 333.396 CURVE",
"72 441 LINE SMOOTH",
"72 477.475 OFFCURVE",
"91.645 497 OFFCURVE",
"126 497 CURVE SMOOTH",
"265.41 497 LINE SMOOTH",
"284.333 497 OFFCURVE",
"292.743 490 OFFCURVE",
"299.41 476 CURVE",
"307.41 490 OFFCURVE",
"317.367 497 OFFCURVE",
"335.41 497 CURVE SMOOTH",
"464.812 497 LINE SMOOTH",
"492.655 497 OFFCURVE",
"522.812 485.728 OFFCURVE",
"522.812 445 CURVE SMOOTH",
"522.812 248.396 LINE",
"154 248.396 LINE SMOOTH",
"147 248 OFFCURVE",
"146 239 OFFCURVE",
"146 232 CURVE SMOOTH"
);
},
{
closed = 1;
nodes = (
"398.41 384 LINE SMOOTH",
"398.41 396.667 OFFCURVE",
"392.743 403 OFFCURVE",
"381.41 403 CURVE SMOOTH",
"361.41 403 LINE SMOOTH",
"350.076 403 OFFCURVE",
"344.41 397.069 OFFCURVE",
"344.41 384.396 CURVE SMOOTH",
"344.41 340.396 LINE",
"398.41 340.396 LINE"
);
},
{
closed = 1;
nodes = (
"247.41 340.396 LINE",
"247.41 384.599 LINE SMOOTH",
"247.41 399.396 OFFCURVE",
"241.675 403 OFFCURVE",
"230.011 403 CURVE SMOOTH",
"209.614 403 LINE SMOOTH",
"197.343 403 OFFCURVE",
"191.41 396.333 OFFCURVE",
"191.41 383 CURVE SMOOTH",
"191.41 340.396 LINE"
);
},
{
closed = 1;
nodes = (
"144 255.999 LINE",
"193 256 LINE",
"193.41 195.396 LINE SMOOTH",
"193.523 178.734 OFFCURVE",
"202.41 170.396 OFFCURVE",
"220.41 170.396 CURVE SMOOTH",
"521.01 170.396 LINE",
"521.01 52.396 LINE",
"201.203 52.396 LINE SMOOTH",
"173.203 52.396 OFFCURVE",
"144 66.036 OFFCURVE",
"144 92 CURVE SMOOTH"
);
}
);
width = 553;
},
{
layerId = "DC4431BF-9234-4C16-9154-22D387E42D10";
paths = (
{
closed = 1;
nodes = (
"68 -61 LINE SMOOTH",
"68 -95 OFFCURVE",
"81 -112 OFFCURVE",
"116 -112 CURVE SMOOTH",
"504 -112 LINE",
"504 -152 LINE",
"100 -152 LINE SMOOTH",
"51 -152 OFFCURVE",
"22 -127 OFFCURVE",
"22 -74 CURVE SMOOTH",
"22 267 LINE SMOOTH",
"22 307 OFFCURVE",
"52 339 OFFCURVE",
"95 340 CURVE",
"95 441 LINE SMOOTH",
"95 477 OFFCURVE",
"114 497 OFFCURVE",
"149 497 CURVE SMOOTH",
"265 497 LINE SMOOTH",
"284 497 OFFCURVE",
"293 490 OFFCURVE",
"299 476 CURVE",
"307 490 OFFCURVE",
"317 497 OFFCURVE",
"335 497 CURVE SMOOTH",
"446 497 LINE SMOOTH",
"474 497 OFFCURVE",
"504 486 OFFCURVE",
"504 445 CURVE SMOOTH",
"504 302 LINE",
"111 302 LINE SMOOTH",
"85 302 OFFCURVE",
"68 285 OFFCURVE",
"68 255 CURVE SMOOTH"
);
},
{
closed = 1;
nodes = (
"458 433 LINE SMOOTH",
"458 448 OFFCURVE",
"452 459 OFFCURVE",
"434 459 CURVE SMOOTH",
"344 459 LINE SMOOTH",
"327 459 OFFCURVE",
"321 450 OFFCURVE",
"321 431 CURVE SMOOTH",
"321 340 LINE",
"458 340 LINE"
);
},
{
closed = 1;
nodes = (
"278 340 LINE",
"278 431 LINE SMOOTH",
"278 450 OFFCURVE",
"270 459 OFFCURVE",
"257 459 CURVE SMOOTH",
"162 459 LINE SMOOTH",
"148 459 OFFCURVE",
"140 451 OFFCURVE",
"140 432 CURVE SMOOTH",
"140 340 LINE"
);
},
{
closed = 1;
nodes = (
"102 310 LINE",
"139 310 LINE",
"139 122 LINE SMOOTH",
"139 100 OFFCURVE",
"152 93 OFFCURVE",
"170 93 CURVE SMOOTH",
"502 93 LINE",
"502 52 LINE",
"161 52 LINE SMOOTH",
"133 52 OFFCURVE",
"102 63 OFFCURVE",
"102 100 CURVE SMOOTH"
);
}
);
width = 553;
}
);
unicode = 0DC5;
},
{
glyphname = sinFa;
lastChange = "2021-06-12 12:56:09 +0000";
layers = (
{
layerId = "522BF62C-3FFD-47FE-9DEE-94F66EB24849";
paths = (
{
closed = 1;
nodes = (
"388.408 107 LINE SMOOTH",
"402.408 107 OFFCURVE",
"409.408 113.333 OFFCURVE",
"409.408 126 CURVE SMOOTH",
"409.408 370 LINE SMOOTH",
"409.408 386 OFFCURVE",
"403.074 394 OFFCURVE",
"390.408 394 CURVE SMOOTH",
"352.809 394 LINE SMOOTH",
"338.809 394 OFFCURVE",
"331.809 385.667 OFFCURVE",
"331.809 369 CURVE SMOOTH",
"331.809 167 LINE",
"220.809 167 LINE",
"220.809 368.003 LINE SMOOTH",
"220.809 387.336 OFFCURVE",
"214.142 394 OFFCURVE",
"200.809 394 CURVE SMOOTH",
"166.811 394 LINE SMOOTH",
"153.629 394 OFFCURVE",
"146.007 387.068 OFFCURVE",
"146.007 370.401 CURVE SMOOTH",
"146.007 126 LINE SMOOTH",
"146.007 110.236 OFFCURVE",
"152.959 107 OFFCURVE",
"170.007 107 CURVE SMOOTH",
"246.007 107 LINE",
"246.007 0 LINE",
"73 0 LINE SMOOTH",
"36.858 0 OFFCURVE",
"22 26.774 OFFCURVE",
"22 62 CURVE SMOOTH",
"22 440.999 LINE SMOOTH",
"22 467.418 OFFCURVE",
"37.972 496.999 OFFCURVE",
"76.4 496.999 CURVE SMOOTH",
"222.2 497 LINE SMOOTH",
"259.078 497 OFFCURVE",
"272.213 485.666 OFFCURVE",
"278.213 462.999 CURVE",
"284.213 485.666 OFFCURVE",
"300.333 497 OFFCURVE",
"336 497 CURVE SMOOTH",
"480 497 LINE SMOOTH",
"507.177 497 OFFCURVE",
"533.816 482.139 OFFCURVE",
"533.816 445 CURVE SMOOTH",
"533.816 61 LINE SMOOTH",
"533.816 21.364 OFFCURVE",
"510.408 0 OFFCURVE",
"480 0 CURVE SMOOTH",
"307.007 0 LINE",
"307.007 107 LINE"
);
}
);
width = 564;
},
{
layerId = "DC4431BF-9234-4C16-9154-22D387E42D10";
paths = (
{
closed = 1;
nodes = (
"440 40 LINE SMOOTH",
"461 40 OFFCURVE",
"468 52 OFFCURVE",
"468 73 CURVE SMOOTH",
"468 429 LINE SMOOTH",
"468 447 OFFCURVE",
"461 458 OFFCURVE",
"442 458 CURVE SMOOTH",
"327 458 LINE SMOOTH",
"295 458 OFFCURVE",
"290 424 OFFCURVE",
"290 408 CURVE SMOOTH",
"290 167 LINE",
"245 167 LINE",
"245 407 LINE SMOOTH",
"245 425 OFFCURVE",
"239 458 OFFCURVE",
"210 458 CURVE SMOOTH",
"94 458 LINE SMOOTH",
"78 458 OFFCURVE",
"68 450 OFFCURVE",
"68 429 CURVE SMOOTH",
"68 72 LINE SMOOTH",
"68 51 OFFCURVE",
"73 40 OFFCURVE",
"93 40 CURVE SMOOTH",
"227 40 LINE",
"227 0 LINE",
"73 0 LINE SMOOTH",
"37 0 OFFCURVE",
"22 27 OFFCURVE",
"22 62 CURVE SMOOTH",
"22 440.999 LINE SMOOTH",
"22 467 OFFCURVE",
"38 497 OFFCURVE",
"76 497 CURVE SMOOTH",
"212 497 LINE SMOOTH",
"249 497 OFFCURVE",
"262 486 OFFCURVE",
"268 463 CURVE",
"274 486 OFFCURVE",
"291 497 OFFCURVE",
"326 497 CURVE SMOOTH",
"459 497 LINE SMOOTH",
"487 497 OFFCURVE",
"513 482 OFFCURVE",
"513 445 CURVE SMOOTH",
"513 61 LINE SMOOTH",
"513 21 OFFCURVE",
"490 0 OFFCURVE",
"459 0 CURVE SMOOTH",
"306 0 LINE",
"306 40 LINE"
);
}
);
width = 564;
}
);
unicode = 0DC6;
},
{
glyphname = sinKSsa;
lastChange = "2021-06-12 12:56:09 +0000";
layers = (
{
components = (
{
name = sinSsa;
transform = "{1, 0, 0, 1, 404, 0}";
}
);
layerId = "522BF62C-3FFD-47FE-9DEE-94F66EB24849";
paths = (
{
closed = 1;
nodes = (
"285.404 256.666 OFFCURVE",
"280.404 263.001 OFFCURVE",
"270.404 263.001 CURVE SMOOTH",
"155.004 263.001 LINE",
"125.403 237.001 LINE",
"153.797 237.001 LINE",
"154 223.001 LINE",
"148.515 219.225 OFFCURVE",
"142 205.955 OFFCURVE",
"142 181.804 CURVE SMOOTH",
"142 128.001 LINE SMOOTH",
"142 110.667 OFFCURVE",
"144.66 108 OFFCURVE",
"156 108 CURVE SMOOTH",
"164.401 108 LINE SMOOTH",
"177.486 108 OFFCURVE",
"179.401 113.668 OFFCURVE",
"179.401 125.002 CURVE SMOOTH",
"179.401 189.001 LINE",
"247.401 189.001 LINE",
"247.401 127 LINE SMOOTH",
"247.401 112.334 OFFCURVE",
"250.11 108 OFFCURVE",
"261.401 108 CURVE SMOOTH",
"272.404 108 LINE SMOOTH",
"282.609 108 OFFCURVE",
"285.404 112.804 OFFCURVE",
"285.404 130.803 CURVE SMOOTH",
"285.404 244.001 LINE SMOOTH"
);
},
{
closed = 1;
nodes = (
"140.612 380.401 LINE",
"140.612 381.999 LINE SMOOTH",
"140.612 391.229 OFFCURVE",
"129.923 393.972 OFFCURVE",
"117.016 394.002 CURVE SMOOTH",
"32.004 394.201 LINE",
"32.004 497.201 LINE",
"195.413 497.001 LINE SMOOTH",
"227.096 496.963 OFFCURVE",
"231.009 469.791 OFFCURVE",
"231.009 461.599 CURVE SMOOTH",
"231.009 459.398 LINE",
"253.604 475.202 LINE SMOOTH",
"278.92 492.909 OFFCURVE",
"309.277 497 OFFCURVE",
"333.607 497 CURVE SMOOTH",
"439.597 497 LINE",
"439.607 394.199 LINE",
"347.607 394 LINE SMOOTH",
"332.031 393.966 OFFCURVE",
"317.982 392.896 OFFCURVE",
"308.607 389 CURVE",
"261.411 355.001 LINE",
"341.404 355.001 LINE SMOOTH",
"373.217 355.001 OFFCURVE",
"394.404 337.696 OFFCURVE",
"394.404 298.001 CURVE SMOOTH",
"394.404 51 LINE SMOOTH",
"394.404 14.955 OFFCURVE",
"371.049 0 OFFCURVE",
"341.404 0 CURVE SMOOTH",
"251.401 0 LINE SMOOTH",
"232.441 0 OFFCURVE",
"219.068 9.668 OFFCURVE",
"214.401 29.002 CURVE",
"209.734 9.668 OFFCURVE",
"193.094 0 OFFCURVE",
"175.401 0 CURVE SMOOTH",
"76 0 LINE SMOOTH",
"44.137 0 OFFCURVE",
"32.004 19.817 OFFCURVE",
"32.004 50.002 CURVE SMOOTH",
"32.004 140.201 LINE SMOOTH",
"32.004 180.996 OFFCURVE",
"44.277 195.266 OFFCURVE",
"58.004 203.002 CURVE",
"22 203.002 LINE",
"22 276.397 LINE"
);
}
);
width = 920;
},
{
components = (
{
alignment = -1;
name = sinSsa;
transform = "{1, 0, 0, 1, 409, 0}";
}
);
layerId = "DC4431BF-9234-4C16-9154-22D387E42D10";
paths = (
{
closed = 1;
nodes = (
"326 320 OFFCURVE",
"317 326 OFFCURVE",
"302 326 CURVE SMOOTH",
"162 326 LINE",
"77 254 LINE",
"104 254 LINE",
"104 228 LINE",
"72 211 OFFCURVE",
"67 194 OFFCURVE",
"67 150 CURVE SMOOTH",
"67 63 LINE SMOOTH",
"67 46 OFFCURVE",
"73 40 OFFCURVE",
"87 40 CURVE SMOOTH",
"137 40 LINE SMOOTH",
"174 40 OFFCURVE",
"177 67 OFFCURVE",
"177 97 CURVE SMOOTH",
"177 188 LINE",
"217 188 LINE",
"217 97 LINE SMOOTH",
"217 67 OFFCURVE",
"218 40 OFFCURVE",
"253 40 CURVE SMOOTH",
"302 40 LINE SMOOTH",
"322 40 OFFCURVE",
"326 53 OFFCURVE",
"326 71 CURVE SMOOTH",
"326 301 LINE SMOOTH"
);
},
{
closed = 1;
nodes = (
"155 375 LINE",
"155 425 LINE SMOOTH",
"155 448 OFFCURVE",
"149 458 OFFCURVE",
"127 458 CURVE SMOOTH",
"37 458 LINE",
"37 497 LINE",
"152 497 LINE SMOOTH",
"181 497 OFFCURVE",
"197 477 OFFCURVE",
"197 443 CURVE SMOOTH",
"197 410 LINE",
"272 472 LINE SMOOTH",
"296 492 OFFCURVE",
"320 497 OFFCURVE",
"339 497 CURVE SMOOTH",
"477 497 LINE",
"477 458 LINE",
"355 458 LINE SMOOTH",
"329 458 OFFCURVE",
"313 451 OFFCURVE",
"294 436 CURVE",
"207 364 LINE",
"323 364 LINE SMOOTH",
"349 364 OFFCURVE",
"371 349 OFFCURVE",
"371 314 CURVE SMOOTH",
"371 53 LINE SMOOTH",
"371 19 OFFCURVE",
"347 0 OFFCURVE",
"319 0 CURVE SMOOTH",
"233 0 LINE SMOOTH",
"214 0 OFFCURVE",
"201 10 OFFCURVE",
"196 29 CURVE",
"191 10 OFFCURVE",
"175 0 OFFCURVE",
"157 0 CURVE SMOOTH",
"68 0 LINE SMOOTH",
"39 0 OFFCURVE",
"23 20 OFFCURVE",
"23 46 CURVE SMOOTH",
"23 154 LINE SMOOTH",
"23 197 OFFCURVE",
"31 214 OFFCURVE",
"46 223 CURVE",
"13 223 LINE",
"13 255 LINE"
);
}
);
width = 918;
}
);
},
{
glyphname = sinKVa;
lastChange = "2021-06-12 12:56:09 +0000";
layers = (
{
layerId = "522BF62C-3FFD-47FE-9DEE-94F66EB24849";
paths = (
{
closed = 1;
nodes = (
"130.608 380.401 LINE",
"130.608 381.999 LINE SMOOTH",
"130.608 391.229 OFFCURVE",
"119.919 393.972 OFFCURVE",
"107.012 394.002 CURVE SMOOTH",
"22 394.201 LINE",
"22 497.201 LINE",
"185.409 497.001 LINE SMOOTH",
"217.092 496.963 OFFCURVE",
"221.005 469.791 OFFCURVE",
"221.005 461.599 CURVE SMOOTH",
"221.005 459.398 LINE",
"243.6 475.202 LINE SMOOTH",
"264.149 489.575 OFFCURVE",
"285.762 494.202 OFFCURVE",
"306.204 494.202 CURVE",
"371.805 486 LINE",
"468 470 LINE",
"455.996 367 LINE SMOOTH",
"365 384.599 LINE",
"315.996 390.999 LINE",
"304.5 390.999 OFFCURVE",
"288.945 387.693 OFFCURVE",
"276.198 376.592 CURVE SMOOTH",
"251.407 355.001 LINE",
"331.4 355.001 LINE SMOOTH",
"363.213 355.001 OFFCURVE",
"384.4 337.696 OFFCURVE",
"384.4 298.001 CURVE SMOOTH",
"384.4 51 LINE SMOOTH",
"384.4 14.955 OFFCURVE",
"361.045 0 OFFCURVE",
"331.4 0 CURVE SMOOTH",
"241.397 0 LINE SMOOTH",
"222.438 0 OFFCURVE",
"209.064 9.668 OFFCURVE",
"204.397 29.002 CURVE",
"199.73 9.668 OFFCURVE",
"183.09 0 OFFCURVE",
"165.397 0 CURVE SMOOTH",
"65.996 0 LINE SMOOTH",
"34.133 0 OFFCURVE",
"22 19.817 OFFCURVE",
"22 50.002 CURVE SMOOTH",
"22 140.201 LINE SMOOTH",
"22 180.996 OFFCURVE",
"34.273 195.266 OFFCURVE",
"48 203.002 CURVE",
"11.997 203.002 LINE",
"11.997 276.397 LINE"
);
},
{
closed = 1;
nodes = (
"882.404 54 LINE SMOOTH",
"882.404 16.271 OFFCURVE",
"869.479 0 OFFCURVE",
"832.404 0 CURVE SMOOTH",
"469.404 0 LINE SMOOTH",
"432.332 0 OFFCURVE",
"419.404 16.273 OFFCURVE",
"419.404 54 CURVE SMOOTH",
"419.404 275.61 LINE SMOOTH",
"419.404 312.277 OFFCURVE",
"438.071 330.61 OFFCURVE",
"475.404 330.61 CURVE SMOOTH",
"541.404 330.61 LINE",
"541.404 353 LINE SMOOTH",
"541.404 362.333 OFFCURVE",
"536.071 367 OFFCURVE",
"525.404 367 CURVE SMOOTH",
"456 367 LINE",
"456 470 LINE",
"602.404 470 LINE SMOOTH",
"644.109 470 OFFCURVE",
"665.403 448.41 OFFCURVE",
"665.403 412 CURVE SMOOTH",
"665.403 236.61 LINE",
"564.404 236.61 LINE SMOOTH",
"550.404 236.61 OFFCURVE",
"543.404 230.277 OFFCURVE",
"543.404 217.61 CURVE SMOOTH",
"543.404 129 LINE SMOOTH",
"543.404 114.333 OFFCURVE",
"549.404 107 OFFCURVE",
"561.404 107 CURVE SMOOTH",
"740.404 107 LINE SMOOTH",
"752.404 107 OFFCURVE",
"758.404 114.333 OFFCURVE",
"758.404 129 CURVE SMOOTH",
"758.404 415 LINE",
"882.404 415 LINE"
);
},
{
closed = 1;
nodes = (
"275.4 255.665 OFFCURVE",
"270.4 262 OFFCURVE",
"260.4 262 CURVE SMOOTH",
"145 262 LINE",
"115.399 236 LINE",
"143.793 236 LINE",
"143.996 222 LINE",
"138.511 218.224 OFFCURVE",
"131.996 204.954 OFFCURVE",
"131.996 180.803 CURVE SMOOTH",
"131.996 127 LINE SMOOTH",
"131.996 109.666 OFFCURVE",
"134.656 107 OFFCURVE",
"145.996 107 CURVE SMOOTH",
"154.397 107 LINE SMOOTH",
"167.482 107 OFFCURVE",
"169.397 112.667 OFFCURVE",
"169.397 124 CURVE SMOOTH",
"169.397 188 LINE",
"237.397 188 LINE",
"237.397 126 LINE SMOOTH",
"237.397 111.333 OFFCURVE",
"240.106 107 OFFCURVE",
"251.397 107 CURVE SMOOTH",
"262.4 107 LINE SMOOTH",
"272.605 107 OFFCURVE",
"275.4 111.803 OFFCURVE",
"275.4 129.802 CURVE SMOOTH",
"275.4 243 LINE SMOOTH"
);
},
{
closed = 1;
nodes = (
"868.404 625 OFFCURVE",
"882.404 600.687 OFFCURVE",
"882.404 544 CURVE SMOOTH",
"882.404 400 LINE",
"758.404 400 LINE",
"758.404 494.602 LINE SMOOTH",
"758.404 512.95 OFFCURVE",
"751.466 517.602 OFFCURVE",
"732.404 517.602 CURVE SMOOTH",
"419.404 517.602 LINE",
"419.404 625 LINE",
"813.404 625 LINE SMOOTH"
);
}
);
width = 912;
},
{
layerId = "DC4431BF-9234-4C16-9154-22D387E42D10";
paths = (
{
closed = 1;
nodes = (
"154 375 LINE",
"154 425 LINE SMOOTH",
"154 448 OFFCURVE",
"148 458 OFFCURVE",
"126 458 CURVE SMOOTH",
"36 458 LINE",
"36 497 LINE",
"151 497 LINE SMOOTH",
"180 497 OFFCURVE",
"196 477 OFFCURVE",
"196 443 CURVE SMOOTH",
"196 410 LINE",
"271 472 LINE SMOOTH",
"294 492 OFFCURVE",
"317 497 OFFCURVE",
"336 497 CURVE",
"387 496 LINE",
"480 494 LINE",
"479 455 LINE SMOOTH",
"386 457 LINE",
"352 458 LINE",
"326 458 OFFCURVE",
"310 450 OFFCURVE",
"291 435 CURVE SMOOTH",
"206 364 LINE",
"322 364 LINE SMOOTH",
"348 364 OFFCURVE",
"370 349 OFFCURVE",
"370 314 CURVE SMOOTH",
"370 53 LINE SMOOTH",
"370 19 OFFCURVE",
"346 0 OFFCURVE",
"318 0 CURVE SMOOTH",
"232 0 LINE SMOOTH",
"213 0 OFFCURVE",
"200 10 OFFCURVE",
"195 29 CURVE",
"190 10 OFFCURVE",
"174 0 OFFCURVE",
"156 0 CURVE SMOOTH",
"67 0 LINE SMOOTH",
"38 0 OFFCURVE",
"22 20 OFFCURVE",
"22 46 CURVE SMOOTH",
"22 154 LINE SMOOTH",
"22 197 OFFCURVE",
"30 214 OFFCURVE",
"45 223 CURVE",
"12 223 LINE",
"12 255 LINE"
);
},
{
closed = 1;
nodes = (
"863 54 LINE SMOOTH",
"863 16 OFFCURVE",
"848 0 OFFCURVE",
"811 0 CURVE SMOOTH",
"473 0 LINE SMOOTH",
"436 0 OFFCURVE",
"423 16 OFFCURVE",
"423 54 CURVE SMOOTH",
"423 296 LINE SMOOTH",
"423 332 OFFCURVE",
"441 351 OFFCURVE",
"479 351 CURVE SMOOTH",
"598 351 LINE",
"598 436 LINE SMOOTH",
"598 453 OFFCURVE",
"584 455 OFFCURVE",
"574 455 CURVE SMOOTH",
"426 455 LINE",
"426 494 LINE",
"591 494 LINE SMOOTH",
"627 494 OFFCURVE",
"643 478 OFFCURVE",
"643 442 CURVE SMOOTH",
"643 313 LINE",
"496 313 LINE SMOOTH",
"480 313 OFFCURVE",
"468 307 OFFCURVE",
"468 285 CURVE SMOOTH",
"468 65 LINE SMOOTH",
"468 50 OFFCURVE",
"471 40 OFFCURVE",
"487 40 CURVE SMOOTH",
"796 40 LINE SMOOTH",
"811 40 OFFCURVE",
"817 48 OFFCURVE",
"817 68 CURVE SMOOTH",
"817 415 LINE",
"863 415 LINE"
);
},
{
closed = 1;
nodes = (
"325 320 OFFCURVE",
"316 326 OFFCURVE",
"301 326 CURVE SMOOTH",
"161 326 LINE",
"76 254 LINE",
"103 254 LINE",
"103 228 LINE",
"71 210 OFFCURVE",
"66 194 OFFCURVE",
"66 149 CURVE SMOOTH",
"66 63 LINE SMOOTH",
"66 46 OFFCURVE",
"72 40 OFFCURVE",
"86 40 CURVE SMOOTH",
"136 40 LINE SMOOTH",
"173 40 OFFCURVE",
"176 67 OFFCURVE",
"176 97 CURVE SMOOTH",
"176 188 LINE",
"216 188 LINE",
"216 97 LINE SMOOTH",
"216 67 OFFCURVE",
"217 40 OFFCURVE",
"252 40 CURVE SMOOTH",
"301 40 LINE SMOOTH",
"321 40 OFFCURVE",
"325 53 OFFCURVE",
"325 71 CURVE SMOOTH",
"325 301 LINE SMOOTH"
);
},
{
closed = 1;
nodes = (
"840 625 OFFCURVE",
"863 602 OFFCURVE",
"863 548 CURVE SMOOTH",
"863 400 LINE",
"817 400 LINE",
"817 536 LINE SMOOTH",
"817 573 OFFCURVE",
"808 585 OFFCURVE",
"772 585 CURVE SMOOTH",
"423 585 LINE",
"423 625 LINE",
"788 625 LINE SMOOTH"
);
}
);
width = 910;
}
);
},
{
glyphname = sinTVa;
lastChange = "2021-06-12 12:56:09 +0000";
layers = (
{
layerId = "522BF62C-3FFD-47FE-9DEE-94F66EB24849";
paths = (
{
closed = 1;
nodes = (
"331 386.199 LINE SMOOTH",
"322.986 387.794 OFFCURVE",
"314.741 389.033 OFFCURVE",
"307.999 389.029 CURVE SMOOTH",
"296.721 389.023 OFFCURVE",
"287.777 386.631 OFFCURVE",
"278.601 378.6 CURVE SMOOTH",
"251.407 354.8 LINE",
"331.4 354.8 LINE SMOOTH",
"363.213 354.8 OFFCURVE",
"384.4 337.495 OFFCURVE",
"384.4 297.8 CURVE SMOOTH",
"384.4 50.8 LINE SMOOTH",
"384.4 14.754 OFFCURVE",
"361.045 -0.2 OFFCURVE",
"331.4 -0.2 CURVE SMOOTH",
"65.996 -0.2 LINE SMOOTH",
"34.133 -0.2 OFFCURVE",
"22 19.616 OFFCURVE",
"22 49.801 CURVE SMOOTH",
"22 140 LINE SMOOTH",
"22 180.795 OFFCURVE",
"34.273 195.065 OFFCURVE",
"48 202.801 CURVE",
"11.997 202.801 LINE",
"11.997 276.196 LINE",
"130.608 380.2 LINE",
"130.608 381.798 LINE SMOOTH",
"130.608 391.027 OFFCURVE",
"119.919 393.771 OFFCURVE",
"107.012 393.801 CURVE SMOOTH",
"22 394 LINE",
"22 497 LINE",
"185.409 496.8 LINE SMOOTH",
"217.092 496.762 OFFCURVE",
"221.005 469.59 OFFCURVE",
"221.005 461.397 CURVE SMOOTH",
"221.005 459.197 LINE",
"230 466 LINE SMOOTH",
"252.139 482.743 OFFCURVE",
"272.033 492.389 OFFCURVE",
"304 492.424 CURVE SMOOTH",
"342.673 492.466 OFFCURVE",
"384.302 483.39 OFFCURVE",
"399 481 CURVE SMOOTH",
"634.197 446.399 LINE",
"528 355.008 LINE"
);
},
{
closed = 1;
nodes = (
"889 54 LINE SMOOTH",
"889 16.271 OFFCURVE",
"876.075 0 OFFCURVE",
"839 0 CURVE SMOOTH",
"476 0 LINE SMOOTH",
"438.928 0 OFFCURVE",
"426 16.273 OFFCURVE",
"426 54 CURVE SMOOTH",
"426 263.008 LINE SMOOTH",
"426 299.675 OFFCURVE",
"444.667 318.008 OFFCURVE",
"482 318.008 CURVE SMOOTH",
"548 318.008 LINE",
"548 340.397 LINE SMOOTH",
"548 349.73 OFFCURVE",
"541.221 352.465 OFFCURVE",
"532 354.397 CURVE SMOOTH",
"510 359.008 LINE",
"425.999 449.39 LINE",
"609 449.39 LINE SMOOTH",
"650.705 449.39 OFFCURVE",
"672 427.8 OFFCURVE",
"672 391.39 CURVE SMOOTH",
"672 224.008 LINE",
"571 224.008 LINE SMOOTH",
"557 224.008 OFFCURVE",
"550 217.675 OFFCURVE",
"550 205.008 CURVE SMOOTH",
"550 129 LINE SMOOTH",
"550 114.333 OFFCURVE",
"556 107 OFFCURVE",
"568 107 CURVE SMOOTH",
"747 107 LINE SMOOTH",
"759 107 OFFCURVE",
"765 114.333 OFFCURVE",
"765 129 CURVE SMOOTH",
"765 415 LINE",
"889 415 LINE"
);
},
{
closed = 1;
nodes = (
"263.6 255.465 OFFCURVE",
"258.6 261.8 OFFCURVE",
"248.6 261.8 CURVE SMOOTH",
"145 261.8 LINE",
"115.399 235.8 LINE",
"156.196 235.8 LINE",
"156.399 221.8 LINE",
"150.914 218.023 OFFCURVE",
"144.399 204.754 OFFCURVE",
"144.399 180.603 CURVE SMOOTH",
"144.399 126.8 LINE SMOOTH",
"144.399 109.466 OFFCURVE",
"147.06 106.8 OFFCURVE",
"158.399 106.8 CURVE SMOOTH",
"250.6 106.8 LINE SMOOTH",
"260.805 106.8 OFFCURVE",
"263.6 111.603 OFFCURVE",
"263.6 129.602 CURVE SMOOTH",
"263.6 242.8 LINE SMOOTH"
);
},
{
closed = 1;
nodes = (
"875 625 OFFCURVE",
"889 600.687 OFFCURVE",
"889 544 CURVE SMOOTH",
"889 400 LINE",
"765 400 LINE",
"765 494.602 LINE SMOOTH",
"765 512.95 OFFCURVE",
"758.062 517.602 OFFCURVE",
"739 517.602 CURVE SMOOTH",
"426 517.602 LINE",
"426 625 LINE",
"820 625 LINE SMOOTH"
);
}
);
width = 919;
},
{
layerId = "DC4431BF-9234-4C16-9154-22D387E42D10";
paths = (
{
closed = 1;
nodes = (
"349 457 LINE SMOOTH",
"327 457 OFFCURVE",
"318 450 OFFCURVE",
"294 430 CURVE SMOOTH",
"281 420 OFFCURVE",
"268 409 OFFCURVE",
"255 398 CURVE SMOOTH",
"215 364 LINE",
"320 364 LINE SMOOTH",
"346 364 OFFCURVE",
"368 349 OFFCURVE",
"368 314 CURVE SMOOTH",
"368 53 LINE SMOOTH",
"368 19 OFFCURVE",
"344 0 OFFCURVE",
"316 0 CURVE SMOOTH",
"76 0 LINE SMOOTH",
"47 0 OFFCURVE",
"31 20 OFFCURVE",
"31 46 CURVE SMOOTH",
"31 154 LINE SMOOTH",
"31 197 OFFCURVE",
"39 214 OFFCURVE",
"54 223 CURVE",
"21 223 LINE",
"21 255 LINE",
"163 375 LINE",
"163 425 LINE SMOOTH",
"163 448 OFFCURVE",
"157 458 OFFCURVE",
"135 458 CURVE SMOOTH",
"45 458 LINE",
"45 497 LINE",
"160 497 LINE SMOOTH",
"189 497 OFFCURVE",
"205 477 OFFCURVE",
"205 443 CURVE SMOOTH",
"205 410 LINE",
"240 440 LINE SMOOTH",
"254 451 OFFCURVE",
"267 462 OFFCURVE",
"282 472 CURVE SMOOTH",
"306 490 OFFCURVE",
"323 496 OFFCURVE",
"341 495 CURVE SMOOTH",
"513 492 LINE",
"502 454 LINE"
);
},
{
closed = 1;
nodes = (
"882 54 LINE SMOOTH",
"882 16 OFFCURVE",
"867 0 OFFCURVE",
"830 0 CURVE SMOOTH",
"491 0 LINE SMOOTH",
"454 0 OFFCURVE",
"441 16 OFFCURVE",
"441 54 CURVE SMOOTH",
"441 295 LINE SMOOTH",
"441 331 OFFCURVE",
"460 350 OFFCURVE",
"497 350 CURVE SMOOTH",
"616 350 LINE",
"616 435 LINE SMOOTH",
"616 451 OFFCURVE",
"603 454 OFFCURVE",
"592 454 CURVE SMOOTH",
"450 454 LINE",
"441 492 LINE",
"610 492 LINE SMOOTH",
"646 492 OFFCURVE",
"662 476 OFFCURVE",
"662 440 CURVE SMOOTH",
"662 311 LINE",
"514 311 LINE SMOOTH",
"499 311 OFFCURVE",
"487 305 OFFCURVE",
"487 284 CURVE SMOOTH",
"487 65 LINE SMOOTH",
"487 50 OFFCURVE",
"489 40 OFFCURVE",
"506 40 CURVE SMOOTH",
"814 40 LINE SMOOTH",
"830 40 OFFCURVE",
"836 48 OFFCURVE",
"836 68 CURVE SMOOTH",
"836 415 LINE",
"882 415 LINE"
);
},
{
closed = 1;
nodes = (
"322 320 OFFCURVE",
"313 326 OFFCURVE",
"298 326 CURVE SMOOTH",
"170 326 LINE",
"85 254 LINE",
"113 254 LINE",
"113 228 LINE",
"82 210 OFFCURVE",
"77 194 OFFCURVE",
"77 149 CURVE SMOOTH",
"77 63 LINE SMOOTH",
"77 46 OFFCURVE",
"82 39 OFFCURVE",
"96 39 CURVE SMOOTH",
"298 39 LINE SMOOTH",
"318 39 OFFCURVE",
"322 53 OFFCURVE",
"322 71 CURVE SMOOTH",
"322 301 LINE SMOOTH"
);
},
{
closed = 1;
nodes = (
"858 625 OFFCURVE",
"882 602 OFFCURVE",
"882 548 CURVE SMOOTH",
"882 400 LINE",
"836 400 LINE",
"836 536 LINE SMOOTH",
"836 573 OFFCURVE",
"827 585 OFFCURVE",
"791 585 CURVE SMOOTH",
"441 585 LINE",
"441 625 LINE",
"807 625 LINE SMOOTH"
);
}
);
width = 925;
}
);
},
{
glyphname = sinTTha;
lastChange = "2021-06-12 12:56:09 +0000";
layers = (
{
components = (
{
name = sinTha;
transform = "{1, 0, 0, 1, 410, 0}";
}
);
layerId = "522BF62C-3FFD-47FE-9DEE-94F66EB24849";
paths = (
{
closed = 1;
nodes = (
"341 386.199 LINE SMOOTH",
"333.187 388.637 OFFCURVE",
"324.741 389.834 OFFCURVE",
"317.999 389.83 CURVE SMOOTH",
"306.721 389.824 OFFCURVE",
"297.777 386.631 OFFCURVE",
"288.601 378.6 CURVE SMOOTH",
"261.407 354.8 LINE",
"341.4 354.8 LINE SMOOTH",
"373.213 354.8 OFFCURVE",
"394.4 337.495 OFFCURVE",
"394.4 297.8 CURVE SMOOTH",
"394.4 50.8 LINE SMOOTH",
"394.4 14.754 OFFCURVE",
"371.045 -0.2 OFFCURVE",
"341.4 -0.2 CURVE SMOOTH",
"75.996 -0.2 LINE SMOOTH",
"44.133 -0.2 OFFCURVE",
"32 19.616 OFFCURVE",
"32 49.801 CURVE SMOOTH",
"32 140 LINE SMOOTH",
"32 180.795 OFFCURVE",
"44.273 195.065 OFFCURVE",
"58 202.801 CURVE",
"21.997 202.801 LINE",
"21.997 276.196 LINE",
"140.608 380.2 LINE",
"140.608 381.798 LINE SMOOTH",
"140.608 391.027 OFFCURVE",
"129.919 393.771 OFFCURVE",
"117.012 393.801 CURVE SMOOTH",
"32 394 LINE",
"32 497 LINE",
"195.409 496.8 LINE SMOOTH",
"227.092 496.762 OFFCURVE",
"231.005 469.59 OFFCURVE",
"231.005 461.397 CURVE SMOOTH",
"231.005 459.197 LINE",
"240 466 LINE SMOOTH",
"262.139 482.743 OFFCURVE",
"282.033 492.389 OFFCURVE",
"314 492.424 CURVE SMOOTH",
"352.673 492.466 OFFCURVE",
"399.669 476.436 OFFCURVE",
"414 472 CURVE SMOOTH",
"664 394 LINE",
"441 355 LINE"
);
},
{
closed = 1;
nodes = (
"273.6 255.465 OFFCURVE",
"268.6 261.8 OFFCURVE",
"258.6 261.8 CURVE SMOOTH",
"155 261.8 LINE",
"125.399 235.8 LINE",
"166.196 235.8 LINE",
"166.399 221.8 LINE",
"160.914 218.023 OFFCURVE",
"154.399 204.754 OFFCURVE",
"154.399 180.603 CURVE SMOOTH",
"154.399 126.8 LINE SMOOTH",
"154.399 109.466 OFFCURVE",
"157.06 106.8 OFFCURVE",
"168.399 106.8 CURVE SMOOTH",
"260.6 106.8 LINE SMOOTH",
"270.805 106.8 OFFCURVE",
"273.6 111.603 OFFCURVE",
"273.6 129.602 CURVE SMOOTH",
"273.6 242.8 LINE SMOOTH"
);
}
);
width = 940;
},
{
components = (
{
alignment = -1;
name = sinTha;
transform = "{1, 0, 0, 1, 406, 0}";
}
);
layerId = "DC4431BF-9234-4C16-9154-22D387E42D10";
paths = (
{
closed = 1;
nodes = (
"365 443 LINE SMOOTH",
"335 455 OFFCURVE",
"313 451 OFFCURVE",
"295 436 CURVE SMOOTH",
"280 424 OFFCURVE",
"266 413 OFFCURVE",
"251 400 CURVE SMOOTH",
"207 364 LINE",
"312 364 LINE SMOOTH",
"338 364 OFFCURVE",
"360 349 OFFCURVE",
"360 314 CURVE SMOOTH",
"360 53 LINE SMOOTH",
"360 19 OFFCURVE",
"336 0 OFFCURVE",
"308 0 CURVE SMOOTH",
"68 0 LINE SMOOTH",
"39 0 OFFCURVE",
"23 20 OFFCURVE",
"23 46 CURVE SMOOTH",
"23 154 LINE SMOOTH",
"23 197 OFFCURVE",
"31 214 OFFCURVE",
"46 223 CURVE",
"13 223 LINE",
"13 255 LINE",
"155 375 LINE",
"155 425 LINE SMOOTH",
"155 448 OFFCURVE",
"149 458 OFFCURVE",
"127 458 CURVE SMOOTH",
"37 458 LINE",
"37 497 LINE",
"152 497 LINE SMOOTH",
"181 497 OFFCURVE",
"197 477 OFFCURVE",
"197 443 CURVE SMOOTH",
"197 410 LINE",
"234 441 LINE SMOOTH",
"249 452 OFFCURVE",
"263 464 OFFCURVE",
"278 474 CURVE SMOOTH",
"303 492 OFFCURVE",
"341 499 OFFCURVE",
"370 487 CURVE SMOOTH",
"608 394 LINE",
"508 387 LINE"
);
},
{
closed = 1;
nodes = (
"314 320 OFFCURVE",
"305 326 OFFCURVE",
"290 326 CURVE SMOOTH",
"162 326 LINE",
"77 254 LINE",
"105 254 LINE",
"105 228 LINE",
"74 210 OFFCURVE",
"69 194 OFFCURVE",
"69 149 CURVE SMOOTH",
"69 63 LINE SMOOTH",
"69 46 OFFCURVE",
"74 39 OFFCURVE",
"88 39 CURVE SMOOTH",
"290 39 LINE SMOOTH",
"310 39 OFFCURVE",
"314 53 OFFCURVE",
"314 71 CURVE SMOOTH",
"314 301 LINE SMOOTH"
);
}
);
width = 918;
}
);
},
{
glyphname = sinNDa;
lastChange = "2021-06-12 12:56:09 +0000";
layers = (
{
components = (
{
name = sinDa;
transform = "{1, 0, 0, 1, 393.6, 0}";
}
);
layerId = "522BF62C-3FFD-47FE-9DEE-94F66EB24849";
paths = (
{
closed = 1;
nodes = (
"176 311 LINE",
"176 373.5 LINE SMOOTH",
"176 387.167 OFFCURVE",
"168.333 394 OFFCURVE",
"153 394 CURVE SMOOTH",
"22 394 LINE",
"22 497 LINE",
"195 497 LINE SMOOTH",
"238.332 497 OFFCURVE",
"266 474.113 OFFCURVE",
"266 431 CURVE SMOOTH",
"266 418 LINE"
);
},
{
closed = 1;
nodes = (
"292 314.56 LINE",
"336.414 314.5 LINE SMOOTH",
"371.416 314.431 OFFCURVE",
"384.414 299.698 OFFCURVE",
"384.414 266.572 CURVE SMOOTH",
"384.414 60 LINE SMOOTH",
"384.414 12.607 OFFCURVE",
"365.014 0 OFFCURVE",
"317.414 0 CURVE SMOOTH",
"70 0 LINE SMOOTH",
"33.361 0 OFFCURVE",
"22 14.052 OFFCURVE",
"22 51 CURVE SMOOTH",
"22 341.25 LINE",
"136.5 341.25 LINE",
"136.5 278.799 LINE",
"144.5 160.803 LINE",
"144.5 125.25 LINE SMOOTH",
"144.5 111.04 OFFCURVE",
"147.676 107 OFFCURVE",
"161.5 107 CURVE SMOOTH",
"243.414 107 LINE SMOOTH",
"263.123 107 OFFCURVE",
"263.414 111.54 OFFCURVE",
"263.414 132 CURVE SMOOTH",
"263.414 203 LINE SMOOTH",
"263.414 216.333 OFFCURVE",
"258.414 223 OFFCURVE",
"248.414 223 CURVE SMOOTH",
"212 223 LINE"
);
},
{
closed = 1;
nodes = (
"140.75 151.324 OFFCURVE",
"136 153.566 OFFCURVE",
"136 158.053 CURVE",
"134 298.147 LINE",
"137.068 296.313 OFFCURVE",
"139.318 295.396 OFFCURVE",
"140.75 295.396 CURVE SMOOTH",
"143.446 295.396 OFFCURVE",
"146.194 297.066 OFFCURVE",
"149 300.397 CURVE SMOOTH",
"274.199 450 LINE SMOOTH",
"301.946 483.155 OFFCURVE",
"323.47 497 OFFCURVE",
"356 497 CURVE SMOOTH",
"431.998 497 LINE",
"432 393.999 LINE",
"398 394 LINE SMOOTH",
"378.403 394 OFFCURVE",
"372.183 386.478 OFFCURVE",
"360 373 CURVE SMOOTH",
"170 162.803 LINE SMOOTH",
"163.174 155.251 OFFCURVE",
"156.698 151.324 OFFCURVE",
"150.25 151.324 CURVE SMOOTH"
);
}
);
width = 853;
},
{
components = (
{
alignment = -1;
name = sinDa;
transform = "{1, 0, 0, 1, 383, 0}";
}
);
layerId = "DC4431BF-9234-4C16-9154-22D387E42D10";
paths = (
{
closed = 1;
nodes = (
"178 316 LINE",
"178 426 LINE SMOOTH",
"178 451 OFFCURVE",
"168 458 OFFCURVE",
"147 458 CURVE SMOOTH",
"22 458 LINE",
"22 497 LINE",
"160 497 LINE SMOOTH",
"203 497 OFFCURVE",
"218 481 OFFCURVE",
"218 438 CURVE SMOOTH",
"218 366 LINE"
);
},
{
closed = 1;
nodes = (
"218 323 LINE",
"311 323 LINE SMOOTH",
"346 323 OFFCURVE",
"359 308 OFFCURVE",
"359 275 CURVE SMOOTH",
"359 60 LINE SMOOTH",
"359 13 OFFCURVE",
"339 0 OFFCURVE",
"292 0 CURVE SMOOTH",
"70 0 LINE SMOOTH",
"33 0 OFFCURVE",
"22 14 OFFCURVE",
"22 51 CURVE SMOOTH",
"22 341 LINE",
"67 341 LINE",
"67 220 LINE",
"67 191 LINE",
"67 63 LINE SMOOTH",
"67 46 OFFCURVE",
"71 40 OFFCURVE",
"90 40 CURVE SMOOTH",
"282 40 LINE SMOOTH",
"309 40 OFFCURVE",
"313 48 OFFCURVE",
"313 73 CURVE SMOOTH",
"313 261 LINE SMOOTH",
"313 279 OFFCURVE",
"304 285 OFFCURVE",
"289 285 CURVE SMOOTH",
"185 285 LINE"
);
},
{
closed = 1;
nodes = (
"72 174 OFFCURVE",
"67 177 OFFCURVE",
"64 180 CURVE",
"64 231 LINE",
"66 229 OFFCURVE",
"70 225 OFFCURVE",
"75 225 CURVE SMOOTH",
"83 225 OFFCURVE",
"87 230 OFFCURVE",
"92 236 CURVE SMOOTH",
"270 441 LINE SMOOTH",
"293 468 OFFCURVE",
"318 497 OFFCURVE",
"355 497 CURVE SMOOTH",
"467 497 LINE",
"467 458 LINE",
"381 458 LINE SMOOTH",
"348 458 OFFCURVE",
"335 451 OFFCURVE",
"316 429 CURVE SMOOTH",
"106 189 LINE SMOOTH",
"96 178 OFFCURVE",
"87 174 OFFCURVE",
"80 174 CURVE SMOOTH"
);
}
);
width = 849;
}
);
},
